G04 #@! TF.GenerationSoftware,KiCad,Pcbnew,9.0.3*
G04 #@! TF.CreationDate,2025-08-10T21:25:08+02:00*
G04 #@! TF.ProjectId,NJFET_MATCHING,4e4a4645-545f-44d4-9154-4348494e472e,rev?*
G04 #@! TF.SameCoordinates,Original*
G04 #@! TF.FileFunction,Copper,L2,Bot*
G04 #@! TF.FilePolarity,Positive*
%FSLAX46Y46*%
G04 Gerber Fmt 4.6, Leading zero omitted, Abs format (unit mm)*
G04 Created by KiCad (PCBNEW 9.0.3) date 2025-08-10 21:25:08*
%MOMM*%
%LPD*%
G01*
G04 APERTURE LIST*
G04 Aperture macros list*
%AMRoundRect*
0 Rectangle with rounded corners*
0 $1 Rounding radius*
0 $2 $3 $4 $5 $6 $7 $8 $9 X,Y pos of 4 corners*
0 Add a 4 corners polygon primitive as box body*
4,1,4,$2,$3,$4,$5,$6,$7,$8,$9,$2,$3,0*
0 Add four circle primitives for the rounded corners*
1,1,$1+$1,$2,$3*
1,1,$1+$1,$4,$5*
1,1,$1+$1,$6,$7*
1,1,$1+$1,$8,$9*
0 Add four rect primitives between the rounded corners*
20,1,$1+$1,$2,$3,$4,$5,0*
20,1,$1+$1,$4,$5,$6,$7,0*
20,1,$1+$1,$6,$7,$8,$9,0*
20,1,$1+$1,$8,$9,$2,$3,0*%
G04 Aperture macros list end*
G04 #@! TA.AperFunction,NonConductor*
%ADD10C,0.200000*%
G04 #@! TD*
%ADD11C,0.200000*%
G04 #@! TA.AperFunction,ComponentPad*
%ADD12C,1.500000*%
G04 #@! TD*
G04 #@! TA.AperFunction,ComponentPad*
%ADD13RoundRect,0.250000X-1.050000X1.050000X-1.050000X-1.050000X1.050000X-1.050000X1.050000X1.050000X0*%
G04 #@! TD*
G04 #@! TA.AperFunction,ComponentPad*
%ADD14C,2.600000*%
G04 #@! TD*
G04 #@! TA.AperFunction,ComponentPad*
%ADD15RoundRect,0.250000X-4.050000X-2.550000X4.050000X-2.550000X4.050000X2.550000X-4.050000X2.550000X0*%
G04 #@! TD*
G04 #@! TA.AperFunction,ViaPad*
%ADD16C,0.650000*%
G04 #@! TD*
G04 #@! TA.AperFunction,Conductor*
%ADD17C,1.270000*%
G04 #@! TD*
G04 APERTURE END LIST*
D10*
X176657000Y-101409500D02*
X178562000Y-101409500D01*
X178562000Y-103568500D01*
X176657000Y-103568500D01*
X176657000Y-101409500D01*
X174752000Y-101409500D02*
X176657000Y-101409500D01*
X176657000Y-103568500D01*
X174752000Y-103568500D01*
X174752000Y-101409500D01*
D11*
D10*
X177858945Y-102022957D02*
X177811326Y-101975338D01*
X177811326Y-101975338D02*
X177716088Y-101927719D01*
X177716088Y-101927719D02*
X177477993Y-101927719D01*
X177477993Y-101927719D02*
X177382755Y-101975338D01*
X177382755Y-101975338D02*
X177335136Y-102022957D01*
X177335136Y-102022957D02*
X177287517Y-102118195D01*
X177287517Y-102118195D02*
X177287517Y-102213433D01*
X177287517Y-102213433D02*
X177335136Y-102356290D01*
X177335136Y-102356290D02*
X177906564Y-102927719D01*
X177906564Y-102927719D02*
X177287517Y-102927719D01*
D12*
G04 #@! TO.P,U4,1*
G04 #@! TO.N,/SOURCE_1*
X173355000Y-116772000D03*
G04 #@! TO.P,U4,2*
G04 #@! TO.N,VCC*
X172085000Y-119312000D03*
G04 #@! TO.P,U4,3*
G04 #@! TO.N,unconnected-(U4-Pad3)*
X170815000Y-116772000D03*
G04 #@! TO.P,U4,4*
G04 #@! TO.N,/GATE_1*
X169545000Y-119312000D03*
G04 #@! TO.P,U4,5*
G04 #@! TO.N,/SOURCE_2*
X169545000Y-133672000D03*
G04 #@! TO.P,U4,6*
G04 #@! TO.N,VCC*
X170815000Y-131132000D03*
G04 #@! TO.P,U4,7*
G04 #@! TO.N,unconnected-(U4-Pad7)*
X172085000Y-133672000D03*
G04 #@! TO.P,U4,8*
G04 #@! TO.N,/GATE_2*
X173355000Y-131132000D03*
G04 #@! TD*
D13*
G04 #@! TO.P,J5,1,Pin_1*
G04 #@! TO.N,/GATE_2*
X125730000Y-130302000D03*
D14*
G04 #@! TO.P,J5,2,Pin_2*
G04 #@! TO.N,/SOURCE_2*
X125730000Y-135382000D03*
G04 #@! TD*
D13*
G04 #@! TO.P,J2,1,Pin_1*
G04 #@! TO.N,VCC*
X125730000Y-99822000D03*
D14*
G04 #@! TO.P,J2,2,Pin_2*
G04 #@! TO.N,GND*
X125730000Y-104902000D03*
G04 #@! TD*
D15*
G04 #@! TO.P,Q1,1,D*
G04 #@! TO.N,VDD*
X173990000Y-64262000D03*
G04 #@! TO.P,Q1,2,G*
G04 #@! TO.N,Net-(J3-Pin_1)*
X173990000Y-76962000D03*
G04 #@! TO.P,Q1,3,S*
G04 #@! TO.N,Net-(J3-Pin_2)*
X173990000Y-89662000D03*
G04 #@! TD*
D13*
G04 #@! TO.P,J4,1,Pin_1*
G04 #@! TO.N,/GATE_1*
X125730000Y-115062000D03*
D14*
G04 #@! TO.P,J4,2,Pin_2*
G04 #@! TO.N,/SOURCE_1*
X125730000Y-120142000D03*
G04 #@! TD*
D13*
G04 #@! TO.P,J1,1,Pin_1*
G04 #@! TO.N,VDD*
X125730000Y-66802000D03*
D14*
G04 #@! TO.P,J1,2,Pin_2*
G04 #@! TO.N,GND*
X125730000Y-71882000D03*
G04 #@! TD*
D13*
G04 #@! TO.P,J3,1,Pin_1*
G04 #@! TO.N,Net-(J3-Pin_1)*
X125730000Y-82042000D03*
D14*
G04 #@! TO.P,J3,2,Pin_2*
G04 #@! TO.N,Net-(J3-Pin_2)*
X125730000Y-87122000D03*
G04 #@! TD*
D16*
G04 #@! TO.N,VDD*
X145402000Y-77610000D03*
X151064000Y-83632000D03*
G04 #@! TO.N,GND*
X148082000Y-126873000D03*
X149098000Y-87122000D03*
X149606000Y-128397000D03*
X150241000Y-87122000D03*
X148082000Y-128397000D03*
X149606000Y-80137000D03*
X149098000Y-135382000D03*
X149606000Y-126873000D03*
X148082000Y-111633000D03*
X149606000Y-113157000D03*
X148209000Y-78613000D03*
X148082000Y-113157000D03*
X149606000Y-111633000D03*
X149606000Y-78613000D03*
X150241000Y-135382000D03*
X151384000Y-133858000D03*
X151384000Y-85598000D03*
X148209000Y-80137000D03*
G04 #@! TO.N,VCC*
X151064000Y-116652000D03*
X151069000Y-131892000D03*
X145402000Y-110630000D03*
X145402000Y-125997000D03*
G04 #@! TD*
D17*
G04 #@! TO.N,VDD*
X145402000Y-70472000D02*
X141732000Y-66802000D01*
X141732000Y-66802000D02*
X125730000Y-66802000D01*
X145402000Y-77610000D02*
X145402000Y-70472000D01*
X151064000Y-83632000D02*
X148021000Y-83632000D01*
X148021000Y-83632000D02*
X145402000Y-81013000D01*
X145402000Y-81013000D02*
X145402000Y-77610000D01*
G04 #@! TO.N,VCC*
X143129000Y-99822000D02*
X125730000Y-99822000D01*
X169037000Y-123698000D02*
X169037000Y-128270000D01*
X145402000Y-130924000D02*
X145402000Y-125997000D01*
X145402000Y-112890000D02*
X145402000Y-110630000D01*
X145402000Y-102095000D02*
X143129000Y-99822000D01*
X157358000Y-125603000D02*
X151069000Y-131892000D01*
X151064000Y-115504000D02*
X150368000Y-114808000D01*
X150368000Y-114808000D02*
X147320000Y-114808000D01*
X169037000Y-128270000D02*
X170815000Y-130048000D01*
X151069000Y-131892000D02*
X146370000Y-131892000D01*
X145402000Y-110630000D02*
X145402000Y-102095000D01*
X170815000Y-130048000D02*
X170815000Y-131132000D01*
X147320000Y-114808000D02*
X145402000Y-112890000D01*
X172085000Y-119312000D02*
X172085000Y-120650000D01*
X146370000Y-131892000D02*
X145402000Y-130924000D01*
X169037000Y-125603000D02*
X157358000Y-125603000D01*
X151064000Y-116652000D02*
X151064000Y-115504000D01*
X172085000Y-120650000D02*
X169037000Y-123698000D01*
X151064000Y-119319000D02*
X151064000Y-116652000D01*
X145402000Y-124981000D02*
X151064000Y-119319000D01*
X145402000Y-125997000D02*
X145402000Y-124981000D01*
G04 #@! TD*
G04 #@! TA.AperFunction,Conductor*
G04 #@! TO.N,GND*
G36*
X179483621Y-60530502D02*
G01*
X179530114Y-60584158D01*
X179541500Y-60636500D01*
X179541500Y-139367500D01*
X179521498Y-139435621D01*
X179467842Y-139482114D01*
X179415500Y-139493500D01*
X120684500Y-139493500D01*
X120616379Y-139473498D01*
X120569886Y-139419842D01*
X120558500Y-139367500D01*
X120558500Y-135259658D01*
X124175500Y-135259658D01*
X124175500Y-135504342D01*
X124213777Y-135746013D01*
X124213778Y-135746018D01*
X124289386Y-135978716D01*
X124289388Y-135978721D01*
X124289389Y-135978722D01*
X124400474Y-136196739D01*
X124544295Y-136394691D01*
X124717308Y-136567704D01*
X124717311Y-136567706D01*
X124915264Y-136711528D01*
X125133279Y-136822612D01*
X125365981Y-136898221D01*
X125365982Y-136898221D01*
X125365987Y-136898223D01*
X125607658Y-136936500D01*
X125607661Y-136936500D01*
X125852339Y-136936500D01*
X125852342Y-136936500D01*
X126094013Y-136898223D01*
X126326721Y-136822612D01*
X126544736Y-136711528D01*
X126742689Y-136567706D01*
X126915706Y-136394689D01*
X127059528Y-136196736D01*
X127170612Y-135978721D01*
X127246223Y-135746013D01*
X127284500Y-135504342D01*
X127284500Y-135259658D01*
X127246223Y-135017987D01*
X127170612Y-134785279D01*
X127059528Y-134567264D01*
X126915706Y-134369311D01*
X126915704Y-134369308D01*
X126742691Y-134196295D01*
X126544739Y-134052474D01*
X126544738Y-134052473D01*
X126544736Y-134052472D01*
X126326721Y-133941388D01*
X126326718Y-133941387D01*
X126326716Y-133941386D01*
X126094016Y-133865778D01*
X126094020Y-133865778D01*
X126049026Y-133858651D01*
X125852342Y-133827500D01*
X125607658Y-133827500D01*
X125365987Y-133865777D01*
X125365981Y-133865778D01*
X125133283Y-133941386D01*
X125133277Y-133941389D01*
X124915260Y-134052474D01*
X124717308Y-134196295D01*
X124544295Y-134369308D01*
X124400474Y-134567260D01*
X124289389Y-134785277D01*
X124289386Y-134785283D01*
X124213778Y-135017981D01*
X124213777Y-135017986D01*
X124213777Y-135017987D01*
X124175500Y-135259658D01*
X120558500Y-135259658D01*
X120558500Y-133107263D01*
X160159500Y-133107263D01*
X160159500Y-133336736D01*
X160189450Y-133564231D01*
X160189452Y-133564238D01*
X160248842Y-133785887D01*
X160336656Y-133997888D01*
X160336657Y-133997889D01*
X160336662Y-133997900D01*
X160451386Y-134196608D01*
X160451391Y-134196615D01*
X160591073Y-134378652D01*
X160591092Y-134378673D01*
X160753326Y-134540907D01*
X160753347Y-134540926D01*
X160935384Y-134680608D01*
X160935391Y-134680613D01*
X161134099Y-134795337D01*
X161134103Y-134795338D01*
X161134112Y-134795344D01*
X161346113Y-134883158D01*
X161567762Y-134942548D01*
X161567766Y-134942548D01*
X161567768Y-134942549D01*
X161626398Y-134950267D01*
X161795266Y-134972500D01*
X161795273Y-134972500D01*
X162024727Y-134972500D01*
X162024734Y-134972500D01*
X162230345Y-134945430D01*
X162252231Y-134942549D01*
X162252231Y-134942548D01*
X162252238Y-134942548D01*
X162473887Y-134883158D01*
X162685888Y-134795344D01*
X162884612Y-134680611D01*
X163066661Y-134540919D01*
X163228919Y-134378661D01*
X163368611Y-134196612D01*
X163483344Y-133997888D01*
X163571158Y-133785887D01*
X163628184Y-133573061D01*
X168540500Y-133573061D01*
X168540500Y-133770938D01*
X168574405Y-133941386D01*
X168579103Y-133965002D01*
X168654824Y-134147809D01*
X168764754Y-134312331D01*
X168904669Y-134452246D01*
X169069191Y-134562176D01*
X169251998Y-134637897D01*
X169446065Y-134676500D01*
X169643935Y-134676500D01*
X169838002Y-134637897D01*
X170020809Y-134562176D01*
X170185331Y-134452246D01*
X170325246Y-134312331D01*
X170435176Y-134147809D01*
X170510897Y-133965002D01*
X170549500Y-133770935D01*
X170549500Y-133573065D01*
X170549499Y-133573061D01*
X171080500Y-133573061D01*
X171080500Y-133770938D01*
X171114405Y-133941386D01*
X171119103Y-133965002D01*
X171194824Y-134147809D01*
X171304754Y-134312331D01*
X171444669Y-134452246D01*
X171609191Y-134562176D01*
X171791998Y-134637897D01*
X171986065Y-134676500D01*
X172183935Y-134676500D01*
X172378002Y-134637897D01*
X172560809Y-134562176D01*
X172725331Y-134452246D01*
X172865246Y-134312331D01*
X172975176Y-134147809D01*
X173050897Y-133965002D01*
X173089500Y-133770935D01*
X173089500Y-133573065D01*
X173050897Y-133378998D01*
X172975176Y-133196191D01*
X172915756Y-133107263D01*
X174159500Y-133107263D01*
X174159500Y-133336736D01*
X174189450Y-133564231D01*
X174189452Y-133564238D01*
X174248842Y-133785887D01*
X174336656Y-133997888D01*
X174336657Y-133997889D01*
X174336662Y-133997900D01*
X174451386Y-134196608D01*
X174451391Y-134196615D01*
X174591073Y-134378652D01*
X174591092Y-134378673D01*
X174753326Y-134540907D01*
X174753347Y-134540926D01*
X174935384Y-134680608D01*
X174935391Y-134680613D01*
X175134099Y-134795337D01*
X175134103Y-134795338D01*
X175134112Y-134795344D01*
X175346113Y-134883158D01*
X175567762Y-134942548D01*
X175567766Y-134942548D01*
X175567768Y-134942549D01*
X175626398Y-134950267D01*
X175795266Y-134972500D01*
X175795273Y-134972500D01*
X176024727Y-134972500D01*
X176024734Y-134972500D01*
X176230345Y-134945430D01*
X176252231Y-134942549D01*
X176252231Y-134942548D01*
X176252238Y-134942548D01*
X176473887Y-134883158D01*
X176685888Y-134795344D01*
X176884612Y-134680611D01*
X177066661Y-134540919D01*
X177228919Y-134378661D01*
X177368611Y-134196612D01*
X177483344Y-133997888D01*
X177571158Y-133785887D01*
X177630548Y-133564238D01*
X177660500Y-133336734D01*
X177660500Y-133107266D01*
X177632127Y-132891754D01*
X177630549Y-132879768D01*
X177630548Y-132879766D01*
X177630548Y-132879762D01*
X177571158Y-132658113D01*
X177483344Y-132446112D01*
X177483338Y-132446103D01*
X177483337Y-132446099D01*
X177368613Y-132247391D01*
X177368608Y-132247384D01*
X177228926Y-132065347D01*
X177228907Y-132065326D01*
X177066673Y-131903092D01*
X177066652Y-131903073D01*
X176884615Y-131763391D01*
X176884608Y-131763386D01*
X176685900Y-131648662D01*
X176685892Y-131648658D01*
X176685888Y-131648656D01*
X176473887Y-131560842D01*
X176252238Y-131501452D01*
X176252231Y-131501450D01*
X176024736Y-131471500D01*
X176024734Y-131471500D01*
X175795266Y-131471500D01*
X175795263Y-131471500D01*
X175567768Y-131501450D01*
X175346113Y-131560842D01*
X175134110Y-131648657D01*
X175134099Y-131648662D01*
X174935391Y-131763386D01*
X174935384Y-131763391D01*
X174753347Y-131903073D01*
X174753326Y-131903092D01*
X174591092Y-132065326D01*
X174591073Y-132065347D01*
X174451391Y-132247384D01*
X174451386Y-132247391D01*
X174336662Y-132446099D01*
X174336657Y-132446110D01*
X174248842Y-132658113D01*
X174189450Y-132879768D01*
X174159500Y-133107263D01*
X172915756Y-133107263D01*
X172865246Y-133031669D01*
X172725331Y-132891754D01*
X172560809Y-132781824D01*
X172477499Y-132747316D01*
X172378005Y-132706104D01*
X172378002Y-132706103D01*
X172183938Y-132667500D01*
X172183935Y-132667500D01*
X171986065Y-132667500D01*
X171986061Y-132667500D01*
X171791997Y-132706103D01*
X171791994Y-132706104D01*
X171609190Y-132781824D01*
X171444673Y-132891751D01*
X171444666Y-132891756D01*
X171304756Y-133031666D01*
X171304751Y-133031673D01*
X171194824Y-133196190D01*
X171119104Y-133378994D01*
X171119103Y-133378997D01*
X171080500Y-133573061D01*
X170549499Y-133573061D01*
X170510897Y-133378998D01*
X170435176Y-133196191D01*
X170325246Y-133031669D01*
X170185331Y-132891754D01*
X170020809Y-132781824D01*
X169937499Y-132747316D01*
X169838005Y-132706104D01*
X169838002Y-132706103D01*
X169643938Y-132667500D01*
X169643935Y-132667500D01*
X169446065Y-132667500D01*
X169446061Y-132667500D01*
X169251997Y-132706103D01*
X169251994Y-132706104D01*
X169069190Y-132781824D01*
X168904673Y-132891751D01*
X168904666Y-132891756D01*
X168764756Y-133031666D01*
X168764751Y-133031673D01*
X168654824Y-133196190D01*
X168579104Y-133378994D01*
X168579103Y-133378997D01*
X168540500Y-133573061D01*
X163628184Y-133573061D01*
X163630548Y-133564238D01*
X163660500Y-133336734D01*
X163660500Y-133107266D01*
X163632127Y-132891754D01*
X163630549Y-132879768D01*
X163630548Y-132879766D01*
X163630548Y-132879762D01*
X163571158Y-132658113D01*
X163483344Y-132446112D01*
X163483338Y-132446103D01*
X163483337Y-132446099D01*
X163368613Y-132247391D01*
X163368608Y-132247384D01*
X163228926Y-132065347D01*
X163228907Y-132065326D01*
X163066673Y-131903092D01*
X163066652Y-131903073D01*
X162884615Y-131763391D01*
X162884608Y-131763386D01*
X162685900Y-131648662D01*
X162685892Y-131648658D01*
X162685888Y-131648656D01*
X162473887Y-131560842D01*
X162252238Y-131501452D01*
X162252231Y-131501450D01*
X162024736Y-131471500D01*
X162024734Y-131471500D01*
X161795266Y-131471500D01*
X161795263Y-131471500D01*
X161567768Y-131501450D01*
X161346113Y-131560842D01*
X161134110Y-131648657D01*
X161134099Y-131648662D01*
X160935391Y-131763386D01*
X160935384Y-131763391D01*
X160753347Y-131903073D01*
X160753326Y-131903092D01*
X160591092Y-132065326D01*
X160591073Y-132065347D01*
X160451391Y-132247384D01*
X160451386Y-132247391D01*
X160336662Y-132446099D01*
X160336657Y-132446110D01*
X160248842Y-132658113D01*
X160189450Y-132879768D01*
X160159500Y-133107263D01*
X120558500Y-133107263D01*
X120558500Y-129203737D01*
X124175500Y-129203737D01*
X124175500Y-131400246D01*
X124175502Y-131400270D01*
X124181959Y-131460339D01*
X124181959Y-131460341D01*
X124232657Y-131596266D01*
X124232658Y-131596267D01*
X124319596Y-131712404D01*
X124435733Y-131799342D01*
X124571658Y-131850040D01*
X124631745Y-131856500D01*
X126828254Y-131856499D01*
X126888342Y-131850040D01*
X127024267Y-131799342D01*
X127140404Y-131712404D01*
X127227342Y-131596267D01*
X127278040Y-131460342D01*
X127284500Y-131400255D01*
X127284499Y-129203746D01*
X127278040Y-129143658D01*
X127227342Y-129007733D01*
X127140404Y-128891596D01*
X127024267Y-128804658D01*
X127024265Y-128804657D01*
X127024266Y-128804657D01*
X126888349Y-128753962D01*
X126888344Y-128753960D01*
X126888342Y-128753960D01*
X126858298Y-128750730D01*
X126828256Y-128747500D01*
X124631753Y-128747500D01*
X124631729Y-128747502D01*
X124571660Y-128753959D01*
X124571658Y-128753959D01*
X124435733Y-128804657D01*
X124319596Y-128891596D01*
X124232657Y-129007734D01*
X124181962Y-129143650D01*
X124181960Y-129143658D01*
X124175500Y-129203737D01*
X120558500Y-129203737D01*
X120558500Y-120019658D01*
X124175500Y-120019658D01*
X124175500Y-120264342D01*
X124184072Y-120318462D01*
X124213778Y-120506018D01*
X124289026Y-120737608D01*
X124289388Y-120738721D01*
X124400472Y-120956736D01*
X124400474Y-120956739D01*
X124544295Y-121154691D01*
X124717308Y-121327704D01*
X124740358Y-121344451D01*
X124915264Y-121471528D01*
X125133279Y-121582612D01*
X125365981Y-121658221D01*
X125365982Y-121658221D01*
X125365987Y-121658223D01*
X125607658Y-121696500D01*
X125607661Y-121696500D01*
X125852339Y-121696500D01*
X125852342Y-121696500D01*
X126094013Y-121658223D01*
X126326721Y-121582612D01*
X126544736Y-121471528D01*
X126742689Y-121327706D01*
X126915706Y-121154689D01*
X127059528Y-120956736D01*
X127170612Y-120738721D01*
X127246223Y-120506013D01*
X127284500Y-120264342D01*
X127284500Y-120019658D01*
X127246223Y-119777987D01*
X127170612Y-119545279D01*
X127059528Y-119327264D01*
X126915706Y-119129311D01*
X126915704Y-119129308D01*
X126742691Y-118956295D01*
X126544739Y-118812474D01*
X126544738Y-118812473D01*
X126544736Y-118812472D01*
X126326721Y-118701388D01*
X126326718Y-118701387D01*
X126326716Y-118701386D01*
X126094016Y-118625778D01*
X126094020Y-118625778D01*
X126049026Y-118618651D01*
X125852342Y-118587500D01*
X125607658Y-118587500D01*
X125365987Y-118625777D01*
X125365981Y-118625778D01*
X125133283Y-118701386D01*
X125133277Y-118701389D01*
X124915260Y-118812474D01*
X124717308Y-118956295D01*
X124544295Y-119129308D01*
X124400474Y-119327260D01*
X124289389Y-119545277D01*
X124289386Y-119545283D01*
X124213778Y-119777981D01*
X124213777Y-119777986D01*
X124213777Y-119777987D01*
X124175500Y-120019658D01*
X120558500Y-120019658D01*
X120558500Y-113963737D01*
X124175500Y-113963737D01*
X124175500Y-116160246D01*
X124175502Y-116160270D01*
X124181959Y-116220339D01*
X124181959Y-116220341D01*
X124232657Y-116356266D01*
X124232658Y-116356267D01*
X124319596Y-116472404D01*
X124435733Y-116559342D01*
X124571658Y-116610040D01*
X124631745Y-116616500D01*
X126828254Y-116616499D01*
X126888342Y-116610040D01*
X127024267Y-116559342D01*
X127140404Y-116472404D01*
X127227342Y-116356267D01*
X127278040Y-116220342D01*
X127284500Y-116160255D01*
X127284499Y-113963746D01*
X127278040Y-113903658D01*
X127227342Y-113767733D01*
X127140404Y-113651596D01*
X127024267Y-113564658D01*
X127024265Y-113564657D01*
X127024266Y-113564657D01*
X126888349Y-113513962D01*
X126888344Y-113513960D01*
X126888342Y-113513960D01*
X126858298Y-113510730D01*
X126828256Y-113507500D01*
X124631753Y-113507500D01*
X124631729Y-113507502D01*
X124571660Y-113513959D01*
X124571658Y-113513959D01*
X124435733Y-113564657D01*
X124319596Y-113651596D01*
X124232657Y-113767734D01*
X124181962Y-113903650D01*
X124181960Y-113903658D01*
X124175500Y-113963737D01*
X120558500Y-113963737D01*
X120558500Y-104779701D01*
X124176000Y-104779701D01*
X124176000Y-105024298D01*
X124214266Y-105265901D01*
X124289850Y-105498524D01*
X124289853Y-105498530D01*
X124400902Y-105716476D01*
X124541878Y-105910513D01*
X124541880Y-105910513D01*
X125189436Y-105262957D01*
X125225112Y-105316351D01*
X125315649Y-105406888D01*
X125369041Y-105442563D01*
X124721485Y-106090118D01*
X124721485Y-106090120D01*
X124915523Y-106231097D01*
X125133469Y-106342146D01*
X125133475Y-106342149D01*
X125366098Y-106417733D01*
X125607701Y-106456000D01*
X125852299Y-106456000D01*
X126093901Y-106417733D01*
X126326524Y-106342149D01*
X126326530Y-106342146D01*
X126544476Y-106231097D01*
X126738513Y-106090120D01*
X126738513Y-106090118D01*
X126090958Y-105442563D01*
X126144351Y-105406888D01*
X126234888Y-105316351D01*
X126270563Y-105262958D01*
X126918118Y-105910513D01*
X126918120Y-105910513D01*
X127059097Y-105716476D01*
X127170146Y-105498530D01*
X127170149Y-105498524D01*
X127245733Y-105265901D01*
X127284000Y-105024298D01*
X127284000Y-104779701D01*
X127245733Y-104538098D01*
X127170149Y-104305475D01*
X127170146Y-104305469D01*
X127059097Y-104087523D01*
X126918120Y-103893485D01*
X126918118Y-103893485D01*
X126270562Y-104541040D01*
X126234888Y-104487649D01*
X126144351Y-104397112D01*
X126090957Y-104361436D01*
X126738513Y-103713880D01*
X126738513Y-103713878D01*
X126544476Y-103572902D01*
X126326530Y-103461853D01*
X126326524Y-103461850D01*
X126093901Y-103386266D01*
X125852299Y-103348000D01*
X125607701Y-103348000D01*
X125366098Y-103386266D01*
X125133475Y-103461850D01*
X125133469Y-103461853D01*
X124915523Y-103572902D01*
X124721485Y-103713878D01*
X124721485Y-103713880D01*
X125369041Y-104361436D01*
X125315649Y-104397112D01*
X125225112Y-104487649D01*
X125189436Y-104541041D01*
X124541880Y-103893485D01*
X124541878Y-103893485D01*
X124400902Y-104087523D01*
X124289853Y-104305469D01*
X124289850Y-104305475D01*
X124214266Y-104538098D01*
X124176000Y-104779701D01*
X120558500Y-104779701D01*
X120558500Y-98723737D01*
X124175500Y-98723737D01*
X124175500Y-100920246D01*
X124175502Y-100920270D01*
X124181959Y-100980339D01*
X124181959Y-100980341D01*
X124232657Y-101116266D01*
X124232658Y-101116267D01*
X124319596Y-101232404D01*
X124435733Y-101319342D01*
X124571658Y-101370040D01*
X124631745Y-101376500D01*
X126828254Y-101376499D01*
X126888342Y-101370040D01*
X127024267Y-101319342D01*
X127140404Y-101232404D01*
X127227342Y-101116267D01*
X127278040Y-100980342D01*
X127284500Y-100920255D01*
X127284500Y-100837500D01*
X127304502Y-100769379D01*
X127358158Y-100722886D01*
X127410500Y-100711500D01*
X142708367Y-100711500D01*
X142776488Y-100731502D01*
X142797462Y-100748405D01*
X144475595Y-102426538D01*
X144509621Y-102488850D01*
X144512500Y-102515633D01*
X144512500Y-110542392D01*
X144512500Y-112802392D01*
X144512500Y-112977608D01*
X144546683Y-113149458D01*
X144613735Y-113311336D01*
X144711080Y-113457023D01*
X146752977Y-115498920D01*
X146898664Y-115596265D01*
X147060542Y-115663317D01*
X147232392Y-115697500D01*
X147407609Y-115697500D01*
X149947367Y-115697500D01*
X149977282Y-115706283D01*
X150007752Y-115712912D01*
X150012847Y-115716726D01*
X150015488Y-115717502D01*
X150036462Y-115734405D01*
X150137595Y-115835538D01*
X150171621Y-115897850D01*
X150174500Y-115924633D01*
X150174500Y-118898367D01*
X150154498Y-118966488D01*
X150137595Y-118987462D01*
X144711082Y-124413974D01*
X144711077Y-124413981D01*
X144613735Y-124559664D01*
X144546685Y-124721536D01*
X144546683Y-124721541D01*
X144512500Y-124893389D01*
X144512500Y-124893392D01*
X144512500Y-125909392D01*
X144512500Y-130836392D01*
X144512500Y-131011608D01*
X144546683Y-131183458D01*
X144613735Y-131345336D01*
X144711080Y-131491023D01*
X145802977Y-132582920D01*
X145948664Y-132680265D01*
X146110542Y-132747317D01*
X146282392Y-132781500D01*
X146282393Y-132781500D01*
X151156607Y-132781500D01*
X151156608Y-132781500D01*
X151328458Y-132747317D01*
X151490336Y-132680265D01*
X151636023Y-132582920D01*
X156087489Y-128131454D01*
X162759500Y-128131454D01*
X162759500Y-128312546D01*
X162787829Y-128491409D01*
X162843789Y-128663639D01*
X162926004Y-128824994D01*
X162926006Y-128824997D01*
X162934745Y-128837025D01*
X163032447Y-128971501D01*
X163032449Y-128971503D01*
X163032451Y-128971506D01*
X163160493Y-129099548D01*
X163160496Y-129099550D01*
X163160499Y-129099553D01*
X163307006Y-129205996D01*
X163468361Y-129288211D01*
X163640591Y-129344171D01*
X163819454Y-129372500D01*
X163819457Y-129372500D01*
X164000543Y-129372500D01*
X164000546Y-129372500D01*
X164179409Y-129344171D01*
X164351639Y-129288211D01*
X164512994Y-129205996D01*
X164659501Y-129099553D01*
X164787553Y-128971501D01*
X164893996Y-128824994D01*
X164976211Y-128663639D01*
X165032171Y-128491409D01*
X165060500Y-128312546D01*
X165060500Y-128131454D01*
X165032171Y-127952591D01*
X164976211Y-127780361D01*
X164893996Y-127619006D01*
X164787553Y-127472499D01*
X164787550Y-127472496D01*
X164787548Y-127472493D01*
X164659506Y-127344451D01*
X164659503Y-127344449D01*
X164659501Y-127344447D01*
X164512994Y-127238004D01*
X164351639Y-127155789D01*
X164351636Y-127155788D01*
X164351634Y-127155787D01*
X164179412Y-127099830D01*
X164179409Y-127099829D01*
X164000546Y-127071500D01*
X163819454Y-127071500D01*
X163640591Y-127099829D01*
X163640588Y-127099829D01*
X163640587Y-127099830D01*
X163468365Y-127155787D01*
X163468359Y-127155790D01*
X163307002Y-127238006D01*
X163160496Y-127344449D01*
X163160493Y-127344451D01*
X163032451Y-127472493D01*
X163032449Y-127472496D01*
X162926006Y-127619002D01*
X162843790Y-127780359D01*
X162843787Y-127780365D01*
X162787830Y-127952587D01*
X162787829Y-127952591D01*
X162759500Y-128131454D01*
X156087489Y-128131454D01*
X157689538Y-126529405D01*
X157751850Y-126495379D01*
X157778633Y-126492500D01*
X168021500Y-126492500D01*
X168089621Y-126512502D01*
X168136114Y-126566158D01*
X168147500Y-126618500D01*
X168147500Y-128182392D01*
X168147500Y-128357608D01*
X168181683Y-128529458D01*
X168248735Y-128691336D01*
X168346080Y-128837023D01*
X168346082Y-128837025D01*
X169888595Y-130379538D01*
X169903539Y-130406906D01*
X169920396Y-130433135D01*
X169921301Y-130439433D01*
X169922621Y-130441850D01*
X169925500Y-130468633D01*
X169925500Y-130629495D01*
X169915909Y-130677713D01*
X169849104Y-130838994D01*
X169849103Y-130838997D01*
X169810500Y-131033061D01*
X169810500Y-131230938D01*
X169849103Y-131425002D01*
X169849104Y-131425005D01*
X169905370Y-131560842D01*
X169924824Y-131607809D01*
X170034754Y-131772331D01*
X170174669Y-131912246D01*
X170339191Y-132022176D01*
X170521998Y-132097897D01*
X170716065Y-132136500D01*
X170913935Y-132136500D01*
X171108002Y-132097897D01*
X171290809Y-132022176D01*
X171455331Y-131912246D01*
X171595246Y-131772331D01*
X171705176Y-131607809D01*
X171780897Y-131425002D01*
X171819500Y-131230935D01*
X171819500Y-131033065D01*
X171819499Y-131033061D01*
X172350500Y-131033061D01*
X172350500Y-131230938D01*
X172389103Y-131425002D01*
X172389104Y-131425005D01*
X172445370Y-131560842D01*
X172464824Y-131607809D01*
X172574754Y-131772331D01*
X172714669Y-131912246D01*
X172879191Y-132022176D01*
X173061998Y-132097897D01*
X173256065Y-132136500D01*
X173453935Y-132136500D01*
X173648002Y-132097897D01*
X173830809Y-132022176D01*
X173995331Y-131912246D01*
X174135246Y-131772331D01*
X174245176Y-131607809D01*
X174320897Y-131425002D01*
X174359500Y-131230935D01*
X174359500Y-131033065D01*
X174320897Y-130838998D01*
X174245176Y-130656191D01*
X174135246Y-130491669D01*
X173995331Y-130351754D01*
X173830809Y-130241824D01*
X173648005Y-130166104D01*
X173648002Y-130166103D01*
X173453938Y-130127500D01*
X173453935Y-130127500D01*
X173256065Y-130127500D01*
X173256061Y-130127500D01*
X173061997Y-130166103D01*
X173061994Y-130166104D01*
X172879190Y-130241824D01*
X172714673Y-130351751D01*
X172714666Y-130351756D01*
X172574756Y-130491666D01*
X172574751Y-130491673D01*
X172464824Y-130656190D01*
X172389104Y-130838994D01*
X172389103Y-130838997D01*
X172350500Y-131033061D01*
X171819499Y-131033061D01*
X171780897Y-130838998D01*
X171714091Y-130677713D01*
X171704500Y-130629495D01*
X171704500Y-129960393D01*
X171704499Y-129960389D01*
X171670317Y-129788542D01*
X171603265Y-129626664D01*
X171505920Y-129480977D01*
X171382023Y-129357080D01*
X169963405Y-127938462D01*
X169929379Y-127876150D01*
X169926500Y-127849367D01*
X169926500Y-124118633D01*
X169946502Y-124050512D01*
X169963405Y-124029538D01*
X171861489Y-122131454D01*
X172759500Y-122131454D01*
X172759500Y-122312546D01*
X172787829Y-122491409D01*
X172843789Y-122663639D01*
X172926004Y-122824994D01*
X173032447Y-122971501D01*
X173032449Y-122971503D01*
X173032451Y-122971506D01*
X173160493Y-123099548D01*
X173160496Y-123099550D01*
X173160499Y-123099553D01*
X173307006Y-123205996D01*
X173468361Y-123288211D01*
X173640591Y-123344171D01*
X173819454Y-123372500D01*
X173819457Y-123372500D01*
X174000543Y-123372500D01*
X174000546Y-123372500D01*
X174179409Y-123344171D01*
X174351639Y-123288211D01*
X174512994Y-123205996D01*
X174659501Y-123099553D01*
X174787553Y-122971501D01*
X174893996Y-122824994D01*
X174976211Y-122663639D01*
X175032171Y-122491409D01*
X175060500Y-122312546D01*
X175060500Y-122131454D01*
X175032171Y-121952591D01*
X174976211Y-121780361D01*
X174893996Y-121619006D01*
X174787553Y-121472499D01*
X174787550Y-121472496D01*
X174787548Y-121472493D01*
X174659506Y-121344451D01*
X174659503Y-121344449D01*
X174659501Y-121344447D01*
X174512994Y-121238004D01*
X174351639Y-121155789D01*
X174351636Y-121155788D01*
X174351634Y-121155787D01*
X174179412Y-121099830D01*
X174179409Y-121099829D01*
X174000546Y-121071500D01*
X173819454Y-121071500D01*
X173640591Y-121099829D01*
X173640588Y-121099829D01*
X173640587Y-121099830D01*
X173468365Y-121155787D01*
X173468359Y-121155790D01*
X173307002Y-121238006D01*
X173160496Y-121344449D01*
X173160493Y-121344451D01*
X173032451Y-121472493D01*
X173032449Y-121472496D01*
X172926006Y-121619002D01*
X172843790Y-121780359D01*
X172843787Y-121780365D01*
X172787830Y-121952587D01*
X172787829Y-121952591D01*
X172759500Y-122131454D01*
X171861489Y-122131454D01*
X171955535Y-122037408D01*
X172334722Y-121658221D01*
X172775920Y-121217023D01*
X172873265Y-121071336D01*
X172940317Y-120909458D01*
X172974500Y-120737608D01*
X172974500Y-120562392D01*
X172974500Y-119814503D01*
X172984090Y-119766287D01*
X173050897Y-119605002D01*
X173089500Y-119410935D01*
X173089500Y-119213065D01*
X173050897Y-119018998D01*
X172975176Y-118836191D01*
X172865246Y-118671669D01*
X172725331Y-118531754D01*
X172560809Y-118421824D01*
X172456604Y-118378661D01*
X172378005Y-118346104D01*
X172378002Y-118346103D01*
X172183938Y-118307500D01*
X172183935Y-118307500D01*
X171986065Y-118307500D01*
X171986061Y-118307500D01*
X171791997Y-118346103D01*
X171791994Y-118346104D01*
X171609190Y-118421824D01*
X171444673Y-118531751D01*
X171444666Y-118531756D01*
X171304756Y-118671666D01*
X171304751Y-118671673D01*
X171194824Y-118836190D01*
X171119104Y-119018994D01*
X171119103Y-119018997D01*
X171080500Y-119213061D01*
X171080500Y-119410938D01*
X171107223Y-119545277D01*
X171119103Y-119605002D01*
X171185909Y-119766287D01*
X171195500Y-119814503D01*
X171195500Y-120229367D01*
X171175498Y-120297488D01*
X171158595Y-120318462D01*
X168346082Y-123130974D01*
X168346077Y-123130981D01*
X168248735Y-123276664D01*
X168181685Y-123438536D01*
X168181683Y-123438541D01*
X168147500Y-123610389D01*
X168147500Y-124587500D01*
X168127498Y-124655621D01*
X168073842Y-124702114D01*
X168021500Y-124713500D01*
X157270389Y-124713500D01*
X157098541Y-124747683D01*
X157098536Y-124747685D01*
X156936664Y-124814735D01*
X156790981Y-124912077D01*
X156790974Y-124912082D01*
X150737462Y-130965595D01*
X150675150Y-130999621D01*
X150648367Y-131002500D01*
X146790633Y-131002500D01*
X146722512Y-130982498D01*
X146701538Y-130965595D01*
X146328405Y-130592462D01*
X146294379Y-130530150D01*
X146291500Y-130503367D01*
X146291500Y-125401633D01*
X146311502Y-125333512D01*
X146328405Y-125312538D01*
X148977309Y-122663634D01*
X151754920Y-119886023D01*
X151852265Y-119740336D01*
X151919317Y-119578458D01*
X151953500Y-119406609D01*
X151953500Y-119231392D01*
X151953500Y-119213061D01*
X168540500Y-119213061D01*
X168540500Y-119410938D01*
X168567223Y-119545277D01*
X168579103Y-119605002D01*
X168654824Y-119787809D01*
X168764754Y-119952331D01*
X168904669Y-120092246D01*
X169069191Y-120202176D01*
X169251998Y-120277897D01*
X169446065Y-120316500D01*
X169643935Y-120316500D01*
X169838002Y-120277897D01*
X170020809Y-120202176D01*
X170185331Y-120092246D01*
X170325246Y-119952331D01*
X170435176Y-119787809D01*
X170510897Y-119605002D01*
X170549500Y-119410935D01*
X170549500Y-119213065D01*
X170510897Y-119018998D01*
X170435176Y-118836191D01*
X170325246Y-118671669D01*
X170185331Y-118531754D01*
X170020809Y-118421824D01*
X169916604Y-118378661D01*
X169838005Y-118346104D01*
X169838002Y-118346103D01*
X169643938Y-118307500D01*
X169643935Y-118307500D01*
X169446065Y-118307500D01*
X169446061Y-118307500D01*
X169251997Y-118346103D01*
X169251994Y-118346104D01*
X169069190Y-118421824D01*
X168904673Y-118531751D01*
X168904666Y-118531756D01*
X168764756Y-118671666D01*
X168764751Y-118671673D01*
X168654824Y-118836190D01*
X168579104Y-119018994D01*
X168579103Y-119018997D01*
X168540500Y-119213061D01*
X151953500Y-119213061D01*
X151953500Y-117107263D01*
X160159500Y-117107263D01*
X160159500Y-117336736D01*
X160189450Y-117564231D01*
X160189452Y-117564238D01*
X160248842Y-117785887D01*
X160336656Y-117997888D01*
X160336657Y-117997889D01*
X160336662Y-117997900D01*
X160451386Y-118196608D01*
X160451391Y-118196615D01*
X160591073Y-118378652D01*
X160591092Y-118378673D01*
X160753326Y-118540907D01*
X160753347Y-118540926D01*
X160935384Y-118680608D01*
X160935391Y-118680613D01*
X161134099Y-118795337D01*
X161134103Y-118795338D01*
X161134112Y-118795344D01*
X161346113Y-118883158D01*
X161567762Y-118942548D01*
X161567766Y-118942548D01*
X161567768Y-118942549D01*
X161626398Y-118950267D01*
X161795266Y-118972500D01*
X161795273Y-118972500D01*
X162024727Y-118972500D01*
X162024734Y-118972500D01*
X162230345Y-118945430D01*
X162252231Y-118942549D01*
X162252231Y-118942548D01*
X162252238Y-118942548D01*
X162473887Y-118883158D01*
X162685888Y-118795344D01*
X162884612Y-118680611D01*
X163066661Y-118540919D01*
X163228919Y-118378661D01*
X163368611Y-118196612D01*
X163483344Y-117997888D01*
X163571158Y-117785887D01*
X163630548Y-117564238D01*
X163660500Y-117336734D01*
X163660500Y-117107266D01*
X163630548Y-116879762D01*
X163575163Y-116673061D01*
X169810500Y-116673061D01*
X169810500Y-116870938D01*
X169812257Y-116879769D01*
X169849103Y-117065002D01*
X169924824Y-117247809D01*
X170034754Y-117412331D01*
X170174669Y-117552246D01*
X170339191Y-117662176D01*
X170521998Y-117737897D01*
X170716065Y-117776500D01*
X170913935Y-117776500D01*
X171108002Y-117737897D01*
X171290809Y-117662176D01*
X171455331Y-117552246D01*
X171595246Y-117412331D01*
X171705176Y-117247809D01*
X171780897Y-117065002D01*
X171819500Y-116870935D01*
X171819500Y-116673065D01*
X171819499Y-116673061D01*
X172350500Y-116673061D01*
X172350500Y-116870938D01*
X172352257Y-116879769D01*
X172389103Y-117065002D01*
X172464824Y-117247809D01*
X172574754Y-117412331D01*
X172714669Y-117552246D01*
X172879191Y-117662176D01*
X173061998Y-117737897D01*
X173256065Y-117776500D01*
X173453935Y-117776500D01*
X173648002Y-117737897D01*
X173830809Y-117662176D01*
X173995331Y-117552246D01*
X173995342Y-117552234D01*
X174000110Y-117548323D01*
X174001831Y-117550420D01*
X174053790Y-117521995D01*
X174124610Y-117527003D01*
X174181480Y-117569504D01*
X174202379Y-117612483D01*
X174248842Y-117785887D01*
X174336656Y-117997888D01*
X174336657Y-117997889D01*
X174336662Y-117997900D01*
X174451386Y-118196608D01*
X174451391Y-118196615D01*
X174591073Y-118378652D01*
X174591092Y-118378673D01*
X174753326Y-118540907D01*
X174753347Y-118540926D01*
X174935384Y-118680608D01*
X174935391Y-118680613D01*
X175134099Y-118795337D01*
X175134103Y-118795338D01*
X175134112Y-118795344D01*
X175346113Y-118883158D01*
X175567762Y-118942548D01*
X175567766Y-118942548D01*
X175567768Y-118942549D01*
X175626398Y-118950267D01*
X175795266Y-118972500D01*
X175795273Y-118972500D01*
X176024727Y-118972500D01*
X176024734Y-118972500D01*
X176230345Y-118945430D01*
X176252231Y-118942549D01*
X176252231Y-118942548D01*
X176252238Y-118942548D01*
X176473887Y-118883158D01*
X176685888Y-118795344D01*
X176884612Y-118680611D01*
X177066661Y-118540919D01*
X177228919Y-118378661D01*
X177368611Y-118196612D01*
X177483344Y-117997888D01*
X177571158Y-117785887D01*
X177630548Y-117564238D01*
X177660500Y-117336734D01*
X177660500Y-117107266D01*
X177630548Y-116879762D01*
X177571158Y-116658113D01*
X177483344Y-116446112D01*
X177483338Y-116446103D01*
X177483337Y-116446099D01*
X177368613Y-116247391D01*
X177368608Y-116247384D01*
X177228926Y-116065347D01*
X177228907Y-116065326D01*
X177066673Y-115903092D01*
X177066652Y-115903073D01*
X176884615Y-115763391D01*
X176884608Y-115763386D01*
X176685900Y-115648662D01*
X176685892Y-115648658D01*
X176685888Y-115648656D01*
X176473887Y-115560842D01*
X176252238Y-115501452D01*
X176252231Y-115501450D01*
X176024736Y-115471500D01*
X176024734Y-115471500D01*
X175795266Y-115471500D01*
X175795263Y-115471500D01*
X175567768Y-115501450D01*
X175346113Y-115560842D01*
X175134110Y-115648657D01*
X175134099Y-115648662D01*
X174935391Y-115763386D01*
X174935384Y-115763391D01*
X174753347Y-115903073D01*
X174753326Y-115903092D01*
X174591092Y-116065326D01*
X174591073Y-116065347D01*
X174451391Y-116247384D01*
X174441995Y-116263658D01*
X174390610Y-116312649D01*
X174320896Y-116326082D01*
X174254986Y-116299692D01*
X174228113Y-116270655D01*
X174194494Y-116220341D01*
X174135246Y-116131669D01*
X173995331Y-115991754D01*
X173830809Y-115881824D01*
X173719065Y-115835538D01*
X173648005Y-115806104D01*
X173648002Y-115806103D01*
X173453938Y-115767500D01*
X173453935Y-115767500D01*
X173256065Y-115767500D01*
X173256061Y-115767500D01*
X173061997Y-115806103D01*
X173061994Y-115806104D01*
X172879190Y-115881824D01*
X172714673Y-115991751D01*
X172714666Y-115991756D01*
X172574756Y-116131666D01*
X172574751Y-116131673D01*
X172464824Y-116296190D01*
X172389104Y-116478994D01*
X172389103Y-116478997D01*
X172350500Y-116673061D01*
X171819499Y-116673061D01*
X171780897Y-116478998D01*
X171705176Y-116296191D01*
X171595246Y-116131669D01*
X171455331Y-115991754D01*
X171290809Y-115881824D01*
X171179065Y-115835538D01*
X171108005Y-115806104D01*
X171108002Y-115806103D01*
X170913938Y-115767500D01*
X170913935Y-115767500D01*
X170716065Y-115767500D01*
X170716061Y-115767500D01*
X170521997Y-115806103D01*
X170521994Y-115806104D01*
X170339190Y-115881824D01*
X170174673Y-115991751D01*
X170174666Y-115991756D01*
X170034756Y-116131666D01*
X170034751Y-116131673D01*
X169924824Y-116296190D01*
X169849104Y-116478994D01*
X169849103Y-116478997D01*
X169810500Y-116673061D01*
X163575163Y-116673061D01*
X163571158Y-116658113D01*
X163483344Y-116446112D01*
X163483338Y-116446103D01*
X163483337Y-116446099D01*
X163368613Y-116247391D01*
X163368608Y-116247384D01*
X163228926Y-116065347D01*
X163228907Y-116065326D01*
X163066673Y-115903092D01*
X163066652Y-115903073D01*
X162884615Y-115763391D01*
X162884608Y-115763386D01*
X162685900Y-115648662D01*
X162685892Y-115648658D01*
X162685888Y-115648656D01*
X162473887Y-115560842D01*
X162252238Y-115501452D01*
X162252231Y-115501450D01*
X162024736Y-115471500D01*
X162024734Y-115471500D01*
X161795266Y-115471500D01*
X161795263Y-115471500D01*
X161567768Y-115501450D01*
X161346113Y-115560842D01*
X161134110Y-115648657D01*
X161134099Y-115648662D01*
X160935391Y-115763386D01*
X160935384Y-115763391D01*
X160753347Y-115903073D01*
X160753326Y-115903092D01*
X160591092Y-116065326D01*
X160591073Y-116065347D01*
X160451391Y-116247384D01*
X160451386Y-116247391D01*
X160336662Y-116446099D01*
X160336657Y-116446110D01*
X160336656Y-116446112D01*
X160287663Y-116564392D01*
X160248842Y-116658113D01*
X160189450Y-116879768D01*
X160159500Y-117107263D01*
X151953500Y-117107263D01*
X151953500Y-116564392D01*
X151953500Y-115416392D01*
X151919317Y-115244542D01*
X151852265Y-115082664D01*
X151754920Y-114936977D01*
X151631023Y-114813080D01*
X150935023Y-114117080D01*
X150789336Y-114019735D01*
X150627458Y-113952683D01*
X150455610Y-113918500D01*
X150455608Y-113918500D01*
X147740633Y-113918500D01*
X147672512Y-113898498D01*
X147651538Y-113881595D01*
X146328405Y-112558462D01*
X146294379Y-112496150D01*
X146291500Y-112469367D01*
X146291500Y-102007393D01*
X146291499Y-102007389D01*
X146268149Y-101890000D01*
X146257317Y-101835542D01*
X146190265Y-101673664D01*
X146092920Y-101527977D01*
X145969023Y-101404080D01*
X145927768Y-101362825D01*
X174397500Y-101362825D01*
X174397500Y-103615174D01*
X174421659Y-103705333D01*
X174468326Y-103786164D01*
X174468334Y-103786174D01*
X174534325Y-103852165D01*
X174534330Y-103852169D01*
X174534332Y-103852171D01*
X174615168Y-103898841D01*
X174705329Y-103923000D01*
X178608671Y-103923000D01*
X178698832Y-103898841D01*
X178779668Y-103852171D01*
X178845671Y-103786168D01*
X178892341Y-103705332D01*
X178916500Y-103615171D01*
X178916500Y-101362829D01*
X178892341Y-101272668D01*
X178869095Y-101232404D01*
X178845673Y-101191835D01*
X178845665Y-101191825D01*
X178779674Y-101125834D01*
X178779664Y-101125826D01*
X178698833Y-101079159D01*
X178608674Y-101055000D01*
X178608671Y-101055000D01*
X176703671Y-101055000D01*
X174798671Y-101055000D01*
X174705329Y-101055000D01*
X174705325Y-101055000D01*
X174615166Y-101079159D01*
X174534335Y-101125826D01*
X174534325Y-101125834D01*
X174468334Y-101191825D01*
X174468326Y-101191835D01*
X174421659Y-101272666D01*
X174397500Y-101362825D01*
X145927768Y-101362825D01*
X143696023Y-99131080D01*
X143550336Y-99033735D01*
X143388458Y-98966683D01*
X143216610Y-98932500D01*
X143216608Y-98932500D01*
X127410499Y-98932500D01*
X127342378Y-98912498D01*
X127295885Y-98858842D01*
X127284499Y-98806500D01*
X127284499Y-98723753D01*
X127284499Y-98723746D01*
X127278040Y-98663658D01*
X127227342Y-98527733D01*
X127140404Y-98411596D01*
X127024267Y-98324658D01*
X127024265Y-98324657D01*
X127024266Y-98324657D01*
X126888349Y-98273962D01*
X126888344Y-98273960D01*
X126888342Y-98273960D01*
X126858298Y-98270730D01*
X126828256Y-98267500D01*
X124631753Y-98267500D01*
X124631729Y-98267502D01*
X124571660Y-98273959D01*
X124571658Y-98273959D01*
X124435733Y-98324657D01*
X124319596Y-98411596D01*
X124232657Y-98527734D01*
X124181962Y-98663650D01*
X124181960Y-98663658D01*
X124175500Y-98723737D01*
X120558500Y-98723737D01*
X120558500Y-86999658D01*
X124175500Y-86999658D01*
X124175500Y-87244342D01*
X124213777Y-87486013D01*
X124213778Y-87486018D01*
X124289386Y-87718716D01*
X124289388Y-87718721D01*
X124289389Y-87718722D01*
X124400474Y-87936739D01*
X124544295Y-88134691D01*
X124717308Y-88307704D01*
X124717311Y-88307706D01*
X124915264Y-88451528D01*
X125133279Y-88562612D01*
X125365981Y-88638221D01*
X125365982Y-88638221D01*
X125365987Y-88638223D01*
X125607658Y-88676500D01*
X125607661Y-88676500D01*
X125852339Y-88676500D01*
X125852342Y-88676500D01*
X126094013Y-88638223D01*
X126326721Y-88562612D01*
X126544736Y-88451528D01*
X126742689Y-88307706D01*
X126915706Y-88134689D01*
X127059528Y-87936736D01*
X127170612Y-87718721D01*
X127246223Y-87486013D01*
X127284500Y-87244342D01*
X127284500Y-87063737D01*
X169435500Y-87063737D01*
X169435500Y-92260246D01*
X169435502Y-92260270D01*
X169441959Y-92320339D01*
X169441959Y-92320341D01*
X169492657Y-92456266D01*
X169492658Y-92456267D01*
X169579596Y-92572404D01*
X169695733Y-92659342D01*
X169831658Y-92710040D01*
X169891745Y-92716500D01*
X178088254Y-92716499D01*
X178148342Y-92710040D01*
X178284267Y-92659342D01*
X178400404Y-92572404D01*
X178487342Y-92456267D01*
X178538040Y-92320342D01*
X178544500Y-92260255D01*
X178544499Y-87063746D01*
X178538040Y-87003658D01*
X178487342Y-86867733D01*
X178400404Y-86751596D01*
X178284267Y-86664658D01*
X178284265Y-86664657D01*
X178284266Y-86664657D01*
X178148349Y-86613962D01*
X178148344Y-86613960D01*
X178148342Y-86613960D01*
X178118298Y-86610730D01*
X178088256Y-86607500D01*
X169891753Y-86607500D01*
X169891729Y-86607502D01*
X169831660Y-86613959D01*
X169831658Y-86613959D01*
X169695733Y-86664657D01*
X169579596Y-86751596D01*
X169492657Y-86867734D01*
X169441962Y-87003650D01*
X169441960Y-87003658D01*
X169435500Y-87063737D01*
X127284500Y-87063737D01*
X127284500Y-86999658D01*
X127246223Y-86757987D01*
X127170612Y-86525279D01*
X127059528Y-86307264D01*
X126915706Y-86109311D01*
X126915704Y-86109308D01*
X126742691Y-85936295D01*
X126544739Y-85792474D01*
X126544738Y-85792473D01*
X126544736Y-85792472D01*
X126326721Y-85681388D01*
X126326718Y-85681387D01*
X126326716Y-85681386D01*
X126094016Y-85605778D01*
X126094020Y-85605778D01*
X126049026Y-85598651D01*
X125852342Y-85567500D01*
X125607658Y-85567500D01*
X125365987Y-85605777D01*
X125365981Y-85605778D01*
X125133283Y-85681386D01*
X125133277Y-85681389D01*
X124915260Y-85792474D01*
X124717308Y-85936295D01*
X124544295Y-86109308D01*
X124400474Y-86307260D01*
X124289389Y-86525277D01*
X124289386Y-86525283D01*
X124213778Y-86757981D01*
X124213777Y-86757986D01*
X124213777Y-86757987D01*
X124175500Y-86999658D01*
X120558500Y-86999658D01*
X120558500Y-80943737D01*
X124175500Y-80943737D01*
X124175500Y-83140246D01*
X124175502Y-83140270D01*
X124181959Y-83200339D01*
X124181959Y-83200341D01*
X124232657Y-83336266D01*
X124232658Y-83336267D01*
X124319596Y-83452404D01*
X124435733Y-83539342D01*
X124571658Y-83590040D01*
X124631745Y-83596500D01*
X126828254Y-83596499D01*
X126888342Y-83590040D01*
X127024267Y-83539342D01*
X127140404Y-83452404D01*
X127227342Y-83336267D01*
X127278040Y-83200342D01*
X127284500Y-83140255D01*
X127284499Y-80943746D01*
X127278040Y-80883658D01*
X127227342Y-80747733D01*
X127140404Y-80631596D01*
X127024267Y-80544658D01*
X127024265Y-80544657D01*
X127024266Y-80544657D01*
X126888349Y-80493962D01*
X126888344Y-80493960D01*
X126888342Y-80493960D01*
X126858298Y-80490730D01*
X126828256Y-80487500D01*
X124631753Y-80487500D01*
X124631729Y-80487502D01*
X124571660Y-80493959D01*
X124571658Y-80493959D01*
X124435733Y-80544657D01*
X124319596Y-80631596D01*
X124232657Y-80747734D01*
X124181962Y-80883650D01*
X124181960Y-80883658D01*
X124175500Y-80943737D01*
X120558500Y-80943737D01*
X120558500Y-71759701D01*
X124176000Y-71759701D01*
X124176000Y-72004298D01*
X124214266Y-72245901D01*
X124289850Y-72478524D01*
X124289853Y-72478530D01*
X124400902Y-72696476D01*
X124541878Y-72890513D01*
X124541880Y-72890513D01*
X125189436Y-72242957D01*
X125225112Y-72296351D01*
X125315649Y-72386888D01*
X125369041Y-72422563D01*
X124721485Y-73070118D01*
X124721485Y-73070120D01*
X124915523Y-73211097D01*
X125133469Y-73322146D01*
X125133475Y-73322149D01*
X125366098Y-73397733D01*
X125607701Y-73436000D01*
X125852299Y-73436000D01*
X126093901Y-73397733D01*
X126326524Y-73322149D01*
X126326530Y-73322146D01*
X126544476Y-73211097D01*
X126738513Y-73070120D01*
X126738513Y-73070118D01*
X126090958Y-72422563D01*
X126144351Y-72386888D01*
X126234888Y-72296351D01*
X126270563Y-72242958D01*
X126918118Y-72890513D01*
X126918120Y-72890513D01*
X127059097Y-72696476D01*
X127170146Y-72478530D01*
X127170149Y-72478524D01*
X127245733Y-72245901D01*
X127284000Y-72004298D01*
X127284000Y-71759701D01*
X127245733Y-71518098D01*
X127170149Y-71285475D01*
X127170146Y-71285469D01*
X127059097Y-71067523D01*
X126918120Y-70873485D01*
X126918118Y-70873485D01*
X126270562Y-71521040D01*
X126234888Y-71467649D01*
X126144351Y-71377112D01*
X126090957Y-71341436D01*
X126738513Y-70693880D01*
X126738513Y-70693878D01*
X126544476Y-70552902D01*
X126326530Y-70441853D01*
X126326524Y-70441850D01*
X126093901Y-70366266D01*
X125852299Y-70328000D01*
X125607701Y-70328000D01*
X125366098Y-70366266D01*
X125133475Y-70441850D01*
X125133469Y-70441853D01*
X124915523Y-70552902D01*
X124721485Y-70693878D01*
X124721485Y-70693880D01*
X125369041Y-71341436D01*
X125315649Y-71377112D01*
X125225112Y-71467649D01*
X125189436Y-71521041D01*
X124541880Y-70873485D01*
X124541878Y-70873485D01*
X124400902Y-71067523D01*
X124289853Y-71285469D01*
X124289850Y-71285475D01*
X124214266Y-71518098D01*
X124176000Y-71759701D01*
X120558500Y-71759701D01*
X120558500Y-65703737D01*
X124175500Y-65703737D01*
X124175500Y-67900246D01*
X124175502Y-67900270D01*
X124181959Y-67960339D01*
X124181959Y-67960341D01*
X124232657Y-68096266D01*
X124232658Y-68096267D01*
X124319596Y-68212404D01*
X124435733Y-68299342D01*
X124571658Y-68350040D01*
X124631745Y-68356500D01*
X126828254Y-68356499D01*
X126888342Y-68350040D01*
X127024267Y-68299342D01*
X127140404Y-68212404D01*
X127227342Y-68096267D01*
X127278040Y-67960342D01*
X127284500Y-67900255D01*
X127284500Y-67817500D01*
X127304502Y-67749379D01*
X127358158Y-67702886D01*
X127410500Y-67691500D01*
X141311367Y-67691500D01*
X141379488Y-67711502D01*
X141400462Y-67728405D01*
X144475595Y-70803538D01*
X144509621Y-70865850D01*
X144512500Y-70892633D01*
X144512500Y-77522392D01*
X144512500Y-80925392D01*
X144512500Y-81100608D01*
X144546683Y-81272458D01*
X144613735Y-81434336D01*
X144711080Y-81580023D01*
X144711081Y-81580024D01*
X144711082Y-81580025D01*
X147325669Y-84194611D01*
X147325679Y-84194622D01*
X147330079Y-84199022D01*
X147330080Y-84199023D01*
X147453977Y-84322920D01*
X147599664Y-84420265D01*
X147761542Y-84487317D01*
X147933391Y-84521500D01*
X147933392Y-84521500D01*
X151151607Y-84521500D01*
X151151608Y-84521500D01*
X151323458Y-84487317D01*
X151485336Y-84420265D01*
X151631023Y-84322920D01*
X151754920Y-84199023D01*
X151852265Y-84053336D01*
X151919317Y-83891458D01*
X151953500Y-83719608D01*
X151953500Y-83544392D01*
X151919317Y-83372542D01*
X151852265Y-83210664D01*
X151754920Y-83064977D01*
X151631023Y-82941080D01*
X151485336Y-82843735D01*
X151323458Y-82776683D01*
X151151610Y-82742500D01*
X151151608Y-82742500D01*
X148441632Y-82742500D01*
X148373511Y-82722498D01*
X148352537Y-82705595D01*
X146328405Y-80681462D01*
X146294379Y-80619150D01*
X146291500Y-80592367D01*
X146291500Y-74363737D01*
X169435500Y-74363737D01*
X169435500Y-79560246D01*
X169435502Y-79560270D01*
X169441959Y-79620339D01*
X169441959Y-79620341D01*
X169492657Y-79756266D01*
X169492658Y-79756267D01*
X169579596Y-79872404D01*
X169695733Y-79959342D01*
X169831658Y-80010040D01*
X169891745Y-80016500D01*
X178088254Y-80016499D01*
X178148342Y-80010040D01*
X178284267Y-79959342D01*
X178400404Y-79872404D01*
X178487342Y-79756267D01*
X178538040Y-79620342D01*
X178544500Y-79560255D01*
X178544499Y-74363746D01*
X178538040Y-74303658D01*
X178487342Y-74167733D01*
X178400404Y-74051596D01*
X178284267Y-73964658D01*
X178284265Y-73964657D01*
X178284266Y-73964657D01*
X178148349Y-73913962D01*
X178148344Y-73913960D01*
X178148342Y-73913960D01*
X178118298Y-73910730D01*
X178088256Y-73907500D01*
X169891753Y-73907500D01*
X169891729Y-73907502D01*
X169831660Y-73913959D01*
X169831658Y-73913959D01*
X169695733Y-73964657D01*
X169579596Y-74051596D01*
X169492657Y-74167734D01*
X169441962Y-74303650D01*
X169441960Y-74303658D01*
X169435500Y-74363737D01*
X146291500Y-74363737D01*
X146291500Y-70384393D01*
X146291499Y-70384389D01*
X146257317Y-70212542D01*
X146190265Y-70050664D01*
X146092920Y-69904977D01*
X145969023Y-69781080D01*
X142299023Y-66111080D01*
X142153336Y-66013735D01*
X141991458Y-65946683D01*
X141819610Y-65912500D01*
X141819608Y-65912500D01*
X127410499Y-65912500D01*
X127342378Y-65892498D01*
X127295885Y-65838842D01*
X127284499Y-65786500D01*
X127284499Y-65703753D01*
X127284499Y-65703746D01*
X127278040Y-65643658D01*
X127227342Y-65507733D01*
X127140404Y-65391596D01*
X127024267Y-65304658D01*
X127024265Y-65304657D01*
X127024266Y-65304657D01*
X126888349Y-65253962D01*
X126888344Y-65253960D01*
X126888342Y-65253960D01*
X126858298Y-65250730D01*
X126828256Y-65247500D01*
X124631753Y-65247500D01*
X124631729Y-65247502D01*
X124571660Y-65253959D01*
X124571658Y-65253959D01*
X124435733Y-65304657D01*
X124319596Y-65391596D01*
X124232657Y-65507734D01*
X124181962Y-65643650D01*
X124181960Y-65643658D01*
X124175500Y-65703737D01*
X120558500Y-65703737D01*
X120558500Y-61663737D01*
X169435500Y-61663737D01*
X169435500Y-66860246D01*
X169435502Y-66860270D01*
X169441959Y-66920339D01*
X169441959Y-66920341D01*
X169492657Y-67056266D01*
X169492658Y-67056267D01*
X169579596Y-67172404D01*
X169695733Y-67259342D01*
X169831658Y-67310040D01*
X169891745Y-67316500D01*
X178088254Y-67316499D01*
X178148342Y-67310040D01*
X178284267Y-67259342D01*
X178400404Y-67172404D01*
X178487342Y-67056267D01*
X178538040Y-66920342D01*
X178544500Y-66860255D01*
X178544499Y-61663746D01*
X178538040Y-61603658D01*
X178487342Y-61467733D01*
X178400404Y-61351596D01*
X178284267Y-61264658D01*
X178284265Y-61264657D01*
X178284266Y-61264657D01*
X178148349Y-61213962D01*
X178148344Y-61213960D01*
X178148342Y-61213960D01*
X178118298Y-61210730D01*
X178088256Y-61207500D01*
X169891753Y-61207500D01*
X169891729Y-61207502D01*
X169831660Y-61213959D01*
X169831658Y-61213959D01*
X169695733Y-61264657D01*
X169579596Y-61351596D01*
X169492657Y-61467734D01*
X169441962Y-61603650D01*
X169441960Y-61603658D01*
X169435500Y-61663737D01*
X120558500Y-61663737D01*
X120558500Y-60636500D01*
X120578502Y-60568379D01*
X120632158Y-60521886D01*
X120684500Y-60510500D01*
X179415500Y-60510500D01*
X179483621Y-60530502D01*
G37*
G04 #@! TD.AperFunction*
G04 #@! TD*
M02*
