M48
; DRILL file {KiCad 9.0.3} date 2025-08-10T21:25:13+0200
; FORMAT={-:-/ absolute / metric / decimal}
; #@! TF.CreationDate,2025-08-10T21:25:13+02:00
; #@! TF.GenerationSoftware,Kicad,Pcbnew,9.0.3
; #@! TF.FileFunction,Plated,1,2,PTH
FMAT,2
METRIC
; #@! TA.AperFunction,Plated,PTH,ViaDrill
T1C0.250
; #@! TA.AperFunction,Plated,PTH,ComponentDrill
T2C0.900
; #@! TA.AperFunction,Plated,PTH,ComponentDrill
T3C1.300
; #@! TA.AperFunction,Plated,PTH,ComponentDrill
T4C3.200
%
G90
G05
T1
X145.402Y-77.61
X145.402Y-110.63
X145.402Y-125.997
X148.082Y-111.633
X148.082Y-113.157
X148.082Y-126.873
X148.082Y-128.397
X148.209Y-78.613
X148.209Y-80.137
X149.098Y-87.122
X149.098Y-135.382
X149.606Y-78.613
X149.606Y-80.137
X149.606Y-111.633
X149.606Y-113.157
X149.606Y-126.873
X149.606Y-128.397
X150.241Y-87.122
X150.241Y-135.382
X151.064Y-83.632
X151.064Y-116.652
X151.069Y-131.892
X151.384Y-85.598
X151.384Y-133.858
T2
X169.545Y-119.312
X169.545Y-133.672
X170.815Y-116.772
X170.815Y-131.132
X172.085Y-119.312
X172.085Y-133.672
X173.355Y-116.772
X173.355Y-131.132
T3
X125.73Y-66.802
X125.73Y-71.882
X125.73Y-82.042
X125.73Y-87.122
X125.73Y-99.822
X125.73Y-104.902
X125.73Y-115.062
X125.73Y-120.142
X125.73Y-130.302
X125.73Y-135.382
T4
X173.99Y-64.262
X173.99Y-76.962
X173.99Y-89.662
M30
