G04 #@! TF.GenerationSoftware,KiCad,Pcbnew,9.0.3*
G04 #@! TF.CreationDate,2025-08-10T21:25:08+02:00*
G04 #@! TF.ProjectId,NJFET_MATCHING,4e4a4645-545f-44d4-9154-4348494e472e,rev?*
G04 #@! TF.SameCoordinates,Original*
G04 #@! TF.FileFunction,Paste,Top*
G04 #@! TF.FilePolarity,Positive*
%FSLAX46Y46*%
G04 Gerber Fmt 4.6, Leading zero omitted, Abs format (unit mm)*
G04 Created by KiCad (PCBNEW 9.0.3) date 2025-08-10 21:25:08*
%MOMM*%
%LPD*%
G01*
G04 APERTURE LIST*
G04 Aperture macros list*
%AMRoundRect*
0 Rectangle with rounded corners*
0 $1 Rounding radius*
0 $2 $3 $4 $5 $6 $7 $8 $9 X,Y pos of 4 corners*
0 Add a 4 corners polygon primitive as box body*
4,1,4,$2,$3,$4,$5,$6,$7,$8,$9,$2,$3,0*
0 Add four circle primitives for the rounded corners*
1,1,$1+$1,$2,$3*
1,1,$1+$1,$4,$5*
1,1,$1+$1,$6,$7*
1,1,$1+$1,$8,$9*
0 Add four rect primitives between the rounded corners*
20,1,$1+$1,$2,$3,$4,$5,0*
20,1,$1+$1,$4,$5,$6,$7,0*
20,1,$1+$1,$6,$7,$8,$9,0*
20,1,$1+$1,$8,$9,$2,$3,0*%
G04 Aperture macros list end*
%ADD10RoundRect,0.200000X-0.200000X-0.275000X0.200000X-0.275000X0.200000X0.275000X-0.200000X0.275000X0*%
%ADD11RoundRect,0.218750X0.256250X-0.218750X0.256250X0.218750X-0.256250X0.218750X-0.256250X-0.218750X0*%
%ADD12RoundRect,0.150000X0.150000X-0.825000X0.150000X0.825000X-0.150000X0.825000X-0.150000X-0.825000X0*%
%ADD13RoundRect,0.225000X-0.225000X-0.250000X0.225000X-0.250000X0.225000X0.250000X-0.225000X0.250000X0*%
%ADD14RoundRect,0.200000X-0.275000X0.200000X-0.275000X-0.200000X0.275000X-0.200000X0.275000X0.200000X0*%
%ADD15RoundRect,0.150000X-0.587500X-0.150000X0.587500X-0.150000X0.587500X0.150000X-0.587500X0.150000X0*%
G04 APERTURE END LIST*
D10*
G04 #@! TO.C,R7*
X145479000Y-137414000D03*
X147129000Y-137414000D03*
G04 #@! TD*
D11*
G04 #@! TO.C,D1*
X139065000Y-71462500D03*
X139065000Y-69887500D03*
G04 #@! TD*
D10*
G04 #@! TO.C,R3*
X145479000Y-89154000D03*
X147129000Y-89154000D03*
G04 #@! TD*
D12*
G04 #@! TO.C,U2*
X144145000Y-120077000D03*
X145415000Y-120077000D03*
X146685000Y-120077000D03*
X147955000Y-120077000D03*
X147955000Y-115127000D03*
X146685000Y-115127000D03*
X145415000Y-115127000D03*
X144145000Y-115127000D03*
G04 #@! TD*
D10*
G04 #@! TO.C,R8*
X148527000Y-137414000D03*
X150177000Y-137414000D03*
G04 #@! TD*
D13*
G04 #@! TO.C,C2*
X145402000Y-111633000D03*
X146952000Y-111633000D03*
G04 #@! TD*
D10*
G04 #@! TO.C,R6*
X148527000Y-122174000D03*
X150177000Y-122174000D03*
G04 #@! TD*
D14*
G04 #@! TO.C,R2*
X139192000Y-99740250D03*
X139192000Y-101390250D03*
G04 #@! TD*
D15*
G04 #@! TO.C,RN1*
X149938500Y-83632000D03*
X149938500Y-85532000D03*
X151813500Y-84582000D03*
G04 #@! TD*
G04 #@! TO.C,RN2*
X149938500Y-116652000D03*
X149938500Y-118552000D03*
X151813500Y-117602000D03*
G04 #@! TD*
D12*
G04 #@! TO.C,U3*
X144145000Y-135317000D03*
X145415000Y-135317000D03*
X146685000Y-135317000D03*
X147955000Y-135317000D03*
X147955000Y-130367000D03*
X146685000Y-130367000D03*
X145415000Y-130367000D03*
X144145000Y-130367000D03*
G04 #@! TD*
D13*
G04 #@! TO.C,C3*
X145402000Y-80137000D03*
X146952000Y-80137000D03*
G04 #@! TD*
G04 #@! TO.C,C1*
X145402000Y-78613000D03*
X146952000Y-78613000D03*
G04 #@! TD*
G04 #@! TO.C,C5*
X145402000Y-126873000D03*
X146952000Y-126873000D03*
G04 #@! TD*
D15*
G04 #@! TO.C,RN3*
X149938500Y-131892000D03*
X149938500Y-133792000D03*
X151813500Y-132842000D03*
G04 #@! TD*
D12*
G04 #@! TO.C,U1*
X144145000Y-87057000D03*
X145415000Y-87057000D03*
X146685000Y-87057000D03*
X147955000Y-87057000D03*
X147955000Y-82107000D03*
X146685000Y-82107000D03*
X145415000Y-82107000D03*
X144145000Y-82107000D03*
G04 #@! TD*
D14*
G04 #@! TO.C,R1*
X139065000Y-66802000D03*
X139065000Y-68452000D03*
G04 #@! TD*
D13*
G04 #@! TO.C,C6*
X145402000Y-128397000D03*
X146952000Y-128397000D03*
G04 #@! TD*
D10*
G04 #@! TO.C,R4*
X148527000Y-89154000D03*
X150177000Y-89154000D03*
G04 #@! TD*
G04 #@! TO.C,R5*
X145479000Y-122174000D03*
X147129000Y-122174000D03*
G04 #@! TD*
D13*
G04 #@! TO.C,C4*
X145402000Y-113127000D03*
X146952000Y-113127000D03*
G04 #@! TD*
D11*
G04 #@! TO.C,D2*
X139192000Y-104400750D03*
X139192000Y-102825750D03*
G04 #@! TD*
M02*
