G04 #@! TF.GenerationSoftware,KiCad,Pcbnew,9.0.3*
G04 #@! TF.CreationDate,2025-08-10T21:25:08+02:00*
G04 #@! TF.ProjectId,NJFET_MATCHING,4e4a4645-545f-44d4-9154-4348494e472e,rev?*
G04 #@! TF.SameCoordinates,Original*
G04 #@! TF.FileFunction,Copper,L1,Top*
G04 #@! TF.FilePolarity,Positive*
%FSLAX46Y46*%
G04 Gerber Fmt 4.6, Leading zero omitted, Abs format (unit mm)*
G04 Created by KiCad (PCBNEW 9.0.3) date 2025-08-10 21:25:08*
%MOMM*%
%LPD*%
G01*
G04 APERTURE LIST*
G04 Aperture macros list*
%AMRoundRect*
0 Rectangle with rounded corners*
0 $1 Rounding radius*
0 $2 $3 $4 $5 $6 $7 $8 $9 X,Y pos of 4 corners*
0 Add a 4 corners polygon primitive as box body*
4,1,4,$2,$3,$4,$5,$6,$7,$8,$9,$2,$3,0*
0 Add four circle primitives for the rounded corners*
1,1,$1+$1,$2,$3*
1,1,$1+$1,$4,$5*
1,1,$1+$1,$6,$7*
1,1,$1+$1,$8,$9*
0 Add four rect primitives between the rounded corners*
20,1,$1+$1,$2,$3,$4,$5,0*
20,1,$1+$1,$4,$5,$6,$7,0*
20,1,$1+$1,$6,$7,$8,$9,0*
20,1,$1+$1,$8,$9,$2,$3,0*%
G04 Aperture macros list end*
G04 #@! TA.AperFunction,NonConductor*
%ADD10C,0.200000*%
G04 #@! TD*
%ADD11C,0.200000*%
G04 #@! TA.AperFunction,ComponentPad*
%ADD12C,1.500000*%
G04 #@! TD*
G04 #@! TA.AperFunction,SMDPad,CuDef*
%ADD13RoundRect,0.200000X-0.200000X-0.275000X0.200000X-0.275000X0.200000X0.275000X-0.200000X0.275000X0*%
G04 #@! TD*
G04 #@! TA.AperFunction,SMDPad,CuDef*
%ADD14RoundRect,0.218750X0.256250X-0.218750X0.256250X0.218750X-0.256250X0.218750X-0.256250X-0.218750X0*%
G04 #@! TD*
G04 #@! TA.AperFunction,SMDPad,CuDef*
%ADD15RoundRect,0.150000X0.150000X-0.825000X0.150000X0.825000X-0.150000X0.825000X-0.150000X-0.825000X0*%
G04 #@! TD*
G04 #@! TA.AperFunction,ComponentPad*
%ADD16RoundRect,0.250000X-1.050000X1.050000X-1.050000X-1.050000X1.050000X-1.050000X1.050000X1.050000X0*%
G04 #@! TD*
G04 #@! TA.AperFunction,ComponentPad*
%ADD17C,2.600000*%
G04 #@! TD*
G04 #@! TA.AperFunction,SMDPad,CuDef*
%ADD18RoundRect,0.225000X-0.225000X-0.250000X0.225000X-0.250000X0.225000X0.250000X-0.225000X0.250000X0*%
G04 #@! TD*
G04 #@! TA.AperFunction,SMDPad,CuDef*
%ADD19RoundRect,0.200000X-0.275000X0.200000X-0.275000X-0.200000X0.275000X-0.200000X0.275000X0.200000X0*%
G04 #@! TD*
G04 #@! TA.AperFunction,SMDPad,CuDef*
%ADD20RoundRect,0.150000X-0.587500X-0.150000X0.587500X-0.150000X0.587500X0.150000X-0.587500X0.150000X0*%
G04 #@! TD*
G04 #@! TA.AperFunction,ComponentPad*
%ADD21RoundRect,0.250000X-4.050000X-2.550000X4.050000X-2.550000X4.050000X2.550000X-4.050000X2.550000X0*%
G04 #@! TD*
G04 #@! TA.AperFunction,ViaPad*
%ADD22C,0.650000*%
G04 #@! TD*
G04 #@! TA.AperFunction,Conductor*
%ADD23C,0.254000*%
G04 #@! TD*
G04 #@! TA.AperFunction,Conductor*
%ADD24C,1.270000*%
G04 #@! TD*
G04 #@! TA.AperFunction,Conductor*
%ADD25C,0.635000*%
G04 #@! TD*
G04 #@! TA.AperFunction,Conductor*
%ADD26C,0.508000*%
G04 #@! TD*
G04 APERTURE END LIST*
D10*
X174752000Y-101409500D02*
X176657000Y-101409500D01*
X176657000Y-103568500D01*
X174752000Y-103568500D01*
X174752000Y-101409500D01*
X176657000Y-101409500D02*
X178562000Y-101409500D01*
X178562000Y-103568500D01*
X176657000Y-103568500D01*
X176657000Y-101409500D01*
D11*
D10*
X176026482Y-102927719D02*
X175455054Y-102927719D01*
X175740768Y-102927719D02*
X175740768Y-101927719D01*
X175740768Y-101927719D02*
X175645530Y-102070576D01*
X175645530Y-102070576D02*
X175550292Y-102165814D01*
X175550292Y-102165814D02*
X175455054Y-102213433D01*
D12*
G04 #@! TO.P,U4,1*
G04 #@! TO.N,/SOURCE_1*
X173355000Y-116772000D03*
G04 #@! TO.P,U4,2*
G04 #@! TO.N,VCC*
X172085000Y-119312000D03*
G04 #@! TO.P,U4,3*
G04 #@! TO.N,unconnected-(U4-Pad3)*
X170815000Y-116772000D03*
G04 #@! TO.P,U4,4*
G04 #@! TO.N,/GATE_1*
X169545000Y-119312000D03*
G04 #@! TO.P,U4,5*
G04 #@! TO.N,/SOURCE_2*
X169545000Y-133672000D03*
G04 #@! TO.P,U4,6*
G04 #@! TO.N,VCC*
X170815000Y-131132000D03*
G04 #@! TO.P,U4,7*
G04 #@! TO.N,unconnected-(U4-Pad7)*
X172085000Y-133672000D03*
G04 #@! TO.P,U4,8*
G04 #@! TO.N,/GATE_2*
X173355000Y-131132000D03*
G04 #@! TD*
D13*
G04 #@! TO.P,R7,1*
G04 #@! TO.N,/SOURCE_2*
X145479000Y-137414000D03*
G04 #@! TO.P,R7,2*
G04 #@! TO.N,Net-(R7-Pad2)*
X147129000Y-137414000D03*
G04 #@! TD*
D14*
G04 #@! TO.P,D1,1,K*
G04 #@! TO.N,GND*
X139065000Y-71462500D03*
G04 #@! TO.P,D1,2,A*
G04 #@! TO.N,Net-(D1-A)*
X139065000Y-69887500D03*
G04 #@! TD*
D13*
G04 #@! TO.P,R3,1*
G04 #@! TO.N,Net-(J3-Pin_2)*
X145479000Y-89154000D03*
G04 #@! TO.P,R3,2*
G04 #@! TO.N,Net-(R3-Pad2)*
X147129000Y-89154000D03*
G04 #@! TD*
D15*
G04 #@! TO.P,U2,1,VOS*
G04 #@! TO.N,unconnected-(U2-VOS-Pad1)*
X144145000Y-120077000D03*
G04 #@! TO.P,U2,2,-*
G04 #@! TO.N,/SOURCE_1*
X145415000Y-120077000D03*
G04 #@! TO.P,U2,3,+*
G04 #@! TO.N,Net-(U2-+)*
X146685000Y-120077000D03*
G04 #@! TO.P,U2,4,V-*
G04 #@! TO.N,GND*
X147955000Y-120077000D03*
G04 #@! TO.P,U2,5,NC*
G04 #@! TO.N,unconnected-(U2-NC-Pad5)*
X147955000Y-115127000D03*
G04 #@! TO.P,U2,6*
G04 #@! TO.N,/GATE_1*
X146685000Y-115127000D03*
G04 #@! TO.P,U2,7,V+*
G04 #@! TO.N,VCC*
X145415000Y-115127000D03*
G04 #@! TO.P,U2,8,VOS*
G04 #@! TO.N,unconnected-(U2-VOS-Pad8)*
X144145000Y-115127000D03*
G04 #@! TD*
D16*
G04 #@! TO.P,J5,1,Pin_1*
G04 #@! TO.N,/GATE_2*
X125730000Y-130302000D03*
D17*
G04 #@! TO.P,J5,2,Pin_2*
G04 #@! TO.N,/SOURCE_2*
X125730000Y-135382000D03*
G04 #@! TD*
D16*
G04 #@! TO.P,J2,1,Pin_1*
G04 #@! TO.N,VCC*
X125730000Y-99822000D03*
D17*
G04 #@! TO.P,J2,2,Pin_2*
G04 #@! TO.N,GND*
X125730000Y-104902000D03*
G04 #@! TD*
D13*
G04 #@! TO.P,R8,1*
G04 #@! TO.N,Net-(R7-Pad2)*
X148527000Y-137414000D03*
G04 #@! TO.P,R8,2*
G04 #@! TO.N,GND*
X150177000Y-137414000D03*
G04 #@! TD*
D18*
G04 #@! TO.P,C2,1*
G04 #@! TO.N,VCC*
X145402000Y-111633000D03*
G04 #@! TO.P,C2,2*
G04 #@! TO.N,GND*
X146952000Y-111633000D03*
G04 #@! TD*
D13*
G04 #@! TO.P,R6,1*
G04 #@! TO.N,Net-(R5-Pad2)*
X148527000Y-122174000D03*
G04 #@! TO.P,R6,2*
G04 #@! TO.N,GND*
X150177000Y-122174000D03*
G04 #@! TD*
D19*
G04 #@! TO.P,R2,1*
G04 #@! TO.N,VCC*
X139192000Y-99740250D03*
G04 #@! TO.P,R2,2*
G04 #@! TO.N,Net-(D2-A)*
X139192000Y-101390250D03*
G04 #@! TD*
D20*
G04 #@! TO.P,RN1,1*
G04 #@! TO.N,VDD*
X149938500Y-83632000D03*
G04 #@! TO.P,RN1,2*
G04 #@! TO.N,GND*
X149938500Y-85532000D03*
G04 #@! TO.P,RN1,3*
G04 #@! TO.N,Net-(U1-+)*
X151813500Y-84582000D03*
G04 #@! TD*
G04 #@! TO.P,RN2,1*
G04 #@! TO.N,VCC*
X149938500Y-116652000D03*
G04 #@! TO.P,RN2,2*
G04 #@! TO.N,GND*
X149938500Y-118552000D03*
G04 #@! TO.P,RN2,3*
G04 #@! TO.N,Net-(U2-+)*
X151813500Y-117602000D03*
G04 #@! TD*
D15*
G04 #@! TO.P,U3,1,VOS*
G04 #@! TO.N,unconnected-(U3-VOS-Pad1)*
X144145000Y-135317000D03*
G04 #@! TO.P,U3,2,-*
G04 #@! TO.N,/SOURCE_2*
X145415000Y-135317000D03*
G04 #@! TO.P,U3,3,+*
G04 #@! TO.N,Net-(U3-+)*
X146685000Y-135317000D03*
G04 #@! TO.P,U3,4,V-*
G04 #@! TO.N,GND*
X147955000Y-135317000D03*
G04 #@! TO.P,U3,5,NC*
G04 #@! TO.N,unconnected-(U3-NC-Pad5)*
X147955000Y-130367000D03*
G04 #@! TO.P,U3,6*
G04 #@! TO.N,/GATE_2*
X146685000Y-130367000D03*
G04 #@! TO.P,U3,7,V+*
G04 #@! TO.N,VCC*
X145415000Y-130367000D03*
G04 #@! TO.P,U3,8,VOS*
G04 #@! TO.N,unconnected-(U3-VOS-Pad8)*
X144145000Y-130367000D03*
G04 #@! TD*
D18*
G04 #@! TO.P,C3,1*
G04 #@! TO.N,VDD*
X145402000Y-80137000D03*
G04 #@! TO.P,C3,2*
G04 #@! TO.N,GND*
X146952000Y-80137000D03*
G04 #@! TD*
G04 #@! TO.P,C1,1*
G04 #@! TO.N,VDD*
X145402000Y-78613000D03*
G04 #@! TO.P,C1,2*
G04 #@! TO.N,GND*
X146952000Y-78613000D03*
G04 #@! TD*
G04 #@! TO.P,C5,1*
G04 #@! TO.N,VCC*
X145402000Y-126873000D03*
G04 #@! TO.P,C5,2*
G04 #@! TO.N,GND*
X146952000Y-126873000D03*
G04 #@! TD*
D21*
G04 #@! TO.P,Q1,1,D*
G04 #@! TO.N,VDD*
X173990000Y-64262000D03*
G04 #@! TO.P,Q1,2,G*
G04 #@! TO.N,Net-(J3-Pin_1)*
X173990000Y-76962000D03*
G04 #@! TO.P,Q1,3,S*
G04 #@! TO.N,Net-(J3-Pin_2)*
X173990000Y-89662000D03*
G04 #@! TD*
D20*
G04 #@! TO.P,RN3,1*
G04 #@! TO.N,VCC*
X149938500Y-131892000D03*
G04 #@! TO.P,RN3,2*
G04 #@! TO.N,GND*
X149938500Y-133792000D03*
G04 #@! TO.P,RN3,3*
G04 #@! TO.N,Net-(U3-+)*
X151813500Y-132842000D03*
G04 #@! TD*
D16*
G04 #@! TO.P,J4,1,Pin_1*
G04 #@! TO.N,/GATE_1*
X125730000Y-115062000D03*
D17*
G04 #@! TO.P,J4,2,Pin_2*
G04 #@! TO.N,/SOURCE_1*
X125730000Y-120142000D03*
G04 #@! TD*
D16*
G04 #@! TO.P,J1,1,Pin_1*
G04 #@! TO.N,VDD*
X125730000Y-66802000D03*
D17*
G04 #@! TO.P,J1,2,Pin_2*
G04 #@! TO.N,GND*
X125730000Y-71882000D03*
G04 #@! TD*
D15*
G04 #@! TO.P,U1,1,VOS*
G04 #@! TO.N,unconnected-(U1-VOS-Pad1)*
X144145000Y-87057000D03*
G04 #@! TO.P,U1,2,-*
G04 #@! TO.N,Net-(J3-Pin_2)*
X145415000Y-87057000D03*
G04 #@! TO.P,U1,3,+*
G04 #@! TO.N,Net-(U1-+)*
X146685000Y-87057000D03*
G04 #@! TO.P,U1,4,V-*
G04 #@! TO.N,GND*
X147955000Y-87057000D03*
G04 #@! TO.P,U1,5,NC*
G04 #@! TO.N,unconnected-(U1-NC-Pad5)*
X147955000Y-82107000D03*
G04 #@! TO.P,U1,6*
G04 #@! TO.N,Net-(J3-Pin_1)*
X146685000Y-82107000D03*
G04 #@! TO.P,U1,7,V+*
G04 #@! TO.N,VDD*
X145415000Y-82107000D03*
G04 #@! TO.P,U1,8,VOS*
G04 #@! TO.N,unconnected-(U1-VOS-Pad8)*
X144145000Y-82107000D03*
G04 #@! TD*
D19*
G04 #@! TO.P,R1,1*
G04 #@! TO.N,VDD*
X139065000Y-66802000D03*
G04 #@! TO.P,R1,2*
G04 #@! TO.N,Net-(D1-A)*
X139065000Y-68452000D03*
G04 #@! TD*
D16*
G04 #@! TO.P,J3,1,Pin_1*
G04 #@! TO.N,Net-(J3-Pin_1)*
X125730000Y-82042000D03*
D17*
G04 #@! TO.P,J3,2,Pin_2*
G04 #@! TO.N,Net-(J3-Pin_2)*
X125730000Y-87122000D03*
G04 #@! TD*
D18*
G04 #@! TO.P,C6,1*
G04 #@! TO.N,VCC*
X145402000Y-128397000D03*
G04 #@! TO.P,C6,2*
G04 #@! TO.N,GND*
X146952000Y-128397000D03*
G04 #@! TD*
D13*
G04 #@! TO.P,R4,1*
G04 #@! TO.N,Net-(R3-Pad2)*
X148527000Y-89154000D03*
G04 #@! TO.P,R4,2*
G04 #@! TO.N,GND*
X150177000Y-89154000D03*
G04 #@! TD*
G04 #@! TO.P,R5,1*
G04 #@! TO.N,/SOURCE_1*
X145479000Y-122174000D03*
G04 #@! TO.P,R5,2*
G04 #@! TO.N,Net-(R5-Pad2)*
X147129000Y-122174000D03*
G04 #@! TD*
D18*
G04 #@! TO.P,C4,1*
G04 #@! TO.N,VCC*
X145402000Y-113127000D03*
G04 #@! TO.P,C4,2*
G04 #@! TO.N,GND*
X146952000Y-113127000D03*
G04 #@! TD*
D14*
G04 #@! TO.P,D2,1,K*
G04 #@! TO.N,GND*
X139192000Y-104400750D03*
G04 #@! TO.P,D2,2,A*
G04 #@! TO.N,Net-(D2-A)*
X139192000Y-102825750D03*
G04 #@! TD*
D22*
G04 #@! TO.N,VDD*
X145402000Y-77610000D03*
X151064000Y-83632000D03*
G04 #@! TO.N,GND*
X148082000Y-126873000D03*
X149098000Y-87122000D03*
X149606000Y-128397000D03*
X150241000Y-87122000D03*
X148082000Y-128397000D03*
X149606000Y-80137000D03*
X149098000Y-135382000D03*
X149606000Y-126873000D03*
X148082000Y-111633000D03*
X149606000Y-113157000D03*
X148209000Y-78613000D03*
X148082000Y-113157000D03*
X149606000Y-111633000D03*
X149606000Y-78613000D03*
X150241000Y-135382000D03*
X151384000Y-133858000D03*
X151384000Y-85598000D03*
X148209000Y-80137000D03*
G04 #@! TO.N,VCC*
X151064000Y-116652000D03*
X151069000Y-131892000D03*
X145402000Y-110630000D03*
X145402000Y-125997000D03*
G04 #@! TD*
D23*
G04 #@! TO.N,/GATE_1*
X169545000Y-119312000D02*
X159199000Y-108966000D01*
X159199000Y-108966000D02*
X131826000Y-108966000D01*
X131826000Y-108966000D02*
X125730000Y-115062000D01*
D24*
G04 #@! TO.N,VDD*
X165989000Y-63119000D02*
X139192000Y-63119000D01*
X126746000Y-63119000D02*
X125730000Y-64135000D01*
D25*
X145415000Y-80150000D02*
X145402000Y-80137000D01*
D24*
X125730000Y-64135000D02*
X125730000Y-66802000D01*
D25*
X139065000Y-63246000D02*
X139192000Y-63119000D01*
D24*
X173990000Y-64262000D02*
X167132000Y-64262000D01*
D26*
X145415000Y-82107000D02*
X145415000Y-80150000D01*
D24*
X139192000Y-63119000D02*
X126746000Y-63119000D01*
D25*
X151064000Y-83632000D02*
X149938500Y-83632000D01*
D24*
X167132000Y-64262000D02*
X165989000Y-63119000D01*
D25*
X145402000Y-80137000D02*
X145402000Y-78613000D01*
X145402000Y-77610000D02*
X145402000Y-78613000D01*
X139065000Y-66802000D02*
X139065000Y-63246000D01*
G04 #@! TO.N,VCC*
X145415000Y-113140000D02*
X145402000Y-113127000D01*
D26*
X145415000Y-115127000D02*
X145415000Y-113140000D01*
X145402000Y-130354000D02*
X145415000Y-130367000D01*
X145402000Y-128397000D02*
X145402000Y-130354000D01*
D25*
X151069000Y-131892000D02*
X149938500Y-131892000D01*
X151064000Y-116652000D02*
X149938500Y-116652000D01*
X145402000Y-125997000D02*
X145402000Y-126873000D01*
X125730000Y-99822000D02*
X128143000Y-97409000D01*
X138430000Y-97409000D02*
X139192000Y-98171000D01*
X139192000Y-98171000D02*
X139192000Y-99740250D01*
X145402000Y-128397000D02*
X145402000Y-126873000D01*
X145402000Y-113127000D02*
X145402000Y-111633000D01*
D26*
X139191000Y-99739250D02*
X139192000Y-99740250D01*
D25*
X145402000Y-110630000D02*
X145402000Y-111633000D01*
X128143000Y-97409000D02*
X138430000Y-97409000D01*
D26*
G04 #@! TO.N,Net-(D1-A)*
X139065000Y-68452000D02*
X139065000Y-69887500D01*
G04 #@! TO.N,Net-(D2-A)*
X139192000Y-101390250D02*
X139192000Y-102825750D01*
D23*
G04 #@! TO.N,/GATE_1*
X146177000Y-116840000D02*
X127508000Y-116840000D01*
X146685000Y-115127000D02*
X146685000Y-116332000D01*
X146685000Y-116332000D02*
X146177000Y-116840000D01*
X127508000Y-116840000D02*
X125730000Y-115062000D01*
G04 #@! TO.N,/SOURCE_1*
X145415000Y-118745000D02*
X144907000Y-118237000D01*
X127635000Y-118237000D02*
X125730000Y-120142000D01*
X129159000Y-123571000D02*
X125730000Y-120142000D01*
X145415000Y-122110000D02*
X145479000Y-122174000D01*
X145415000Y-120077000D02*
X145415000Y-122110000D01*
X173355000Y-120269000D02*
X170053000Y-123571000D01*
X173355000Y-116772000D02*
X173355000Y-120269000D01*
X144907000Y-118237000D02*
X127635000Y-118237000D01*
X145415000Y-120077000D02*
X145415000Y-118745000D01*
X170053000Y-123571000D02*
X129159000Y-123571000D01*
G04 #@! TO.N,/GATE_2*
X146685000Y-131572000D02*
X146304000Y-131953000D01*
X170307000Y-124587000D02*
X131445000Y-124587000D01*
X173355000Y-131132000D02*
X173355000Y-127635000D01*
X127381000Y-131953000D02*
X125730000Y-130302000D01*
X146685000Y-130367000D02*
X146685000Y-131572000D01*
X131445000Y-124587000D02*
X125730000Y-130302000D01*
X146304000Y-131953000D02*
X127381000Y-131953000D01*
X173355000Y-127635000D02*
X170307000Y-124587000D01*
G04 #@! TO.N,Net-(R3-Pad2)*
X147129000Y-89154000D02*
X148527000Y-89154000D01*
G04 #@! TO.N,Net-(U1-+)*
X147447000Y-84582000D02*
X151813500Y-84582000D01*
X146685000Y-85344000D02*
X147447000Y-84582000D01*
X146685000Y-87057000D02*
X146685000Y-85344000D01*
G04 #@! TO.N,Net-(U2-+)*
X147447000Y-117602000D02*
X151813500Y-117602000D01*
X146685000Y-120077000D02*
X146685000Y-118364000D01*
X146685000Y-118364000D02*
X147447000Y-117602000D01*
G04 #@! TO.N,/SOURCE_2*
X145415000Y-137350000D02*
X145479000Y-137414000D01*
X145415000Y-133858000D02*
X144907000Y-133350000D01*
X127762000Y-133350000D02*
X125730000Y-135382000D01*
X145415000Y-135317000D02*
X145415000Y-133858000D01*
X145415000Y-135317000D02*
X145415000Y-137350000D01*
X164152000Y-139065000D02*
X129413000Y-139065000D01*
X144907000Y-133350000D02*
X127762000Y-133350000D01*
X129413000Y-139065000D02*
X125730000Y-135382000D01*
X169545000Y-133672000D02*
X164152000Y-139065000D01*
G04 #@! TO.N,Net-(U3-+)*
X146685000Y-133477000D02*
X147320000Y-132842000D01*
X147320000Y-132842000D02*
X151813500Y-132842000D01*
X146685000Y-135317000D02*
X146685000Y-133477000D01*
G04 #@! TO.N,Net-(J3-Pin_1)*
X173990000Y-76962000D02*
X173228000Y-76200000D01*
X146685000Y-82107000D02*
X146685000Y-83439000D01*
X131572000Y-76200000D02*
X125730000Y-82042000D01*
X127635000Y-83947000D02*
X125730000Y-82042000D01*
X146177000Y-83947000D02*
X127635000Y-83947000D01*
X146685000Y-83439000D02*
X146177000Y-83947000D01*
X173228000Y-76200000D02*
X131572000Y-76200000D01*
G04 #@! TO.N,Net-(J3-Pin_2)*
X145415000Y-85852000D02*
X144907000Y-85344000D01*
X156718000Y-89662000D02*
X153918000Y-92462000D01*
X173990000Y-89662000D02*
X156718000Y-89662000D01*
X145415000Y-87057000D02*
X145415000Y-85852000D01*
X145415000Y-87057000D02*
X145415000Y-89090000D01*
X144907000Y-85344000D02*
X127508000Y-85344000D01*
X153918000Y-92462000D02*
X131070000Y-92462000D01*
X127508000Y-85344000D02*
X125730000Y-87122000D01*
X145415000Y-89090000D02*
X145479000Y-89154000D01*
X131070000Y-92462000D02*
X125730000Y-87122000D01*
G04 #@! TO.N,Net-(R5-Pad2)*
X147129000Y-122174000D02*
X148527000Y-122174000D01*
G04 #@! TO.N,Net-(R7-Pad2)*
X147129000Y-137414000D02*
X148527000Y-137414000D01*
G04 #@! TD*
G04 #@! TA.AperFunction,Conductor*
G04 #@! TO.N,GND*
G36*
X179483621Y-60530502D02*
G01*
X179530114Y-60584158D01*
X179541500Y-60636500D01*
X179541500Y-139367500D01*
X179521498Y-139435621D01*
X179467842Y-139482114D01*
X179415500Y-139493500D01*
X164567213Y-139493500D01*
X164499092Y-139473498D01*
X164452599Y-139419842D01*
X164442495Y-139349568D01*
X164471989Y-139284988D01*
X164478118Y-139278405D01*
X165616400Y-138140123D01*
X169098159Y-134658362D01*
X169160469Y-134624339D01*
X169231284Y-134629403D01*
X169235428Y-134631033D01*
X169251998Y-134637897D01*
X169446065Y-134676500D01*
X169643935Y-134676500D01*
X169838002Y-134637897D01*
X170020809Y-134562176D01*
X170185331Y-134452246D01*
X170325246Y-134312331D01*
X170435176Y-134147809D01*
X170510897Y-133965002D01*
X170549500Y-133770935D01*
X170549500Y-133573065D01*
X170549499Y-133573061D01*
X171080500Y-133573061D01*
X171080500Y-133770938D01*
X171119103Y-133965002D01*
X171119104Y-133965005D01*
X171161932Y-134068400D01*
X171194824Y-134147809D01*
X171304754Y-134312331D01*
X171444669Y-134452246D01*
X171609191Y-134562176D01*
X171791998Y-134637897D01*
X171986065Y-134676500D01*
X172183935Y-134676500D01*
X172378002Y-134637897D01*
X172560809Y-134562176D01*
X172725331Y-134452246D01*
X172865246Y-134312331D01*
X172975176Y-134147809D01*
X173050897Y-133965002D01*
X173089500Y-133770935D01*
X173089500Y-133573065D01*
X173050897Y-133378998D01*
X172975176Y-133196191D01*
X172915756Y-133107263D01*
X174159500Y-133107263D01*
X174159500Y-133336736D01*
X174189450Y-133564231D01*
X174189452Y-133564238D01*
X174248842Y-133785887D01*
X174336656Y-133997888D01*
X174336657Y-133997889D01*
X174336662Y-133997900D01*
X174451386Y-134196608D01*
X174451391Y-134196615D01*
X174591073Y-134378652D01*
X174591092Y-134378673D01*
X174753326Y-134540907D01*
X174753347Y-134540926D01*
X174935384Y-134680608D01*
X174935391Y-134680613D01*
X175134099Y-134795337D01*
X175134103Y-134795338D01*
X175134112Y-134795344D01*
X175346113Y-134883158D01*
X175567762Y-134942548D01*
X175567766Y-134942548D01*
X175567768Y-134942549D01*
X175626398Y-134950267D01*
X175795266Y-134972500D01*
X175795273Y-134972500D01*
X176024727Y-134972500D01*
X176024734Y-134972500D01*
X176230345Y-134945430D01*
X176252231Y-134942549D01*
X176252231Y-134942548D01*
X176252238Y-134942548D01*
X176473887Y-134883158D01*
X176685888Y-134795344D01*
X176884612Y-134680611D01*
X177066661Y-134540919D01*
X177228919Y-134378661D01*
X177238759Y-134365838D01*
X177263884Y-134333094D01*
X177368611Y-134196612D01*
X177483344Y-133997888D01*
X177571158Y-133785887D01*
X177630548Y-133564238D01*
X177660500Y-133336734D01*
X177660500Y-133107266D01*
X177632127Y-132891754D01*
X177630549Y-132879768D01*
X177630548Y-132879766D01*
X177630548Y-132879762D01*
X177571158Y-132658113D01*
X177483344Y-132446112D01*
X177483338Y-132446103D01*
X177483337Y-132446099D01*
X177368613Y-132247391D01*
X177368608Y-132247384D01*
X177228926Y-132065347D01*
X177228907Y-132065326D01*
X177066673Y-131903092D01*
X177066652Y-131903073D01*
X176884615Y-131763391D01*
X176884608Y-131763386D01*
X176685900Y-131648662D01*
X176685892Y-131648658D01*
X176685888Y-131648656D01*
X176473887Y-131560842D01*
X176308843Y-131516619D01*
X176252231Y-131501450D01*
X176024736Y-131471500D01*
X176024734Y-131471500D01*
X175795266Y-131471500D01*
X175795263Y-131471500D01*
X175567768Y-131501450D01*
X175346113Y-131560842D01*
X175134110Y-131648657D01*
X175134099Y-131648662D01*
X174935391Y-131763386D01*
X174935384Y-131763391D01*
X174753347Y-131903073D01*
X174753326Y-131903092D01*
X174591092Y-132065326D01*
X174591073Y-132065347D01*
X174451391Y-132247384D01*
X174451386Y-132247391D01*
X174336662Y-132446099D01*
X174336657Y-132446110D01*
X174336656Y-132446112D01*
X174287226Y-132565446D01*
X174248842Y-132658113D01*
X174189450Y-132879768D01*
X174159500Y-133107263D01*
X172915756Y-133107263D01*
X172865246Y-133031669D01*
X172725331Y-132891754D01*
X172560809Y-132781824D01*
X172378005Y-132706104D01*
X172378002Y-132706103D01*
X172183938Y-132667500D01*
X172183935Y-132667500D01*
X171986065Y-132667500D01*
X171986061Y-132667500D01*
X171791997Y-132706103D01*
X171791994Y-132706104D01*
X171609190Y-132781824D01*
X171444673Y-132891751D01*
X171444666Y-132891756D01*
X171304756Y-133031666D01*
X171304751Y-133031673D01*
X171194824Y-133196190D01*
X171119104Y-133378994D01*
X171119103Y-133378997D01*
X171080500Y-133573061D01*
X170549499Y-133573061D01*
X170510897Y-133378998D01*
X170435176Y-133196191D01*
X170325246Y-133031669D01*
X170185331Y-132891754D01*
X170020809Y-132781824D01*
X169838005Y-132706104D01*
X169838002Y-132706103D01*
X169643938Y-132667500D01*
X169643935Y-132667500D01*
X169446065Y-132667500D01*
X169446061Y-132667500D01*
X169251997Y-132706103D01*
X169251994Y-132706104D01*
X169069190Y-132781824D01*
X168904673Y-132891751D01*
X168904666Y-132891756D01*
X168764756Y-133031666D01*
X168764751Y-133031673D01*
X168654824Y-133196190D01*
X168579104Y-133378994D01*
X168579103Y-133378997D01*
X168540500Y-133573061D01*
X168540500Y-133770938D01*
X168579103Y-133965002D01*
X168579105Y-133965009D01*
X168585948Y-133981529D01*
X168593537Y-134052119D01*
X168561757Y-134115605D01*
X168558634Y-134118841D01*
X164030882Y-138646595D01*
X163968570Y-138680620D01*
X163941787Y-138683500D01*
X129623212Y-138683500D01*
X129555091Y-138663498D01*
X129534117Y-138646595D01*
X127132607Y-136245084D01*
X127098581Y-136182772D01*
X127103646Y-136111956D01*
X127109435Y-136098786D01*
X127170612Y-135978721D01*
X127246223Y-135746013D01*
X127284500Y-135504342D01*
X127284500Y-135259658D01*
X127246223Y-135017987D01*
X127170612Y-134785279D01*
X127109434Y-134665212D01*
X127096331Y-134595436D01*
X127123031Y-134529651D01*
X127132598Y-134518923D01*
X127883119Y-133768404D01*
X127945431Y-133734379D01*
X127972214Y-133731500D01*
X144696786Y-133731500D01*
X144764907Y-133751502D01*
X144785881Y-133768404D01*
X144996595Y-133979117D01*
X145011540Y-134006487D01*
X145028396Y-134032715D01*
X145029301Y-134039014D01*
X145030620Y-134041429D01*
X145033500Y-134068213D01*
X145033500Y-134099260D01*
X145013498Y-134167381D01*
X144996595Y-134188355D01*
X144933675Y-134251274D01*
X144933673Y-134251277D01*
X144892267Y-134332542D01*
X144843518Y-134384157D01*
X144774604Y-134401223D01*
X144707402Y-134378322D01*
X144667733Y-134332542D01*
X144626326Y-134251277D01*
X144626324Y-134251274D01*
X144535723Y-134160673D01*
X144421553Y-134102501D01*
X144356836Y-134092251D01*
X144326834Y-134087500D01*
X143963166Y-134087500D01*
X143937266Y-134091602D01*
X143868446Y-134102501D01*
X143754276Y-134160673D01*
X143663673Y-134251276D01*
X143605501Y-134365446D01*
X143602130Y-134386734D01*
X143590500Y-134460166D01*
X143590500Y-136173834D01*
X143591916Y-136182772D01*
X143605501Y-136268553D01*
X143663673Y-136382723D01*
X143754276Y-136473326D01*
X143777651Y-136485236D01*
X143868445Y-136531498D01*
X143963166Y-136546500D01*
X143963168Y-136546500D01*
X144326832Y-136546500D01*
X144326834Y-136546500D01*
X144421555Y-136531498D01*
X144535723Y-136473326D01*
X144626326Y-136382723D01*
X144667733Y-136301455D01*
X144716481Y-136249842D01*
X144785396Y-136232776D01*
X144852598Y-136255677D01*
X144882054Y-136284762D01*
X144887810Y-136292712D01*
X144933674Y-136382723D01*
X145003677Y-136452726D01*
X145009554Y-136460842D01*
X145018214Y-136485236D01*
X145030621Y-136507957D01*
X145032506Y-136525495D01*
X145033306Y-136527748D01*
X145032923Y-136529379D01*
X145033500Y-136534740D01*
X145033500Y-136691700D01*
X145013498Y-136759821D01*
X144982324Y-136793078D01*
X144953988Y-136813991D01*
X144872631Y-136924225D01*
X144872628Y-136924232D01*
X144827379Y-137053545D01*
X144824500Y-137084248D01*
X144824500Y-137743740D01*
X144824501Y-137743755D01*
X144827379Y-137774452D01*
X144827380Y-137774455D01*
X144872628Y-137903767D01*
X144872631Y-137903774D01*
X144953989Y-138014010D01*
X145064225Y-138095368D01*
X145064232Y-138095371D01*
X145193546Y-138140620D01*
X145193549Y-138140621D01*
X145224251Y-138143500D01*
X145733748Y-138143499D01*
X145764451Y-138140621D01*
X145893773Y-138095369D01*
X146004010Y-138014010D01*
X146085369Y-137903773D01*
X146130621Y-137774451D01*
X146133500Y-137743749D01*
X146133499Y-137084252D01*
X146130621Y-137053549D01*
X146086427Y-136927251D01*
X146085371Y-136924232D01*
X146085368Y-136924225D01*
X146004010Y-136813989D01*
X145893776Y-136732633D01*
X145893775Y-136732632D01*
X145893773Y-136732631D01*
X145880882Y-136728120D01*
X145861586Y-136714279D01*
X145839988Y-136704416D01*
X145833278Y-136693976D01*
X145823191Y-136686741D01*
X145814439Y-136664662D01*
X145801604Y-136644690D01*
X145798803Y-136625215D01*
X145797030Y-136620740D01*
X145796500Y-136609192D01*
X145796500Y-136534740D01*
X145816502Y-136466619D01*
X145833405Y-136445645D01*
X145896324Y-136382725D01*
X145896326Y-136382723D01*
X145937733Y-136301457D01*
X145986481Y-136249842D01*
X146055396Y-136232776D01*
X146122598Y-136255677D01*
X146162267Y-136301457D01*
X146203673Y-136382723D01*
X146294276Y-136473326D01*
X146317651Y-136485236D01*
X146408445Y-136531498D01*
X146503166Y-136546500D01*
X146503168Y-136546500D01*
X146583517Y-136546500D01*
X146651638Y-136566502D01*
X146698131Y-136620158D01*
X146708235Y-136690432D01*
X146678741Y-136755012D01*
X146658338Y-136773879D01*
X146603989Y-136813989D01*
X146522631Y-136924225D01*
X146522628Y-136924232D01*
X146477379Y-137053545D01*
X146474500Y-137084248D01*
X146474500Y-137743740D01*
X146474501Y-137743755D01*
X146477379Y-137774452D01*
X146477380Y-137774455D01*
X146522628Y-137903767D01*
X146522631Y-137903774D01*
X146603989Y-138014010D01*
X146714225Y-138095368D01*
X146714232Y-138095371D01*
X146843546Y-138140620D01*
X146843549Y-138140621D01*
X146874251Y-138143500D01*
X147383748Y-138143499D01*
X147414451Y-138140621D01*
X147543773Y-138095369D01*
X147654010Y-138014010D01*
X147726621Y-137915625D01*
X147783166Y-137872694D01*
X147853945Y-137867147D01*
X147916487Y-137900748D01*
X147929379Y-137915626D01*
X148001989Y-138014010D01*
X148112225Y-138095368D01*
X148112232Y-138095371D01*
X148241546Y-138140620D01*
X148241549Y-138140621D01*
X148272251Y-138143500D01*
X148781748Y-138143499D01*
X148812451Y-138140621D01*
X148941773Y-138095369D01*
X149052010Y-138014010D01*
X149133369Y-137903773D01*
X149178621Y-137774451D01*
X149181500Y-137743749D01*
X149181500Y-137743688D01*
X149523000Y-137743688D01*
X149525876Y-137774360D01*
X149571076Y-137903534D01*
X149652347Y-138013652D01*
X149762465Y-138094923D01*
X149891640Y-138140123D01*
X149891638Y-138140123D01*
X149922311Y-138142999D01*
X149922317Y-138143000D01*
X150050000Y-138143000D01*
X150304000Y-138143000D01*
X150431683Y-138143000D01*
X150431688Y-138142999D01*
X150462360Y-138140123D01*
X150591534Y-138094923D01*
X150701652Y-138013652D01*
X150782923Y-137903534D01*
X150828123Y-137774360D01*
X150830999Y-137743688D01*
X150831000Y-137743682D01*
X150831000Y-137541000D01*
X150304000Y-137541000D01*
X150304000Y-138143000D01*
X150050000Y-138143000D01*
X150050000Y-137541000D01*
X149523000Y-137541000D01*
X149523000Y-137743688D01*
X149181500Y-137743688D01*
X149181499Y-137287000D01*
X149181499Y-137084311D01*
X149523000Y-137084311D01*
X149523000Y-137287000D01*
X150050000Y-137287000D01*
X150304000Y-137287000D01*
X150831000Y-137287000D01*
X150831000Y-137084317D01*
X150830999Y-137084311D01*
X150828123Y-137053639D01*
X150782923Y-136924465D01*
X150701652Y-136814347D01*
X150591534Y-136733076D01*
X150462359Y-136687876D01*
X150462361Y-136687876D01*
X150431688Y-136685000D01*
X150304000Y-136685000D01*
X150304000Y-137287000D01*
X150050000Y-137287000D01*
X150050000Y-136685000D01*
X149922311Y-136685000D01*
X149891639Y-136687876D01*
X149762465Y-136733076D01*
X149652347Y-136814347D01*
X149571076Y-136924465D01*
X149525876Y-137053639D01*
X149523000Y-137084311D01*
X149181499Y-137084311D01*
X149181499Y-137084259D01*
X149181498Y-137084251D01*
X149178621Y-137053549D01*
X149134427Y-136927251D01*
X149133371Y-136924232D01*
X149133368Y-136924225D01*
X149052010Y-136813989D01*
X148941774Y-136732631D01*
X148941767Y-136732628D01*
X148812453Y-136687379D01*
X148812455Y-136687379D01*
X148781751Y-136684500D01*
X148438031Y-136684500D01*
X148369910Y-136664498D01*
X148323417Y-136610842D01*
X148313313Y-136540568D01*
X148342807Y-136475988D01*
X148348936Y-136469404D01*
X148435917Y-136382423D01*
X148494015Y-136268400D01*
X148509000Y-136173791D01*
X148509000Y-135444000D01*
X148082000Y-135444000D01*
X148082000Y-136546000D01*
X148098685Y-136562685D01*
X148132711Y-136624997D01*
X148127646Y-136695812D01*
X148085099Y-136752648D01*
X148084412Y-136753159D01*
X148001990Y-136813989D01*
X147929379Y-136912374D01*
X147872834Y-136955306D01*
X147802054Y-136960852D01*
X147739512Y-136927251D01*
X147726621Y-136912374D01*
X147716177Y-136898223D01*
X147654010Y-136813990D01*
X147599662Y-136773879D01*
X147583982Y-136762306D01*
X147583979Y-136762304D01*
X147543773Y-136732631D01*
X147466649Y-136705644D01*
X147466643Y-136705641D01*
X147414453Y-136687379D01*
X147414455Y-136687379D01*
X147383751Y-136684500D01*
X147168739Y-136684500D01*
X147155314Y-136680558D01*
X147141356Y-136681488D01*
X147121923Y-136670753D01*
X147100618Y-136664498D01*
X147091455Y-136653924D01*
X147079210Y-136647160D01*
X147068664Y-136627621D01*
X147054125Y-136610842D01*
X147052134Y-136596994D01*
X147045489Y-136584683D01*
X147047180Y-136562544D01*
X147044021Y-136540568D01*
X147049946Y-136526362D01*
X147050899Y-136513892D01*
X147062882Y-136495345D01*
X147068240Y-136482500D01*
X147074835Y-136473778D01*
X147075723Y-136473326D01*
X147166326Y-136382723D01*
X147213070Y-136290982D01*
X147219781Y-136282109D01*
X147239719Y-136267334D01*
X147256760Y-136249291D01*
X147267738Y-136246572D01*
X147276824Y-136239840D01*
X147301585Y-136238190D01*
X147325675Y-136232225D01*
X147336379Y-136235872D01*
X147347663Y-136235121D01*
X147369385Y-136247119D01*
X147392877Y-136255125D01*
X147401139Y-136264660D01*
X147409809Y-136269449D01*
X147417274Y-136283280D01*
X147432547Y-136300906D01*
X147474082Y-136382423D01*
X147474084Y-136382426D01*
X147564573Y-136472915D01*
X147564575Y-136472916D01*
X147571018Y-136476199D01*
X147687418Y-136532412D01*
X147773193Y-136545998D01*
X147773212Y-136545999D01*
X147828000Y-136545998D01*
X147828000Y-135190000D01*
X148082000Y-135190000D01*
X148508999Y-135190000D01*
X148508999Y-134460207D01*
X148494016Y-134365602D01*
X148435917Y-134251575D01*
X148345424Y-134161082D01*
X148231400Y-134102984D01*
X148136792Y-134088000D01*
X148082000Y-134088000D01*
X148082000Y-135190000D01*
X147828000Y-135190000D01*
X147828000Y-134088000D01*
X147827999Y-134087999D01*
X147773207Y-134088000D01*
X147678602Y-134102983D01*
X147564575Y-134161082D01*
X147474084Y-134251573D01*
X147474080Y-134251578D01*
X147432546Y-134333094D01*
X147383798Y-134384709D01*
X147314883Y-134401774D01*
X147247681Y-134378873D01*
X147218193Y-134349743D01*
X147212458Y-134341815D01*
X147166326Y-134251277D01*
X147096301Y-134181252D01*
X147090413Y-134173113D01*
X147081772Y-134148738D01*
X147069379Y-134126043D01*
X147067487Y-134108442D01*
X147066691Y-134106197D01*
X147067071Y-134104576D01*
X147066500Y-134099260D01*
X147066500Y-133973792D01*
X148947001Y-133973792D01*
X148961983Y-134068397D01*
X149020082Y-134182424D01*
X149110575Y-134272917D01*
X149224599Y-134331015D01*
X149319208Y-134345999D01*
X149811500Y-134345999D01*
X150065500Y-134345999D01*
X150557792Y-134345999D01*
X150652397Y-134331016D01*
X150766424Y-134272917D01*
X150856917Y-134182424D01*
X150915015Y-134068400D01*
X150930000Y-133973791D01*
X150930000Y-133919000D01*
X150065500Y-133919000D01*
X150065500Y-134345999D01*
X149811500Y-134345999D01*
X149811500Y-133919000D01*
X148947001Y-133919000D01*
X148947001Y-133973792D01*
X147066500Y-133973792D01*
X147066500Y-133687213D01*
X147086502Y-133619092D01*
X147103405Y-133598118D01*
X147441118Y-133260405D01*
X147503430Y-133226379D01*
X147530213Y-133223500D01*
X148905203Y-133223500D01*
X148973324Y-133243502D01*
X149019817Y-133297158D01*
X149029921Y-133367432D01*
X149017470Y-133406702D01*
X148961985Y-133515597D01*
X148947000Y-133610208D01*
X148947000Y-133665000D01*
X150929999Y-133665000D01*
X150929999Y-133610207D01*
X150914406Y-133511748D01*
X150923506Y-133441337D01*
X150969229Y-133387024D01*
X151037058Y-133366052D01*
X151096057Y-133379771D01*
X151099445Y-133381498D01*
X151194166Y-133396500D01*
X151194168Y-133396500D01*
X152432832Y-133396500D01*
X152432834Y-133396500D01*
X152527555Y-133381498D01*
X152641723Y-133323326D01*
X152732326Y-133232723D01*
X152790498Y-133118555D01*
X152792286Y-133107263D01*
X160159500Y-133107263D01*
X160159500Y-133336736D01*
X160189450Y-133564231D01*
X160189452Y-133564238D01*
X160248842Y-133785887D01*
X160336656Y-133997888D01*
X160336657Y-133997889D01*
X160336662Y-133997900D01*
X160451386Y-134196608D01*
X160451391Y-134196615D01*
X160591073Y-134378652D01*
X160591092Y-134378673D01*
X160753326Y-134540907D01*
X160753347Y-134540926D01*
X160935384Y-134680608D01*
X160935391Y-134680613D01*
X161134099Y-134795337D01*
X161134103Y-134795338D01*
X161134112Y-134795344D01*
X161346113Y-134883158D01*
X161567762Y-134942548D01*
X161567766Y-134942548D01*
X161567768Y-134942549D01*
X161626398Y-134950267D01*
X161795266Y-134972500D01*
X161795273Y-134972500D01*
X162024727Y-134972500D01*
X162024734Y-134972500D01*
X162230345Y-134945430D01*
X162252231Y-134942549D01*
X162252231Y-134942548D01*
X162252238Y-134942548D01*
X162473887Y-134883158D01*
X162685888Y-134795344D01*
X162884612Y-134680611D01*
X163066661Y-134540919D01*
X163228919Y-134378661D01*
X163238759Y-134365838D01*
X163263884Y-134333094D01*
X163368611Y-134196612D01*
X163483344Y-133997888D01*
X163571158Y-133785887D01*
X163630548Y-133564238D01*
X163660500Y-133336734D01*
X163660500Y-133107266D01*
X163632127Y-132891754D01*
X163630549Y-132879768D01*
X163630548Y-132879766D01*
X163630548Y-132879762D01*
X163571158Y-132658113D01*
X163483344Y-132446112D01*
X163483338Y-132446103D01*
X163483337Y-132446099D01*
X163368613Y-132247391D01*
X163368608Y-132247384D01*
X163228926Y-132065347D01*
X163228907Y-132065326D01*
X163066673Y-131903092D01*
X163066652Y-131903073D01*
X162884615Y-131763391D01*
X162884608Y-131763386D01*
X162685900Y-131648662D01*
X162685892Y-131648658D01*
X162685888Y-131648656D01*
X162473887Y-131560842D01*
X162308843Y-131516619D01*
X162252231Y-131501450D01*
X162024736Y-131471500D01*
X162024734Y-131471500D01*
X161795266Y-131471500D01*
X161795263Y-131471500D01*
X161567768Y-131501450D01*
X161346113Y-131560842D01*
X161134110Y-131648657D01*
X161134099Y-131648662D01*
X160935391Y-131763386D01*
X160935384Y-131763391D01*
X160753347Y-131903073D01*
X160753326Y-131903092D01*
X160591092Y-132065326D01*
X160591073Y-132065347D01*
X160451391Y-132247384D01*
X160451386Y-132247391D01*
X160336662Y-132446099D01*
X160336657Y-132446110D01*
X160336656Y-132446112D01*
X160287226Y-132565446D01*
X160248842Y-132658113D01*
X160189450Y-132879768D01*
X160159500Y-133107263D01*
X152792286Y-133107263D01*
X152805500Y-133023834D01*
X152805500Y-132660166D01*
X152790498Y-132565445D01*
X152750272Y-132486498D01*
X152732326Y-132451276D01*
X152641723Y-132360673D01*
X152527553Y-132302501D01*
X152462836Y-132292251D01*
X152432834Y-132287500D01*
X152432832Y-132287500D01*
X151726409Y-132287500D01*
X151658288Y-132267498D01*
X151611795Y-132213842D01*
X151601691Y-132143568D01*
X151607134Y-132123724D01*
X151606870Y-132123654D01*
X151609006Y-132115680D01*
X151609008Y-132115678D01*
X151648500Y-131968293D01*
X151648500Y-131815707D01*
X151609008Y-131668322D01*
X151574071Y-131607809D01*
X151532717Y-131536182D01*
X151532709Y-131536172D01*
X151424827Y-131428290D01*
X151424817Y-131428282D01*
X151292682Y-131351994D01*
X151292680Y-131351993D01*
X151292678Y-131351992D01*
X151145293Y-131312500D01*
X150992707Y-131312500D01*
X150992706Y-131312500D01*
X150980738Y-131315707D01*
X150948128Y-131320000D01*
X149863194Y-131320000D01*
X149813905Y-131333207D01*
X149781295Y-131337500D01*
X149319166Y-131337500D01*
X149293266Y-131341602D01*
X149224446Y-131352501D01*
X149110276Y-131410673D01*
X149019673Y-131501276D01*
X148961501Y-131615446D01*
X148946500Y-131710167D01*
X148946500Y-132073832D01*
X148961501Y-132168553D01*
X149016909Y-132277297D01*
X149030013Y-132347074D01*
X149003313Y-132412859D01*
X148945285Y-132453765D01*
X148904642Y-132460500D01*
X147377959Y-132460500D01*
X147377943Y-132460499D01*
X147370225Y-132460499D01*
X147269775Y-132460499D01*
X147221261Y-132473498D01*
X147172745Y-132486498D01*
X147085756Y-132536721D01*
X147085750Y-132536726D01*
X146916374Y-132706103D01*
X146450753Y-133171724D01*
X146426287Y-133196190D01*
X146379725Y-133242751D01*
X146379721Y-133242756D01*
X146329500Y-133329741D01*
X146303500Y-133426776D01*
X146303500Y-134099260D01*
X146283498Y-134167381D01*
X146279554Y-134173158D01*
X146273677Y-134181273D01*
X146203674Y-134251277D01*
X146157812Y-134341284D01*
X146152054Y-134349237D01*
X146131425Y-134365196D01*
X146113518Y-134384157D01*
X146103811Y-134386560D01*
X146095901Y-134392681D01*
X146069917Y-134394954D01*
X146044604Y-134401223D01*
X146035138Y-134397997D01*
X146025175Y-134398869D01*
X146002087Y-134386734D01*
X145977402Y-134378322D01*
X145970142Y-134369944D01*
X145962330Y-134365838D01*
X145954283Y-134351641D01*
X145937733Y-134332542D01*
X145896326Y-134251277D01*
X145896324Y-134251274D01*
X145833405Y-134188355D01*
X145799379Y-134126043D01*
X145796500Y-134099260D01*
X145796500Y-133807776D01*
X145790635Y-133785887D01*
X145770501Y-133710746D01*
X145770499Y-133710743D01*
X145770499Y-133710741D01*
X145720278Y-133623756D01*
X145720270Y-133623746D01*
X145644863Y-133548339D01*
X145644840Y-133548318D01*
X145393680Y-133297158D01*
X145141247Y-133044724D01*
X145141245Y-133044723D01*
X145141243Y-133044721D01*
X145105064Y-133023833D01*
X145105062Y-133023833D01*
X145054254Y-132994499D01*
X144957225Y-132968500D01*
X127711775Y-132968500D01*
X127652390Y-132984412D01*
X127614741Y-132994500D01*
X127563937Y-133023833D01*
X127527756Y-133044721D01*
X127527750Y-133044726D01*
X126593083Y-133979393D01*
X126530771Y-134013418D01*
X126459955Y-134008353D01*
X126446790Y-134002566D01*
X126326721Y-133941388D01*
X126326718Y-133941387D01*
X126326716Y-133941386D01*
X126094016Y-133865778D01*
X126094020Y-133865778D01*
X126049026Y-133858651D01*
X125852342Y-133827500D01*
X125607658Y-133827500D01*
X125365987Y-133865777D01*
X125365981Y-133865778D01*
X125133283Y-133941386D01*
X125133277Y-133941389D01*
X124915260Y-134052474D01*
X124717308Y-134196295D01*
X124544295Y-134369308D01*
X124400474Y-134567260D01*
X124289389Y-134785277D01*
X124289386Y-134785283D01*
X124213778Y-135017981D01*
X124213777Y-135017986D01*
X124213777Y-135017987D01*
X124175500Y-135259658D01*
X124175500Y-135504342D01*
X124213777Y-135746013D01*
X124213778Y-135746018D01*
X124289386Y-135978716D01*
X124289388Y-135978721D01*
X124357275Y-136111956D01*
X124400474Y-136196739D01*
X124544295Y-136394691D01*
X124717308Y-136567704D01*
X124823270Y-136644690D01*
X124915264Y-136711528D01*
X125133279Y-136822612D01*
X125365981Y-136898221D01*
X125365982Y-136898221D01*
X125365987Y-136898223D01*
X125607658Y-136936500D01*
X125607661Y-136936500D01*
X125852339Y-136936500D01*
X125852342Y-136936500D01*
X126094013Y-136898223D01*
X126326721Y-136822612D01*
X126446786Y-136761434D01*
X126516563Y-136748331D01*
X126582347Y-136775031D01*
X126593084Y-136784607D01*
X129086883Y-139278405D01*
X129120908Y-139340717D01*
X129115844Y-139411532D01*
X129073297Y-139468368D01*
X129006777Y-139493179D01*
X128997788Y-139493500D01*
X120684500Y-139493500D01*
X120616379Y-139473498D01*
X120569886Y-139419842D01*
X120558500Y-139367500D01*
X120558500Y-129203737D01*
X124175500Y-129203737D01*
X124175500Y-131400246D01*
X124175502Y-131400270D01*
X124181959Y-131460339D01*
X124181959Y-131460341D01*
X124232657Y-131596266D01*
X124232658Y-131596267D01*
X124319596Y-131712404D01*
X124435733Y-131799342D01*
X124571658Y-131850040D01*
X124631745Y-131856500D01*
X126692785Y-131856499D01*
X126760906Y-131876501D01*
X126781880Y-131893404D01*
X127146746Y-132258270D01*
X127146751Y-132258274D01*
X127146753Y-132258276D01*
X127146754Y-132258277D01*
X127146756Y-132258278D01*
X127233742Y-132308499D01*
X127233747Y-132308502D01*
X127330775Y-132334501D01*
X127330777Y-132334501D01*
X127438943Y-132334501D01*
X127438959Y-132334500D01*
X146354223Y-132334500D01*
X146354225Y-132334500D01*
X146451254Y-132308501D01*
X146451257Y-132308499D01*
X146451258Y-132308499D01*
X146522274Y-132267498D01*
X146538247Y-132258276D01*
X146609276Y-132187247D01*
X146626996Y-132169527D01*
X146626998Y-132169524D01*
X146912064Y-131884458D01*
X146912071Y-131884452D01*
X146990270Y-131806253D01*
X146990276Y-131806247D01*
X147040501Y-131719254D01*
X147066500Y-131622225D01*
X147066500Y-131584740D01*
X147086502Y-131516619D01*
X147090446Y-131510842D01*
X147096322Y-131502726D01*
X147166326Y-131432723D01*
X147212189Y-131342712D01*
X147217946Y-131334762D01*
X147238572Y-131318804D01*
X147256481Y-131299842D01*
X147266188Y-131297438D01*
X147274099Y-131291318D01*
X147300082Y-131289044D01*
X147325396Y-131282776D01*
X147334861Y-131286001D01*
X147344825Y-131285130D01*
X147367912Y-131297264D01*
X147392598Y-131305677D01*
X147399857Y-131314054D01*
X147407670Y-131318161D01*
X147415717Y-131332357D01*
X147432265Y-131351455D01*
X147432799Y-131352502D01*
X147473673Y-131432723D01*
X147564276Y-131523326D01*
X147586393Y-131534595D01*
X147678445Y-131581498D01*
X147773166Y-131596500D01*
X147773168Y-131596500D01*
X148136832Y-131596500D01*
X148136834Y-131596500D01*
X148231555Y-131581498D01*
X148345723Y-131523326D01*
X148436326Y-131432723D01*
X148494498Y-131318555D01*
X148509500Y-131223834D01*
X148509500Y-131033061D01*
X169810500Y-131033061D01*
X169810500Y-131230938D01*
X169849103Y-131425002D01*
X169849104Y-131425005D01*
X169920043Y-131596266D01*
X169924824Y-131607809D01*
X170034754Y-131772331D01*
X170174669Y-131912246D01*
X170339191Y-132022176D01*
X170521998Y-132097897D01*
X170716065Y-132136500D01*
X170913935Y-132136500D01*
X171108002Y-132097897D01*
X171290809Y-132022176D01*
X171455331Y-131912246D01*
X171595246Y-131772331D01*
X171705176Y-131607809D01*
X171780897Y-131425002D01*
X171819500Y-131230935D01*
X171819500Y-131033065D01*
X171780897Y-130838998D01*
X171705176Y-130656191D01*
X171595246Y-130491669D01*
X171455331Y-130351754D01*
X171290809Y-130241824D01*
X171157704Y-130186690D01*
X171108005Y-130166104D01*
X171108002Y-130166103D01*
X170913938Y-130127500D01*
X170913935Y-130127500D01*
X170716065Y-130127500D01*
X170716061Y-130127500D01*
X170521997Y-130166103D01*
X170521994Y-130166104D01*
X170339190Y-130241824D01*
X170174673Y-130351751D01*
X170174666Y-130351756D01*
X170034756Y-130491666D01*
X170034751Y-130491673D01*
X169924824Y-130656190D01*
X169849104Y-130838994D01*
X169849103Y-130838997D01*
X169810500Y-131033061D01*
X148509500Y-131033061D01*
X148509500Y-129510166D01*
X148494498Y-129415445D01*
X148450500Y-129329094D01*
X148436326Y-129301276D01*
X148345723Y-129210673D01*
X148231553Y-129152501D01*
X148166836Y-129142251D01*
X148136834Y-129137500D01*
X147773166Y-129137500D01*
X147722850Y-129145469D01*
X147668650Y-129154053D01*
X147668170Y-129151025D01*
X147613444Y-129152585D01*
X147552648Y-129115919D01*
X147521327Y-129052205D01*
X147529425Y-128981671D01*
X147544616Y-128955217D01*
X147601730Y-128878922D01*
X147649868Y-128749860D01*
X147655999Y-128692832D01*
X147656000Y-128692815D01*
X147656000Y-128524000D01*
X147078000Y-128524000D01*
X147069174Y-128521408D01*
X147060068Y-128522718D01*
X147035642Y-128511562D01*
X147009879Y-128503998D01*
X147003854Y-128497044D01*
X146995488Y-128493224D01*
X146980973Y-128470638D01*
X146963386Y-128450342D01*
X146961061Y-128439655D01*
X146957104Y-128433498D01*
X146952000Y-128398000D01*
X146952000Y-128397000D01*
X146951000Y-128397000D01*
X146882879Y-128376998D01*
X146836386Y-128323342D01*
X146825000Y-128271000D01*
X146825000Y-128270000D01*
X147079000Y-128270000D01*
X147656000Y-128270000D01*
X147656000Y-128131454D01*
X162759500Y-128131454D01*
X162759500Y-128312546D01*
X162787829Y-128491409D01*
X162843789Y-128663639D01*
X162926004Y-128824994D01*
X163032447Y-128971501D01*
X163032449Y-128971503D01*
X163032451Y-128971506D01*
X163160493Y-129099548D01*
X163160496Y-129099550D01*
X163160499Y-129099553D01*
X163307006Y-129205996D01*
X163468361Y-129288211D01*
X163640591Y-129344171D01*
X163819454Y-129372500D01*
X163819457Y-129372500D01*
X164000543Y-129372500D01*
X164000546Y-129372500D01*
X164179409Y-129344171D01*
X164351639Y-129288211D01*
X164512994Y-129205996D01*
X164659501Y-129099553D01*
X164787553Y-128971501D01*
X164893996Y-128824994D01*
X164976211Y-128663639D01*
X165032171Y-128491409D01*
X165060500Y-128312546D01*
X165060500Y-128131454D01*
X165032171Y-127952591D01*
X164976211Y-127780361D01*
X164893996Y-127619006D01*
X164787553Y-127472499D01*
X164787550Y-127472496D01*
X164787548Y-127472493D01*
X164659506Y-127344451D01*
X164659503Y-127344449D01*
X164659501Y-127344447D01*
X164512994Y-127238004D01*
X164351639Y-127155789D01*
X164351636Y-127155788D01*
X164351634Y-127155787D01*
X164179412Y-127099830D01*
X164179409Y-127099829D01*
X164000546Y-127071500D01*
X163819454Y-127071500D01*
X163640591Y-127099829D01*
X163640588Y-127099829D01*
X163640587Y-127099830D01*
X163468365Y-127155787D01*
X163468359Y-127155790D01*
X163307002Y-127238006D01*
X163160496Y-127344449D01*
X163160493Y-127344451D01*
X163032451Y-127472493D01*
X163032449Y-127472496D01*
X162926006Y-127619002D01*
X162843790Y-127780359D01*
X162843787Y-127780365D01*
X162800017Y-127915079D01*
X162787829Y-127952591D01*
X162759500Y-128131454D01*
X147656000Y-128131454D01*
X147656000Y-128101184D01*
X147655999Y-128101167D01*
X147649868Y-128044139D01*
X147601731Y-127915079D01*
X147519185Y-127804812D01*
X147427087Y-127735868D01*
X147384540Y-127679032D01*
X147379476Y-127608216D01*
X147413501Y-127545904D01*
X147427087Y-127534132D01*
X147519185Y-127465187D01*
X147601731Y-127354920D01*
X147649868Y-127225860D01*
X147655999Y-127168832D01*
X147656000Y-127168815D01*
X147656000Y-127000000D01*
X147079000Y-127000000D01*
X147079000Y-128270000D01*
X146825000Y-128270000D01*
X146825000Y-126746000D01*
X147079000Y-126746000D01*
X147656000Y-126746000D01*
X147656000Y-126577184D01*
X147655999Y-126577167D01*
X147649868Y-126520139D01*
X147601731Y-126391079D01*
X147519186Y-126280813D01*
X147408920Y-126198268D01*
X147279860Y-126150131D01*
X147222832Y-126144000D01*
X147079000Y-126144000D01*
X147079000Y-126746000D01*
X146825000Y-126746000D01*
X146825000Y-126144000D01*
X146681167Y-126144000D01*
X146624139Y-126150131D01*
X146495079Y-126198268D01*
X146384813Y-126280813D01*
X146302266Y-126391082D01*
X146295320Y-126409705D01*
X146252772Y-126466539D01*
X146186251Y-126491348D01*
X146116877Y-126476255D01*
X146071020Y-126433402D01*
X146063864Y-126422177D01*
X146052175Y-126390837D01*
X145996302Y-126316200D01*
X145993754Y-126312203D01*
X145985140Y-126282467D01*
X145974321Y-126253459D01*
X145974000Y-126244470D01*
X145974000Y-126117872D01*
X145978293Y-126085262D01*
X145978655Y-126083908D01*
X145981500Y-126073293D01*
X145981500Y-125920707D01*
X145942008Y-125773322D01*
X145865715Y-125641179D01*
X145865713Y-125641177D01*
X145865709Y-125641172D01*
X145757827Y-125533290D01*
X145757817Y-125533282D01*
X145625682Y-125456994D01*
X145625680Y-125456993D01*
X145625678Y-125456992D01*
X145478293Y-125417500D01*
X145325707Y-125417500D01*
X145178322Y-125456992D01*
X145178317Y-125456994D01*
X145046182Y-125533282D01*
X145046172Y-125533290D01*
X144938290Y-125641172D01*
X144938282Y-125641182D01*
X144861994Y-125773317D01*
X144861992Y-125773322D01*
X144822500Y-125920707D01*
X144822500Y-125920709D01*
X144822500Y-126073293D01*
X144825707Y-126085262D01*
X144830000Y-126117872D01*
X144830000Y-126244470D01*
X144809998Y-126312591D01*
X144804868Y-126319979D01*
X144751826Y-126390833D01*
X144703640Y-126520027D01*
X144697500Y-126577128D01*
X144697500Y-127168871D01*
X144702872Y-127218834D01*
X144703640Y-127225973D01*
X144723591Y-127279464D01*
X144751825Y-127355163D01*
X144804868Y-127426019D01*
X144829679Y-127492539D01*
X144830000Y-127501528D01*
X144830000Y-127768470D01*
X144809998Y-127836591D01*
X144804868Y-127843979D01*
X144751826Y-127914833D01*
X144703640Y-128044027D01*
X144697500Y-128101128D01*
X144697500Y-128692871D01*
X144699406Y-128710595D01*
X144703640Y-128749973D01*
X144723273Y-128802612D01*
X144751826Y-128879166D01*
X144751827Y-128879167D01*
X144834455Y-128989543D01*
X144834459Y-128989546D01*
X144843009Y-128995947D01*
X144845791Y-128999663D01*
X144850012Y-129001591D01*
X144866863Y-129027812D01*
X144885556Y-129052782D01*
X144886588Y-129058504D01*
X144888396Y-129061317D01*
X144893500Y-129096815D01*
X144893500Y-129300806D01*
X144873498Y-129368927D01*
X144819842Y-129415420D01*
X144749568Y-129425524D01*
X144684988Y-129396030D01*
X144655233Y-129358009D01*
X144626326Y-129301277D01*
X144626324Y-129301274D01*
X144535723Y-129210673D01*
X144421553Y-129152501D01*
X144356836Y-129142251D01*
X144326834Y-129137500D01*
X143963166Y-129137500D01*
X143937266Y-129141602D01*
X143868446Y-129152501D01*
X143754276Y-129210673D01*
X143663673Y-129301276D01*
X143605501Y-129415446D01*
X143590500Y-129510167D01*
X143590500Y-131223832D01*
X143605501Y-131318553D01*
X143605501Y-131318554D01*
X143605502Y-131318555D01*
X143622798Y-131352501D01*
X143641038Y-131388297D01*
X143654142Y-131458073D01*
X143627442Y-131523858D01*
X143569415Y-131564765D01*
X143528771Y-131571500D01*
X127591213Y-131571500D01*
X127523092Y-131551498D01*
X127502118Y-131534595D01*
X127321404Y-131353881D01*
X127287378Y-131291569D01*
X127284499Y-131264786D01*
X127284499Y-129339213D01*
X127304501Y-129271092D01*
X127321404Y-129250118D01*
X131566117Y-125005405D01*
X131628429Y-124971379D01*
X131655212Y-124968500D01*
X170096787Y-124968500D01*
X170164908Y-124988502D01*
X170185882Y-125005405D01*
X172936595Y-127756118D01*
X172970621Y-127818430D01*
X172973500Y-127845213D01*
X172973500Y-130118569D01*
X172953498Y-130186690D01*
X172899842Y-130233183D01*
X172895720Y-130234977D01*
X172879192Y-130241823D01*
X172879191Y-130241823D01*
X172714673Y-130351751D01*
X172714666Y-130351756D01*
X172574756Y-130491666D01*
X172574751Y-130491673D01*
X172464824Y-130656190D01*
X172389104Y-130838994D01*
X172389103Y-130838997D01*
X172350500Y-131033061D01*
X172350500Y-131230938D01*
X172389103Y-131425002D01*
X172389104Y-131425005D01*
X172460043Y-131596266D01*
X172464824Y-131607809D01*
X172574754Y-131772331D01*
X172714669Y-131912246D01*
X172879191Y-132022176D01*
X173061998Y-132097897D01*
X173256065Y-132136500D01*
X173453935Y-132136500D01*
X173648002Y-132097897D01*
X173830809Y-132022176D01*
X173995331Y-131912246D01*
X174135246Y-131772331D01*
X174245176Y-131607809D01*
X174320897Y-131425002D01*
X174359500Y-131230935D01*
X174359500Y-131033065D01*
X174320897Y-130838998D01*
X174245176Y-130656191D01*
X174135246Y-130491669D01*
X173995331Y-130351754D01*
X173830809Y-130241824D01*
X173830807Y-130241823D01*
X173814280Y-130234977D01*
X173759000Y-130190428D01*
X173736580Y-130123064D01*
X173736500Y-130118569D01*
X173736500Y-127584776D01*
X173736500Y-127584775D01*
X173726693Y-127548175D01*
X173710502Y-127487747D01*
X173697476Y-127465186D01*
X173660278Y-127400756D01*
X173660270Y-127400746D01*
X170541253Y-124281729D01*
X170541243Y-124281721D01*
X170454258Y-124231500D01*
X170442792Y-124228427D01*
X170357225Y-124205500D01*
X170357223Y-124205500D01*
X131502959Y-124205500D01*
X131502943Y-124205499D01*
X131495225Y-124205499D01*
X131394775Y-124205499D01*
X131346261Y-124218498D01*
X131297745Y-124231498D01*
X131260979Y-124252726D01*
X131210756Y-124281721D01*
X131210751Y-124281725D01*
X131175238Y-124317239D01*
X131139724Y-124352753D01*
X131139722Y-124352755D01*
X126781881Y-128710595D01*
X126719569Y-128744621D01*
X126692786Y-128747500D01*
X124631753Y-128747500D01*
X124631729Y-128747502D01*
X124571660Y-128753959D01*
X124571658Y-128753959D01*
X124435733Y-128804657D01*
X124319596Y-128891596D01*
X124232657Y-129007734D01*
X124181962Y-129143650D01*
X124181960Y-129143658D01*
X124175500Y-129203737D01*
X120558500Y-129203737D01*
X120558500Y-120019658D01*
X124175500Y-120019658D01*
X124175500Y-120264342D01*
X124199561Y-120416254D01*
X124213778Y-120506018D01*
X124289386Y-120738716D01*
X124289388Y-120738721D01*
X124357275Y-120871956D01*
X124400474Y-120956739D01*
X124544295Y-121154691D01*
X124717308Y-121327704D01*
X124823270Y-121404690D01*
X124915264Y-121471528D01*
X125133279Y-121582612D01*
X125365981Y-121658221D01*
X125365982Y-121658221D01*
X125365987Y-121658223D01*
X125607658Y-121696500D01*
X125607661Y-121696500D01*
X125852339Y-121696500D01*
X125852342Y-121696500D01*
X126094013Y-121658223D01*
X126326721Y-121582612D01*
X126446786Y-121521434D01*
X126516563Y-121508331D01*
X126582347Y-121535031D01*
X126593084Y-121544607D01*
X128849313Y-123800835D01*
X128849334Y-123800858D01*
X128924746Y-123876270D01*
X128924751Y-123876274D01*
X128924753Y-123876276D01*
X128924754Y-123876277D01*
X128924756Y-123876278D01*
X129011741Y-123926499D01*
X129011743Y-123926499D01*
X129011746Y-123926501D01*
X129108775Y-123952500D01*
X129108777Y-123952500D01*
X170103223Y-123952500D01*
X170103225Y-123952500D01*
X170200254Y-123926501D01*
X170200257Y-123926499D01*
X170200258Y-123926499D01*
X170243750Y-123901388D01*
X170287247Y-123876276D01*
X170358276Y-123805247D01*
X172807502Y-121356021D01*
X172869814Y-121321995D01*
X172940629Y-121327060D01*
X172997465Y-121369607D01*
X173022276Y-121436127D01*
X173007185Y-121505501D01*
X172998534Y-121519176D01*
X172926005Y-121619004D01*
X172843790Y-121780359D01*
X172843787Y-121780365D01*
X172787830Y-121952587D01*
X172787829Y-121952591D01*
X172759500Y-122131454D01*
X172759500Y-122312546D01*
X172787829Y-122491409D01*
X172787830Y-122491412D01*
X172842849Y-122660748D01*
X172843789Y-122663639D01*
X172926004Y-122824994D01*
X173032447Y-122971501D01*
X173032449Y-122971503D01*
X173032451Y-122971506D01*
X173160493Y-123099548D01*
X173160496Y-123099550D01*
X173160499Y-123099553D01*
X173307006Y-123205996D01*
X173468361Y-123288211D01*
X173640591Y-123344171D01*
X173819454Y-123372500D01*
X173819457Y-123372500D01*
X174000543Y-123372500D01*
X174000546Y-123372500D01*
X174179409Y-123344171D01*
X174351639Y-123288211D01*
X174512994Y-123205996D01*
X174659501Y-123099553D01*
X174787553Y-122971501D01*
X174893996Y-122824994D01*
X174976211Y-122663639D01*
X175032171Y-122491409D01*
X175060500Y-122312546D01*
X175060500Y-122131454D01*
X175032171Y-121952591D01*
X174976211Y-121780361D01*
X174893996Y-121619006D01*
X174787553Y-121472499D01*
X174787550Y-121472496D01*
X174787548Y-121472493D01*
X174659506Y-121344451D01*
X174659503Y-121344449D01*
X174659501Y-121344447D01*
X174512994Y-121238004D01*
X174351639Y-121155789D01*
X174351636Y-121155788D01*
X174351634Y-121155787D01*
X174179412Y-121099830D01*
X174179409Y-121099829D01*
X174000546Y-121071500D01*
X173819454Y-121071500D01*
X173640591Y-121099829D01*
X173640588Y-121099829D01*
X173640587Y-121099830D01*
X173468365Y-121155787D01*
X173468359Y-121155790D01*
X173307004Y-121238005D01*
X173207176Y-121310534D01*
X173140309Y-121334392D01*
X173071157Y-121318311D01*
X173021677Y-121267397D01*
X173007578Y-121197814D01*
X173033337Y-121131655D01*
X173044013Y-121119509D01*
X173660276Y-120503247D01*
X173686110Y-120458500D01*
X173710501Y-120416254D01*
X173736500Y-120319225D01*
X173736500Y-117785429D01*
X173756502Y-117717308D01*
X173810158Y-117670815D01*
X173814218Y-117669048D01*
X173830809Y-117662176D01*
X173995331Y-117552246D01*
X173995342Y-117552234D01*
X174000110Y-117548323D01*
X174001831Y-117550420D01*
X174053790Y-117521995D01*
X174124610Y-117527003D01*
X174181480Y-117569504D01*
X174202379Y-117612483D01*
X174248842Y-117785887D01*
X174336656Y-117997888D01*
X174336657Y-117997889D01*
X174336662Y-117997900D01*
X174451386Y-118196608D01*
X174451391Y-118196615D01*
X174591073Y-118378652D01*
X174591092Y-118378673D01*
X174753326Y-118540907D01*
X174753347Y-118540926D01*
X174935384Y-118680608D01*
X174935391Y-118680613D01*
X175134099Y-118795337D01*
X175134103Y-118795338D01*
X175134112Y-118795344D01*
X175346113Y-118883158D01*
X175567762Y-118942548D01*
X175567766Y-118942548D01*
X175567768Y-118942549D01*
X175626398Y-118950267D01*
X175795266Y-118972500D01*
X175795273Y-118972500D01*
X176024727Y-118972500D01*
X176024734Y-118972500D01*
X176230345Y-118945430D01*
X176252231Y-118942549D01*
X176252231Y-118942548D01*
X176252238Y-118942548D01*
X176473887Y-118883158D01*
X176685888Y-118795344D01*
X176884612Y-118680611D01*
X177066661Y-118540919D01*
X177228919Y-118378661D01*
X177368611Y-118196612D01*
X177483344Y-117997888D01*
X177571158Y-117785887D01*
X177630548Y-117564238D01*
X177660500Y-117336734D01*
X177660500Y-117107266D01*
X177631070Y-116883724D01*
X177630549Y-116879768D01*
X177630548Y-116879766D01*
X177630548Y-116879762D01*
X177571158Y-116658113D01*
X177483344Y-116446112D01*
X177483338Y-116446103D01*
X177483337Y-116446099D01*
X177368613Y-116247391D01*
X177368608Y-116247384D01*
X177228926Y-116065347D01*
X177228907Y-116065326D01*
X177066673Y-115903092D01*
X177066652Y-115903073D01*
X176884615Y-115763391D01*
X176884608Y-115763386D01*
X176685900Y-115648662D01*
X176685892Y-115648658D01*
X176685888Y-115648656D01*
X176473887Y-115560842D01*
X176252238Y-115501452D01*
X176252231Y-115501450D01*
X176024736Y-115471500D01*
X176024734Y-115471500D01*
X175795266Y-115471500D01*
X175795263Y-115471500D01*
X175567768Y-115501450D01*
X175346113Y-115560842D01*
X175134110Y-115648657D01*
X175134099Y-115648662D01*
X174935391Y-115763386D01*
X174935384Y-115763391D01*
X174753347Y-115903073D01*
X174753326Y-115903092D01*
X174591092Y-116065326D01*
X174591073Y-116065347D01*
X174451391Y-116247384D01*
X174441995Y-116263658D01*
X174390610Y-116312649D01*
X174320896Y-116326082D01*
X174254986Y-116299692D01*
X174228113Y-116270655D01*
X174221846Y-116261276D01*
X174135246Y-116131669D01*
X173995331Y-115991754D01*
X173830809Y-115881824D01*
X173648005Y-115806104D01*
X173648002Y-115806103D01*
X173453938Y-115767500D01*
X173453935Y-115767500D01*
X173256065Y-115767500D01*
X173256061Y-115767500D01*
X173061997Y-115806103D01*
X173061994Y-115806104D01*
X172879190Y-115881824D01*
X172714673Y-115991751D01*
X172714666Y-115991756D01*
X172574756Y-116131666D01*
X172574751Y-116131673D01*
X172464824Y-116296190D01*
X172389104Y-116478994D01*
X172389103Y-116478997D01*
X172350500Y-116673061D01*
X172350500Y-116870938D01*
X172389103Y-117065002D01*
X172389104Y-117065005D01*
X172453512Y-117220499D01*
X172464824Y-117247809D01*
X172574754Y-117412331D01*
X172714669Y-117552246D01*
X172879191Y-117662176D01*
X172895716Y-117669020D01*
X172950996Y-117713564D01*
X172973420Y-117780926D01*
X172973500Y-117785429D01*
X172973500Y-118475732D01*
X172953498Y-118543853D01*
X172899842Y-118590346D01*
X172829568Y-118600450D01*
X172764988Y-118570956D01*
X172758406Y-118564829D01*
X172725331Y-118531754D01*
X172560809Y-118421824D01*
X172456604Y-118378661D01*
X172378005Y-118346104D01*
X172378002Y-118346103D01*
X172183938Y-118307500D01*
X172183935Y-118307500D01*
X171986065Y-118307500D01*
X171986061Y-118307500D01*
X171791997Y-118346103D01*
X171791994Y-118346104D01*
X171609190Y-118421824D01*
X171444673Y-118531751D01*
X171444666Y-118531756D01*
X171304756Y-118671666D01*
X171304751Y-118671673D01*
X171194824Y-118836190D01*
X171119104Y-119018994D01*
X171119103Y-119018997D01*
X171080500Y-119213061D01*
X171080500Y-119410938D01*
X171083340Y-119425213D01*
X171119103Y-119605002D01*
X171194824Y-119787809D01*
X171304754Y-119952331D01*
X171444669Y-120092246D01*
X171609191Y-120202176D01*
X171791998Y-120277897D01*
X171986065Y-120316500D01*
X172183935Y-120316500D01*
X172378002Y-120277897D01*
X172524408Y-120217253D01*
X172594994Y-120209665D01*
X172658481Y-120241444D01*
X172694709Y-120302502D01*
X172692175Y-120373453D01*
X172661718Y-120422758D01*
X169931882Y-123152595D01*
X169869570Y-123186621D01*
X169842787Y-123189500D01*
X129369212Y-123189500D01*
X129301091Y-123169498D01*
X129280117Y-123152595D01*
X127132607Y-121005084D01*
X127098581Y-120942772D01*
X127103646Y-120871956D01*
X127109435Y-120858786D01*
X127170612Y-120738721D01*
X127246223Y-120506013D01*
X127284500Y-120264342D01*
X127284500Y-120019658D01*
X127246223Y-119777987D01*
X127170612Y-119545279D01*
X127109434Y-119425212D01*
X127096331Y-119355436D01*
X127123031Y-119289651D01*
X127132598Y-119278924D01*
X127756119Y-118655404D01*
X127818431Y-118621379D01*
X127845214Y-118618500D01*
X143823873Y-118618500D01*
X143891994Y-118638502D01*
X143938487Y-118692158D01*
X143948591Y-118762432D01*
X143919097Y-118827012D01*
X143876038Y-118855561D01*
X143877281Y-118858000D01*
X143754276Y-118920673D01*
X143663673Y-119011276D01*
X143605501Y-119125446D01*
X143602130Y-119146734D01*
X143590500Y-119220166D01*
X143590500Y-120933834D01*
X143591916Y-120942772D01*
X143605501Y-121028553D01*
X143663673Y-121142723D01*
X143754276Y-121233326D01*
X143777651Y-121245236D01*
X143868445Y-121291498D01*
X143963166Y-121306500D01*
X143963168Y-121306500D01*
X144326832Y-121306500D01*
X144326834Y-121306500D01*
X144421555Y-121291498D01*
X144535723Y-121233326D01*
X144626326Y-121142723D01*
X144667733Y-121061455D01*
X144716481Y-121009842D01*
X144785396Y-120992776D01*
X144852598Y-121015677D01*
X144882054Y-121044762D01*
X144887810Y-121052712D01*
X144933674Y-121142723D01*
X145003677Y-121212726D01*
X145009554Y-121220842D01*
X145018214Y-121245236D01*
X145030621Y-121267957D01*
X145032506Y-121285495D01*
X145033306Y-121287748D01*
X145032923Y-121289379D01*
X145033500Y-121294740D01*
X145033500Y-121451700D01*
X145013498Y-121519821D01*
X144982324Y-121553078D01*
X144953988Y-121573991D01*
X144872631Y-121684225D01*
X144872628Y-121684232D01*
X144827379Y-121813545D01*
X144824500Y-121844248D01*
X144824500Y-122503740D01*
X144824501Y-122503755D01*
X144827379Y-122534452D01*
X144827380Y-122534455D01*
X144872628Y-122663767D01*
X144872631Y-122663774D01*
X144953989Y-122774010D01*
X145064225Y-122855368D01*
X145064232Y-122855371D01*
X145193546Y-122900620D01*
X145193549Y-122900621D01*
X145224251Y-122903500D01*
X145733748Y-122903499D01*
X145764451Y-122900621D01*
X145893773Y-122855369D01*
X146004010Y-122774010D01*
X146085369Y-122663773D01*
X146130621Y-122534451D01*
X146133500Y-122503749D01*
X146133499Y-121844252D01*
X146130621Y-121813549D01*
X146086427Y-121687251D01*
X146085371Y-121684232D01*
X146085368Y-121684225D01*
X146004010Y-121573989D01*
X145893776Y-121492633D01*
X145893775Y-121492632D01*
X145893773Y-121492631D01*
X145880882Y-121488120D01*
X145861586Y-121474279D01*
X145839988Y-121464416D01*
X145833278Y-121453976D01*
X145823191Y-121446741D01*
X145814439Y-121424662D01*
X145801604Y-121404690D01*
X145798803Y-121385215D01*
X145797030Y-121380740D01*
X145796500Y-121369192D01*
X145796500Y-121294740D01*
X145816502Y-121226619D01*
X145833405Y-121205645D01*
X145896324Y-121142725D01*
X145896326Y-121142723D01*
X145937733Y-121061457D01*
X145986481Y-121009842D01*
X146055396Y-120992776D01*
X146122598Y-121015677D01*
X146162267Y-121061457D01*
X146203673Y-121142723D01*
X146294276Y-121233326D01*
X146317651Y-121245236D01*
X146408445Y-121291498D01*
X146503166Y-121306500D01*
X146503168Y-121306500D01*
X146583517Y-121306500D01*
X146651638Y-121326502D01*
X146698131Y-121380158D01*
X146708235Y-121450432D01*
X146678741Y-121515012D01*
X146658338Y-121533879D01*
X146603989Y-121573989D01*
X146522631Y-121684225D01*
X146522628Y-121684232D01*
X146477379Y-121813545D01*
X146474500Y-121844248D01*
X146474500Y-122503740D01*
X146474501Y-122503755D01*
X146477379Y-122534452D01*
X146477380Y-122534455D01*
X146522628Y-122663767D01*
X146522631Y-122663774D01*
X146603989Y-122774010D01*
X146714225Y-122855368D01*
X146714232Y-122855371D01*
X146843546Y-122900620D01*
X146843549Y-122900621D01*
X146874251Y-122903500D01*
X147383748Y-122903499D01*
X147414451Y-122900621D01*
X147543773Y-122855369D01*
X147654010Y-122774010D01*
X147726621Y-122675625D01*
X147783166Y-122632694D01*
X147853945Y-122627147D01*
X147916487Y-122660748D01*
X147929379Y-122675626D01*
X148001989Y-122774010D01*
X148112225Y-122855368D01*
X148112232Y-122855371D01*
X148241546Y-122900620D01*
X148241549Y-122900621D01*
X148272251Y-122903500D01*
X148781748Y-122903499D01*
X148812451Y-122900621D01*
X148941773Y-122855369D01*
X149052010Y-122774010D01*
X149133369Y-122663773D01*
X149178621Y-122534451D01*
X149181500Y-122503749D01*
X149181500Y-122503688D01*
X149523000Y-122503688D01*
X149525876Y-122534360D01*
X149571076Y-122663534D01*
X149652347Y-122773652D01*
X149762465Y-122854923D01*
X149891640Y-122900123D01*
X149891638Y-122900123D01*
X149922311Y-122902999D01*
X149922317Y-122903000D01*
X150050000Y-122903000D01*
X150304000Y-122903000D01*
X150431683Y-122903000D01*
X150431688Y-122902999D01*
X150462360Y-122900123D01*
X150591534Y-122854923D01*
X150701652Y-122773652D01*
X150782923Y-122663534D01*
X150828123Y-122534360D01*
X150830999Y-122503688D01*
X150831000Y-122503682D01*
X150831000Y-122301000D01*
X150304000Y-122301000D01*
X150304000Y-122903000D01*
X150050000Y-122903000D01*
X150050000Y-122301000D01*
X149523000Y-122301000D01*
X149523000Y-122503688D01*
X149181500Y-122503688D01*
X149181499Y-122131457D01*
X149181499Y-121844311D01*
X149523000Y-121844311D01*
X149523000Y-122047000D01*
X150050000Y-122047000D01*
X150304000Y-122047000D01*
X150831000Y-122047000D01*
X150831000Y-121844317D01*
X150830999Y-121844311D01*
X150828123Y-121813639D01*
X150782923Y-121684465D01*
X150701652Y-121574347D01*
X150591534Y-121493076D01*
X150462359Y-121447876D01*
X150462361Y-121447876D01*
X150431688Y-121445000D01*
X150304000Y-121445000D01*
X150304000Y-122047000D01*
X150050000Y-122047000D01*
X150050000Y-121445000D01*
X149922311Y-121445000D01*
X149891639Y-121447876D01*
X149762465Y-121493076D01*
X149652347Y-121574347D01*
X149571076Y-121684465D01*
X149525876Y-121813639D01*
X149523000Y-121844311D01*
X149181499Y-121844311D01*
X149181499Y-121844259D01*
X149181498Y-121844251D01*
X149178621Y-121813549D01*
X149134427Y-121687251D01*
X149133371Y-121684232D01*
X149133368Y-121684225D01*
X149052010Y-121573989D01*
X148941774Y-121492631D01*
X148941767Y-121492628D01*
X148812453Y-121447379D01*
X148812455Y-121447379D01*
X148781751Y-121444500D01*
X148438031Y-121444500D01*
X148369910Y-121424498D01*
X148323417Y-121370842D01*
X148313313Y-121300568D01*
X148342807Y-121235988D01*
X148348936Y-121229404D01*
X148435917Y-121142423D01*
X148494015Y-121028400D01*
X148509000Y-120933791D01*
X148509000Y-120204000D01*
X148082000Y-120204000D01*
X148082000Y-121306000D01*
X148098685Y-121322685D01*
X148132711Y-121384997D01*
X148127646Y-121455812D01*
X148085099Y-121512648D01*
X148084412Y-121513159D01*
X148001990Y-121573989D01*
X147929379Y-121672374D01*
X147872834Y-121715306D01*
X147802054Y-121720852D01*
X147739512Y-121687251D01*
X147726621Y-121672374D01*
X147716177Y-121658223D01*
X147654010Y-121573990D01*
X147599662Y-121533879D01*
X147583982Y-121522306D01*
X147583979Y-121522304D01*
X147543773Y-121492631D01*
X147466649Y-121465644D01*
X147466643Y-121465641D01*
X147414453Y-121447379D01*
X147414455Y-121447379D01*
X147383751Y-121444500D01*
X147168739Y-121444500D01*
X147155314Y-121440558D01*
X147141356Y-121441488D01*
X147121923Y-121430753D01*
X147100618Y-121424498D01*
X147091455Y-121413924D01*
X147079210Y-121407160D01*
X147068664Y-121387621D01*
X147054125Y-121370842D01*
X147052134Y-121356994D01*
X147045489Y-121344683D01*
X147047180Y-121322544D01*
X147044021Y-121300568D01*
X147049946Y-121286362D01*
X147050899Y-121273892D01*
X147062882Y-121255345D01*
X147068240Y-121242500D01*
X147074835Y-121233778D01*
X147075723Y-121233326D01*
X147166326Y-121142723D01*
X147213070Y-121050982D01*
X147219781Y-121042109D01*
X147239719Y-121027334D01*
X147256760Y-121009291D01*
X147267738Y-121006572D01*
X147276824Y-120999840D01*
X147301585Y-120998190D01*
X147325675Y-120992225D01*
X147336379Y-120995872D01*
X147347663Y-120995121D01*
X147369385Y-121007119D01*
X147392877Y-121015125D01*
X147401139Y-121024660D01*
X147409809Y-121029449D01*
X147417274Y-121043280D01*
X147432547Y-121060906D01*
X147474082Y-121142423D01*
X147474084Y-121142426D01*
X147564573Y-121232915D01*
X147564575Y-121232916D01*
X147571018Y-121236199D01*
X147687418Y-121292412D01*
X147773193Y-121305998D01*
X147773212Y-121305999D01*
X147828000Y-121305998D01*
X147828000Y-119950000D01*
X148082000Y-119950000D01*
X148508999Y-119950000D01*
X148508999Y-119220207D01*
X148494016Y-119125602D01*
X148435917Y-119011575D01*
X148345424Y-118921082D01*
X148231400Y-118862984D01*
X148136792Y-118848000D01*
X148082000Y-118848000D01*
X148082000Y-119950000D01*
X147828000Y-119950000D01*
X147828000Y-118848000D01*
X147827999Y-118847999D01*
X147773207Y-118848000D01*
X147678602Y-118862983D01*
X147564575Y-118921082D01*
X147474084Y-119011573D01*
X147474080Y-119011578D01*
X147432546Y-119093094D01*
X147383798Y-119144709D01*
X147314883Y-119161774D01*
X147247681Y-119138873D01*
X147218193Y-119109743D01*
X147212458Y-119101815D01*
X147166326Y-119011277D01*
X147096301Y-118941252D01*
X147090413Y-118933113D01*
X147081772Y-118908738D01*
X147069379Y-118886043D01*
X147067487Y-118868442D01*
X147066691Y-118866197D01*
X147067071Y-118864576D01*
X147066500Y-118859260D01*
X147066500Y-118733792D01*
X148947001Y-118733792D01*
X148961983Y-118828397D01*
X149020082Y-118942424D01*
X149110575Y-119032917D01*
X149224599Y-119091015D01*
X149319208Y-119105999D01*
X149811500Y-119105999D01*
X150065500Y-119105999D01*
X150557792Y-119105999D01*
X150652397Y-119091016D01*
X150766424Y-119032917D01*
X150856917Y-118942424D01*
X150915015Y-118828400D01*
X150930000Y-118733791D01*
X150930000Y-118679000D01*
X150065500Y-118679000D01*
X150065500Y-119105999D01*
X149811500Y-119105999D01*
X149811500Y-118679000D01*
X148947001Y-118679000D01*
X148947001Y-118733792D01*
X147066500Y-118733792D01*
X147066500Y-118574213D01*
X147086502Y-118506092D01*
X147103405Y-118485118D01*
X147568118Y-118020405D01*
X147630430Y-117986379D01*
X147657213Y-117983500D01*
X148905203Y-117983500D01*
X148973324Y-118003502D01*
X149019817Y-118057158D01*
X149029921Y-118127432D01*
X149017470Y-118166702D01*
X148961985Y-118275597D01*
X148947000Y-118370208D01*
X148947000Y-118425000D01*
X150929999Y-118425000D01*
X150929999Y-118370207D01*
X150914406Y-118271748D01*
X150923506Y-118201337D01*
X150969229Y-118147024D01*
X151037058Y-118126052D01*
X151096057Y-118139771D01*
X151099445Y-118141498D01*
X151194166Y-118156500D01*
X151194168Y-118156500D01*
X152432832Y-118156500D01*
X152432834Y-118156500D01*
X152527555Y-118141498D01*
X152641723Y-118083326D01*
X152732326Y-117992723D01*
X152790498Y-117878555D01*
X152805500Y-117783834D01*
X152805500Y-117420166D01*
X152790498Y-117325445D01*
X152750272Y-117246498D01*
X152732326Y-117211276D01*
X152641723Y-117120673D01*
X152615404Y-117107263D01*
X160159500Y-117107263D01*
X160159500Y-117336736D01*
X160189450Y-117564231D01*
X160189452Y-117564238D01*
X160248842Y-117785887D01*
X160336656Y-117997888D01*
X160336657Y-117997889D01*
X160336662Y-117997900D01*
X160451386Y-118196608D01*
X160451391Y-118196615D01*
X160591073Y-118378652D01*
X160591092Y-118378673D01*
X160753326Y-118540907D01*
X160753347Y-118540926D01*
X160935384Y-118680608D01*
X160935391Y-118680613D01*
X161134099Y-118795337D01*
X161134103Y-118795338D01*
X161134112Y-118795344D01*
X161346113Y-118883158D01*
X161567762Y-118942548D01*
X161567766Y-118942548D01*
X161567768Y-118942549D01*
X161626398Y-118950267D01*
X161795266Y-118972500D01*
X161795273Y-118972500D01*
X162024727Y-118972500D01*
X162024734Y-118972500D01*
X162230345Y-118945430D01*
X162252231Y-118942549D01*
X162252231Y-118942548D01*
X162252238Y-118942548D01*
X162473887Y-118883158D01*
X162685888Y-118795344D01*
X162884612Y-118680611D01*
X163066661Y-118540919D01*
X163228919Y-118378661D01*
X163368611Y-118196612D01*
X163483344Y-117997888D01*
X163571158Y-117785887D01*
X163630548Y-117564238D01*
X163660500Y-117336734D01*
X163660500Y-117107266D01*
X163631070Y-116883724D01*
X163630549Y-116879768D01*
X163630548Y-116879766D01*
X163630548Y-116879762D01*
X163571158Y-116658113D01*
X163483344Y-116446112D01*
X163483338Y-116446103D01*
X163483337Y-116446099D01*
X163368613Y-116247391D01*
X163368608Y-116247384D01*
X163228926Y-116065347D01*
X163228907Y-116065326D01*
X163066673Y-115903092D01*
X163066652Y-115903073D01*
X162884615Y-115763391D01*
X162884608Y-115763386D01*
X162685900Y-115648662D01*
X162685892Y-115648658D01*
X162685888Y-115648656D01*
X162473887Y-115560842D01*
X162252238Y-115501452D01*
X162252231Y-115501450D01*
X162024736Y-115471500D01*
X162024734Y-115471500D01*
X161795266Y-115471500D01*
X161795263Y-115471500D01*
X161567768Y-115501450D01*
X161346113Y-115560842D01*
X161134110Y-115648657D01*
X161134099Y-115648662D01*
X160935391Y-115763386D01*
X160935384Y-115763391D01*
X160753347Y-115903073D01*
X160753326Y-115903092D01*
X160591092Y-116065326D01*
X160591073Y-116065347D01*
X160451391Y-116247384D01*
X160451386Y-116247391D01*
X160336662Y-116446099D01*
X160336657Y-116446110D01*
X160336656Y-116446112D01*
X160286896Y-116566243D01*
X160248842Y-116658113D01*
X160189450Y-116879768D01*
X160159500Y-117107263D01*
X152615404Y-117107263D01*
X152527553Y-117062501D01*
X152462836Y-117052251D01*
X152432834Y-117047500D01*
X152432832Y-117047500D01*
X151721409Y-117047500D01*
X151653288Y-117027498D01*
X151606795Y-116973842D01*
X151596691Y-116903568D01*
X151602134Y-116883724D01*
X151601870Y-116883654D01*
X151604006Y-116875680D01*
X151604008Y-116875678D01*
X151643500Y-116728293D01*
X151643500Y-116575707D01*
X151604008Y-116428322D01*
X151573479Y-116375445D01*
X151527717Y-116296182D01*
X151527709Y-116296172D01*
X151419827Y-116188290D01*
X151419817Y-116188282D01*
X151287682Y-116111994D01*
X151287680Y-116111993D01*
X151287678Y-116111992D01*
X151140293Y-116072500D01*
X150987707Y-116072500D01*
X150987706Y-116072500D01*
X150975738Y-116075707D01*
X150943128Y-116080000D01*
X149863194Y-116080000D01*
X149813905Y-116093207D01*
X149781295Y-116097500D01*
X149319166Y-116097500D01*
X149293266Y-116101602D01*
X149224446Y-116112501D01*
X149110276Y-116170673D01*
X149019673Y-116261276D01*
X148961501Y-116375446D01*
X148946500Y-116470167D01*
X148946500Y-116833832D01*
X148961501Y-116928553D01*
X149016909Y-117037297D01*
X149030013Y-117107074D01*
X149003313Y-117172859D01*
X148945285Y-117213765D01*
X148904642Y-117220500D01*
X147504959Y-117220500D01*
X147504943Y-117220499D01*
X147497225Y-117220499D01*
X147396775Y-117220499D01*
X147348261Y-117233498D01*
X147299745Y-117246498D01*
X147212756Y-117296721D01*
X147212750Y-117296726D01*
X146987482Y-117521995D01*
X146450753Y-118058724D01*
X146426151Y-118083326D01*
X146379725Y-118129751D01*
X146379721Y-118129756D01*
X146329500Y-118216741D01*
X146329499Y-118216746D01*
X146305182Y-118307500D01*
X146303500Y-118313776D01*
X146303500Y-118859260D01*
X146283498Y-118927381D01*
X146279554Y-118933158D01*
X146273677Y-118941273D01*
X146203674Y-119011277D01*
X146157812Y-119101284D01*
X146152054Y-119109237D01*
X146131425Y-119125196D01*
X146113518Y-119144157D01*
X146103811Y-119146560D01*
X146095901Y-119152681D01*
X146069917Y-119154954D01*
X146044604Y-119161223D01*
X146035138Y-119157997D01*
X146025175Y-119158869D01*
X146002087Y-119146734D01*
X145977402Y-119138322D01*
X145970142Y-119129944D01*
X145962330Y-119125838D01*
X145954283Y-119111641D01*
X145937733Y-119092542D01*
X145896326Y-119011277D01*
X145896324Y-119011274D01*
X145833405Y-118948355D01*
X145799379Y-118886043D01*
X145796500Y-118859260D01*
X145796500Y-118694776D01*
X145796500Y-118694775D01*
X145770501Y-118597746D01*
X145770499Y-118597743D01*
X145770499Y-118597741D01*
X145720278Y-118510756D01*
X145720270Y-118510746D01*
X145644863Y-118435339D01*
X145644840Y-118435318D01*
X145141250Y-117931727D01*
X145141249Y-117931726D01*
X145141247Y-117931724D01*
X145098901Y-117907276D01*
X145084018Y-117898683D01*
X145054258Y-117881501D01*
X145054255Y-117881500D01*
X145054254Y-117881499D01*
X145054252Y-117881498D01*
X145054251Y-117881498D01*
X145028253Y-117874532D01*
X144957225Y-117855500D01*
X127685225Y-117855500D01*
X127584775Y-117855500D01*
X127541989Y-117866964D01*
X127487742Y-117881499D01*
X127400756Y-117931721D01*
X127400750Y-117931726D01*
X126593083Y-118739392D01*
X126530771Y-118773417D01*
X126459955Y-118768352D01*
X126446786Y-118762563D01*
X126326728Y-118701391D01*
X126326716Y-118701386D01*
X126094016Y-118625778D01*
X126094020Y-118625778D01*
X126048068Y-118618500D01*
X125852342Y-118587500D01*
X125607658Y-118587500D01*
X125393755Y-118621379D01*
X125365981Y-118625778D01*
X125133283Y-118701386D01*
X125133277Y-118701389D01*
X124915260Y-118812474D01*
X124717308Y-118956295D01*
X124544295Y-119129308D01*
X124400474Y-119327260D01*
X124289389Y-119545277D01*
X124289386Y-119545283D01*
X124213778Y-119777981D01*
X124213777Y-119777986D01*
X124213777Y-119777987D01*
X124175500Y-120019658D01*
X120558500Y-120019658D01*
X120558500Y-113963737D01*
X124175500Y-113963737D01*
X124175500Y-116160246D01*
X124175502Y-116160270D01*
X124181959Y-116220339D01*
X124181959Y-116220341D01*
X124232657Y-116356266D01*
X124232658Y-116356267D01*
X124319596Y-116472404D01*
X124435733Y-116559342D01*
X124571658Y-116610040D01*
X124631745Y-116616500D01*
X126692785Y-116616499D01*
X126760906Y-116636501D01*
X126781880Y-116653404D01*
X127273746Y-117145270D01*
X127273751Y-117145274D01*
X127273753Y-117145276D01*
X127360747Y-117195502D01*
X127457775Y-117221501D01*
X127457777Y-117221501D01*
X127565943Y-117221501D01*
X127565959Y-117221500D01*
X146227223Y-117221500D01*
X146227225Y-117221500D01*
X146324254Y-117195501D01*
X146324257Y-117195499D01*
X146324258Y-117195499D01*
X146367750Y-117170388D01*
X146411247Y-117145276D01*
X146482276Y-117074247D01*
X146499985Y-117056538D01*
X146499991Y-117056530D01*
X146908871Y-116647649D01*
X146908881Y-116647642D01*
X146990270Y-116566253D01*
X146990276Y-116566247D01*
X147040501Y-116479254D01*
X147066500Y-116382225D01*
X147066500Y-116344740D01*
X147086502Y-116276619D01*
X147090446Y-116270842D01*
X147096322Y-116262726D01*
X147166326Y-116192723D01*
X147212189Y-116102712D01*
X147217946Y-116094762D01*
X147238572Y-116078804D01*
X147256481Y-116059842D01*
X147266188Y-116057438D01*
X147274099Y-116051318D01*
X147300082Y-116049044D01*
X147325396Y-116042776D01*
X147334861Y-116046001D01*
X147344825Y-116045130D01*
X147367912Y-116057264D01*
X147392598Y-116065677D01*
X147399857Y-116074054D01*
X147407670Y-116078161D01*
X147415717Y-116092357D01*
X147432265Y-116111455D01*
X147432799Y-116112502D01*
X147473673Y-116192723D01*
X147564276Y-116283326D01*
X147608221Y-116305717D01*
X147678445Y-116341498D01*
X147773166Y-116356500D01*
X147773168Y-116356500D01*
X148136832Y-116356500D01*
X148136834Y-116356500D01*
X148231555Y-116341498D01*
X148345723Y-116283326D01*
X148436326Y-116192723D01*
X148494498Y-116078555D01*
X148509500Y-115983834D01*
X148509500Y-114270166D01*
X148494498Y-114175445D01*
X148436327Y-114061278D01*
X148436326Y-114061276D01*
X148345723Y-113970673D01*
X148231553Y-113912501D01*
X148166836Y-113902251D01*
X148136834Y-113897500D01*
X147773166Y-113897500D01*
X147754799Y-113900408D01*
X147678443Y-113912501D01*
X147668424Y-113917607D01*
X147598647Y-113930710D01*
X147532863Y-113904008D01*
X147491958Y-113845979D01*
X147488919Y-113775048D01*
X147515621Y-113727774D01*
X147513786Y-113726400D01*
X147601731Y-113608920D01*
X147649868Y-113479860D01*
X147655999Y-113422832D01*
X147656000Y-113422815D01*
X147656000Y-113254000D01*
X147078000Y-113254000D01*
X147069174Y-113251408D01*
X147060068Y-113252718D01*
X147035642Y-113241562D01*
X147009879Y-113233998D01*
X147003854Y-113227044D01*
X146995488Y-113223224D01*
X146980973Y-113200638D01*
X146963386Y-113180342D01*
X146961061Y-113169655D01*
X146957104Y-113163498D01*
X146952000Y-113128000D01*
X146952000Y-113127000D01*
X146951000Y-113127000D01*
X146882879Y-113106998D01*
X146836386Y-113053342D01*
X146825000Y-113001000D01*
X146825000Y-113000000D01*
X147079000Y-113000000D01*
X147656000Y-113000000D01*
X147656000Y-112831184D01*
X147655999Y-112831167D01*
X147649868Y-112774139D01*
X147601731Y-112645079D01*
X147519186Y-112534813D01*
X147447124Y-112480868D01*
X147404578Y-112424032D01*
X147399514Y-112353216D01*
X147433539Y-112290904D01*
X147447124Y-112279132D01*
X147519186Y-112225186D01*
X147601731Y-112114920D01*
X147649868Y-111985860D01*
X147655999Y-111928832D01*
X147656000Y-111928815D01*
X147656000Y-111760000D01*
X147079000Y-111760000D01*
X147079000Y-113000000D01*
X146825000Y-113000000D01*
X146825000Y-111506000D01*
X147079000Y-111506000D01*
X147656000Y-111506000D01*
X147656000Y-111337184D01*
X147655999Y-111337167D01*
X147649868Y-111280139D01*
X147601731Y-111151079D01*
X147519186Y-111040813D01*
X147408920Y-110958268D01*
X147279860Y-110910131D01*
X147222832Y-110904000D01*
X147079000Y-110904000D01*
X147079000Y-111506000D01*
X146825000Y-111506000D01*
X146825000Y-110904000D01*
X146681167Y-110904000D01*
X146624139Y-110910131D01*
X146495079Y-110958268D01*
X146384813Y-111040813D01*
X146302266Y-111151082D01*
X146295320Y-111169705D01*
X146252772Y-111226539D01*
X146186251Y-111251348D01*
X146116877Y-111236255D01*
X146071020Y-111193402D01*
X146063864Y-111182177D01*
X146052175Y-111150837D01*
X145996302Y-111076200D01*
X145993754Y-111072203D01*
X145985140Y-111042467D01*
X145974321Y-111013459D01*
X145974000Y-111004470D01*
X145974000Y-110750872D01*
X145978293Y-110718262D01*
X145978655Y-110716908D01*
X145981500Y-110706293D01*
X145981500Y-110553707D01*
X145942008Y-110406322D01*
X145865715Y-110274179D01*
X145865713Y-110274177D01*
X145865709Y-110274172D01*
X145757827Y-110166290D01*
X145757817Y-110166282D01*
X145625682Y-110089994D01*
X145625680Y-110089993D01*
X145625678Y-110089992D01*
X145478293Y-110050500D01*
X145325707Y-110050500D01*
X145178322Y-110089992D01*
X145178317Y-110089994D01*
X145046182Y-110166282D01*
X145046172Y-110166290D01*
X144938290Y-110274172D01*
X144938282Y-110274182D01*
X144861994Y-110406317D01*
X144861992Y-110406322D01*
X144822500Y-110553707D01*
X144822500Y-110553709D01*
X144822500Y-110706293D01*
X144825707Y-110718262D01*
X144830000Y-110750872D01*
X144830000Y-111004470D01*
X144809998Y-111072591D01*
X144804868Y-111079979D01*
X144751826Y-111150833D01*
X144703640Y-111280027D01*
X144697500Y-111337128D01*
X144697500Y-111928871D01*
X144702872Y-111978834D01*
X144703640Y-111985973D01*
X144723591Y-112039464D01*
X144751825Y-112115163D01*
X144804868Y-112186019D01*
X144812731Y-112207102D01*
X144824896Y-112226030D01*
X144828098Y-112248300D01*
X144829679Y-112252539D01*
X144830000Y-112261528D01*
X144830000Y-112498470D01*
X144809998Y-112566591D01*
X144804868Y-112573979D01*
X144751826Y-112644833D01*
X144703640Y-112774027D01*
X144697500Y-112831128D01*
X144697500Y-113422871D01*
X144702632Y-113470595D01*
X144703640Y-113479973D01*
X144722206Y-113529751D01*
X144751825Y-113609164D01*
X144751826Y-113609165D01*
X144834456Y-113719544D01*
X144834457Y-113719544D01*
X144834458Y-113719546D01*
X144856007Y-113735677D01*
X144858789Y-113739393D01*
X144863012Y-113741322D01*
X144879868Y-113767550D01*
X144898555Y-113792512D01*
X144899587Y-113798233D01*
X144901396Y-113801048D01*
X144906500Y-113836546D01*
X144906500Y-114084357D01*
X144892737Y-114141618D01*
X144892236Y-114142600D01*
X144888120Y-114146953D01*
X144886498Y-114152478D01*
X144866578Y-114169738D01*
X144843461Y-114194190D01*
X144836324Y-114195953D01*
X144832842Y-114198971D01*
X144811964Y-114201972D01*
X144774537Y-114211221D01*
X144766566Y-114208500D01*
X144762568Y-114209075D01*
X144745747Y-114201392D01*
X144707347Y-114188284D01*
X144701002Y-114180957D01*
X144697988Y-114179581D01*
X144692746Y-114171424D01*
X144667732Y-114142541D01*
X144667716Y-114142510D01*
X144626326Y-114061277D01*
X144626325Y-114061276D01*
X144626324Y-114061274D01*
X144535723Y-113970673D01*
X144421553Y-113912501D01*
X144356836Y-113902251D01*
X144326834Y-113897500D01*
X143963166Y-113897500D01*
X143937266Y-113901602D01*
X143868446Y-113912501D01*
X143754276Y-113970673D01*
X143663673Y-114061276D01*
X143605501Y-114175446D01*
X143599835Y-114211223D01*
X143590500Y-114270166D01*
X143590500Y-115983834D01*
X143591755Y-115991756D01*
X143605501Y-116078553D01*
X143663673Y-116192723D01*
X143714355Y-116243405D01*
X143748381Y-116305717D01*
X143743316Y-116376532D01*
X143700769Y-116433368D01*
X143634249Y-116458179D01*
X143625260Y-116458500D01*
X127718213Y-116458500D01*
X127650092Y-116438498D01*
X127629118Y-116421595D01*
X127321404Y-116113881D01*
X127287378Y-116051569D01*
X127284499Y-116024786D01*
X127284499Y-114099213D01*
X127304501Y-114031092D01*
X127321404Y-114010118D01*
X131947118Y-109384405D01*
X132009430Y-109350379D01*
X132036213Y-109347500D01*
X158988787Y-109347500D01*
X159056908Y-109367502D01*
X159077882Y-109384405D01*
X168558634Y-118865157D01*
X168592660Y-118927469D01*
X168587595Y-118998284D01*
X168585950Y-119002466D01*
X168579105Y-119018992D01*
X168579103Y-119018997D01*
X168540500Y-119213061D01*
X168540500Y-119410938D01*
X168543340Y-119425213D01*
X168579103Y-119605002D01*
X168654824Y-119787809D01*
X168764754Y-119952331D01*
X168904669Y-120092246D01*
X169069191Y-120202176D01*
X169251998Y-120277897D01*
X169446065Y-120316500D01*
X169643935Y-120316500D01*
X169838002Y-120277897D01*
X170020809Y-120202176D01*
X170185331Y-120092246D01*
X170325246Y-119952331D01*
X170435176Y-119787809D01*
X170510897Y-119605002D01*
X170549500Y-119410935D01*
X170549500Y-119213065D01*
X170510897Y-119018998D01*
X170435176Y-118836191D01*
X170325246Y-118671669D01*
X170185331Y-118531754D01*
X170020809Y-118421824D01*
X169916604Y-118378661D01*
X169838005Y-118346104D01*
X169838002Y-118346103D01*
X169643938Y-118307500D01*
X169643935Y-118307500D01*
X169446065Y-118307500D01*
X169446061Y-118307500D01*
X169251997Y-118346103D01*
X169251992Y-118346105D01*
X169235466Y-118352950D01*
X169164875Y-118360536D01*
X169101390Y-118328754D01*
X169098157Y-118325634D01*
X167528493Y-116755970D01*
X167445584Y-116673061D01*
X169810500Y-116673061D01*
X169810500Y-116870938D01*
X169849103Y-117065002D01*
X169849104Y-117065005D01*
X169913512Y-117220499D01*
X169924824Y-117247809D01*
X170034754Y-117412331D01*
X170174669Y-117552246D01*
X170339191Y-117662176D01*
X170521998Y-117737897D01*
X170716065Y-117776500D01*
X170913935Y-117776500D01*
X171108002Y-117737897D01*
X171290809Y-117662176D01*
X171455331Y-117552246D01*
X171595246Y-117412331D01*
X171705176Y-117247809D01*
X171780897Y-117065002D01*
X171819500Y-116870935D01*
X171819500Y-116673065D01*
X171780897Y-116478998D01*
X171705176Y-116296191D01*
X171595246Y-116131669D01*
X171455331Y-115991754D01*
X171290809Y-115881824D01*
X171108005Y-115806104D01*
X171108002Y-115806103D01*
X170913938Y-115767500D01*
X170913935Y-115767500D01*
X170716065Y-115767500D01*
X170716061Y-115767500D01*
X170521997Y-115806103D01*
X170521994Y-115806104D01*
X170339190Y-115881824D01*
X170174673Y-115991751D01*
X170174666Y-115991756D01*
X170034756Y-116131666D01*
X170034751Y-116131673D01*
X169924824Y-116296190D01*
X169849104Y-116478994D01*
X169849103Y-116478997D01*
X169810500Y-116673061D01*
X167445584Y-116673061D01*
X159433253Y-108660729D01*
X159433243Y-108660721D01*
X159346258Y-108610500D01*
X159334792Y-108607427D01*
X159249225Y-108584500D01*
X131876225Y-108584500D01*
X131775775Y-108584500D01*
X131732989Y-108595964D01*
X131678742Y-108610499D01*
X131591756Y-108660721D01*
X131591746Y-108660729D01*
X126781880Y-113470595D01*
X126719568Y-113504621D01*
X126692785Y-113507500D01*
X124631753Y-113507500D01*
X124631729Y-113507502D01*
X124571660Y-113513959D01*
X124571658Y-113513959D01*
X124435733Y-113564657D01*
X124319596Y-113651596D01*
X124232657Y-113767734D01*
X124181962Y-113903650D01*
X124181960Y-113903658D01*
X124175500Y-113963737D01*
X120558500Y-113963737D01*
X120558500Y-104779701D01*
X124176000Y-104779701D01*
X124176000Y-105024298D01*
X124214266Y-105265901D01*
X124289850Y-105498524D01*
X124289853Y-105498530D01*
X124400902Y-105716476D01*
X124541878Y-105910513D01*
X124541880Y-105910513D01*
X125189436Y-105262957D01*
X125225112Y-105316351D01*
X125315649Y-105406888D01*
X125369041Y-105442563D01*
X124721485Y-106090118D01*
X124721485Y-106090120D01*
X124915523Y-106231097D01*
X125133469Y-106342146D01*
X125133475Y-106342149D01*
X125366098Y-106417733D01*
X125607701Y-106456000D01*
X125852299Y-106456000D01*
X126093901Y-106417733D01*
X126326524Y-106342149D01*
X126326530Y-106342146D01*
X126544476Y-106231097D01*
X126738513Y-106090120D01*
X126738513Y-106090118D01*
X126090958Y-105442563D01*
X126144351Y-105406888D01*
X126234888Y-105316351D01*
X126270563Y-105262958D01*
X126918118Y-105910513D01*
X126918120Y-105910513D01*
X127059097Y-105716476D01*
X127170146Y-105498530D01*
X127170149Y-105498524D01*
X127245733Y-105265901D01*
X127284000Y-105024298D01*
X127284000Y-104779701D01*
X127265788Y-104664721D01*
X138463000Y-104664721D01*
X138469054Y-104721022D01*
X138516563Y-104848399D01*
X138598027Y-104957222D01*
X138706850Y-105038686D01*
X138834227Y-105086195D01*
X138890528Y-105092249D01*
X138890540Y-105092250D01*
X139065000Y-105092250D01*
X139319000Y-105092250D01*
X139493460Y-105092250D01*
X139493471Y-105092249D01*
X139549772Y-105086195D01*
X139677149Y-105038686D01*
X139785972Y-104957222D01*
X139867436Y-104848399D01*
X139914945Y-104721022D01*
X139920999Y-104664721D01*
X139921000Y-104664709D01*
X139921000Y-104527750D01*
X139319000Y-104527750D01*
X139319000Y-105092250D01*
X139065000Y-105092250D01*
X139065000Y-104527750D01*
X138463000Y-104527750D01*
X138463000Y-104664721D01*
X127265788Y-104664721D01*
X127245733Y-104538100D01*
X127238064Y-104514496D01*
X127238063Y-104514494D01*
X127170149Y-104305475D01*
X127170146Y-104305469D01*
X127059097Y-104087523D01*
X126918120Y-103893485D01*
X126918118Y-103893485D01*
X126270562Y-104541040D01*
X126234888Y-104487649D01*
X126144351Y-104397112D01*
X126090957Y-104361436D01*
X126738513Y-103713880D01*
X126738513Y-103713878D01*
X126544476Y-103572902D01*
X126326530Y-103461853D01*
X126326524Y-103461850D01*
X126093901Y-103386266D01*
X125852299Y-103348000D01*
X125607701Y-103348000D01*
X125366098Y-103386266D01*
X125133475Y-103461850D01*
X125133469Y-103461853D01*
X124915523Y-103572902D01*
X124721485Y-103713878D01*
X124721485Y-103713880D01*
X125369041Y-104361436D01*
X125315649Y-104397112D01*
X125225112Y-104487649D01*
X125189436Y-104541041D01*
X124541880Y-103893485D01*
X124541878Y-103893485D01*
X124400902Y-104087523D01*
X124289853Y-104305469D01*
X124289850Y-104305475D01*
X124214266Y-104538098D01*
X124176000Y-104779701D01*
X120558500Y-104779701D01*
X120558500Y-98723737D01*
X124175500Y-98723737D01*
X124175500Y-100920246D01*
X124175502Y-100920270D01*
X124181959Y-100980339D01*
X124181959Y-100980341D01*
X124232657Y-101116266D01*
X124232658Y-101116267D01*
X124319596Y-101232404D01*
X124435733Y-101319342D01*
X124571658Y-101370040D01*
X124631745Y-101376500D01*
X126828254Y-101376499D01*
X126888342Y-101370040D01*
X127024267Y-101319342D01*
X127140404Y-101232404D01*
X127212946Y-101135498D01*
X138462500Y-101135498D01*
X138462500Y-101644990D01*
X138462501Y-101645005D01*
X138465379Y-101675702D01*
X138465380Y-101675705D01*
X138510628Y-101805017D01*
X138510631Y-101805024D01*
X138573347Y-101890000D01*
X138591990Y-101915260D01*
X138632323Y-101945027D01*
X138635393Y-101949070D01*
X138640012Y-101951180D01*
X138656643Y-101977058D01*
X138675253Y-102001569D01*
X138676398Y-102007798D01*
X138678396Y-102010906D01*
X138683500Y-102046404D01*
X138683500Y-102141597D01*
X138663498Y-102209718D01*
X138633009Y-102242465D01*
X138597669Y-102268919D01*
X138516119Y-102377859D01*
X138516116Y-102377864D01*
X138468559Y-102505365D01*
X138468557Y-102505373D01*
X138462500Y-102561716D01*
X138462500Y-103089783D01*
X138468557Y-103146126D01*
X138468559Y-103146134D01*
X138516116Y-103273635D01*
X138516119Y-103273640D01*
X138597669Y-103382580D01*
X138706609Y-103464130D01*
X138706613Y-103464133D01*
X138790608Y-103495462D01*
X138847443Y-103538008D01*
X138872254Y-103604529D01*
X138857162Y-103673903D01*
X138806960Y-103724105D01*
X138790608Y-103731572D01*
X138706856Y-103762810D01*
X138706851Y-103762812D01*
X138598027Y-103844277D01*
X138516563Y-103953100D01*
X138469054Y-104080477D01*
X138463000Y-104136778D01*
X138463000Y-104273750D01*
X139921000Y-104273750D01*
X139921000Y-104136790D01*
X139920999Y-104136778D01*
X139914945Y-104080477D01*
X139867436Y-103953100D01*
X139785972Y-103844277D01*
X139677149Y-103762813D01*
X139593391Y-103731573D01*
X139536556Y-103689026D01*
X139511745Y-103622505D01*
X139526837Y-103553131D01*
X139577039Y-103502929D01*
X139593374Y-103495468D01*
X139677387Y-103464133D01*
X139786330Y-103382580D01*
X139867883Y-103273637D01*
X139915441Y-103146131D01*
X139916064Y-103140342D01*
X139921499Y-103089783D01*
X139921500Y-103089766D01*
X139921500Y-102561733D01*
X139921499Y-102561716D01*
X139915442Y-102505373D01*
X139915440Y-102505365D01*
X139867883Y-102377864D01*
X139867883Y-102377863D01*
X139867267Y-102377040D01*
X139786330Y-102268919D01*
X139750991Y-102242465D01*
X139748209Y-102238748D01*
X139743988Y-102236821D01*
X139727133Y-102210595D01*
X139708444Y-102185629D01*
X139707411Y-102179908D01*
X139705604Y-102177095D01*
X139700500Y-102141597D01*
X139700500Y-102046404D01*
X139720502Y-101978283D01*
X139751674Y-101945028D01*
X139792010Y-101915260D01*
X139873369Y-101805023D01*
X139918621Y-101675701D01*
X139921500Y-101644999D01*
X139921499Y-101362825D01*
X174397500Y-101362825D01*
X174397500Y-103615174D01*
X174421659Y-103705333D01*
X174468326Y-103786164D01*
X174468334Y-103786174D01*
X174534325Y-103852165D01*
X174534330Y-103852169D01*
X174534332Y-103852171D01*
X174615168Y-103898841D01*
X174705329Y-103923000D01*
X178608671Y-103923000D01*
X178698832Y-103898841D01*
X178779668Y-103852171D01*
X178845671Y-103786168D01*
X178892341Y-103705332D01*
X178916500Y-103615171D01*
X178916500Y-101362829D01*
X178892341Y-101272668D01*
X178869095Y-101232404D01*
X178845673Y-101191835D01*
X178845665Y-101191825D01*
X178779674Y-101125834D01*
X178779664Y-101125826D01*
X178698833Y-101079159D01*
X178608674Y-101055000D01*
X178608671Y-101055000D01*
X176703671Y-101055000D01*
X174798671Y-101055000D01*
X174705329Y-101055000D01*
X174705325Y-101055000D01*
X174615166Y-101079159D01*
X174534335Y-101125826D01*
X174534325Y-101125834D01*
X174468334Y-101191825D01*
X174468326Y-101191835D01*
X174421659Y-101272666D01*
X174397500Y-101362825D01*
X139921499Y-101362825D01*
X139921499Y-101135502D01*
X139918621Y-101104799D01*
X139895995Y-101040138D01*
X139873371Y-100975482D01*
X139873368Y-100975475D01*
X139792010Y-100865239D01*
X139681774Y-100783881D01*
X139681767Y-100783878D01*
X139552453Y-100738629D01*
X139552455Y-100738629D01*
X139527889Y-100736325D01*
X139521749Y-100735750D01*
X139521748Y-100735750D01*
X138862259Y-100735750D01*
X138862244Y-100735751D01*
X138831547Y-100738629D01*
X138831544Y-100738630D01*
X138702232Y-100783878D01*
X138702225Y-100783881D01*
X138591989Y-100865239D01*
X138510631Y-100975475D01*
X138510628Y-100975482D01*
X138465379Y-101104795D01*
X138462500Y-101135498D01*
X127212946Y-101135498D01*
X127227342Y-101116267D01*
X127278040Y-100980342D01*
X127284500Y-100920255D01*
X127284499Y-99128620D01*
X127304501Y-99060500D01*
X127321404Y-99039526D01*
X128343026Y-98017905D01*
X128405338Y-97983879D01*
X128432121Y-97981000D01*
X138140880Y-97981000D01*
X138209001Y-98001002D01*
X138229975Y-98017905D01*
X138583095Y-98371025D01*
X138617121Y-98433337D01*
X138620000Y-98460120D01*
X138620000Y-99135827D01*
X138599998Y-99203948D01*
X138595379Y-99210649D01*
X138591991Y-99215238D01*
X138591990Y-99215240D01*
X138547772Y-99275151D01*
X138510629Y-99325479D01*
X138510628Y-99325482D01*
X138465379Y-99454795D01*
X138462500Y-99485498D01*
X138462500Y-99994990D01*
X138462501Y-99995005D01*
X138465379Y-100025702D01*
X138465380Y-100025705D01*
X138510628Y-100155017D01*
X138510631Y-100155024D01*
X138591989Y-100265260D01*
X138702225Y-100346618D01*
X138702232Y-100346621D01*
X138831546Y-100391870D01*
X138831549Y-100391871D01*
X138862251Y-100394750D01*
X139521748Y-100394749D01*
X139552451Y-100391871D01*
X139681773Y-100346619D01*
X139792010Y-100265260D01*
X139873369Y-100155023D01*
X139918621Y-100025701D01*
X139921500Y-99994999D01*
X139921499Y-99485502D01*
X139918621Y-99454799D01*
X139873369Y-99325477D01*
X139792010Y-99215240D01*
X139792008Y-99215238D01*
X139788621Y-99210649D01*
X139764263Y-99143961D01*
X139764000Y-99135827D01*
X139764000Y-98095696D01*
X139734039Y-97983879D01*
X139725019Y-97950216D01*
X139649714Y-97819784D01*
X139543216Y-97713286D01*
X138781216Y-96951286D01*
X138781214Y-96951285D01*
X138781212Y-96951283D01*
X138650788Y-96875983D01*
X138650785Y-96875982D01*
X138650784Y-96875981D01*
X138650782Y-96875980D01*
X138650781Y-96875980D01*
X138611800Y-96865535D01*
X138505305Y-96837000D01*
X128218305Y-96837000D01*
X128067694Y-96837000D01*
X127978659Y-96860856D01*
X127922211Y-96875982D01*
X127791786Y-96951283D01*
X127791776Y-96951291D01*
X126512473Y-98230595D01*
X126450161Y-98264621D01*
X126423378Y-98267500D01*
X124631753Y-98267500D01*
X124631729Y-98267502D01*
X124571660Y-98273959D01*
X124571658Y-98273959D01*
X124435733Y-98324657D01*
X124319596Y-98411596D01*
X124232657Y-98527734D01*
X124181962Y-98663650D01*
X124181960Y-98663658D01*
X124175500Y-98723737D01*
X120558500Y-98723737D01*
X120558500Y-86999658D01*
X124175500Y-86999658D01*
X124175500Y-87244342D01*
X124213777Y-87486013D01*
X124213778Y-87486018D01*
X124289386Y-87718716D01*
X124289388Y-87718721D01*
X124357275Y-87851956D01*
X124400474Y-87936739D01*
X124544295Y-88134691D01*
X124717308Y-88307704D01*
X124823270Y-88384690D01*
X124915264Y-88451528D01*
X125133279Y-88562612D01*
X125365981Y-88638221D01*
X125365982Y-88638221D01*
X125365987Y-88638223D01*
X125607658Y-88676500D01*
X125607661Y-88676500D01*
X125852339Y-88676500D01*
X125852342Y-88676500D01*
X126094013Y-88638223D01*
X126326721Y-88562612D01*
X126446786Y-88501434D01*
X126516563Y-88488331D01*
X126582347Y-88515031D01*
X126593084Y-88524607D01*
X130760313Y-92691835D01*
X130760334Y-92691858D01*
X130835746Y-92767270D01*
X130835751Y-92767274D01*
X130835753Y-92767276D01*
X130835754Y-92767277D01*
X130835756Y-92767278D01*
X130922741Y-92817499D01*
X130922743Y-92817499D01*
X130922746Y-92817501D01*
X131019775Y-92843500D01*
X131019777Y-92843500D01*
X153968223Y-92843500D01*
X153968225Y-92843500D01*
X154065254Y-92817501D01*
X154065257Y-92817499D01*
X154065258Y-92817499D01*
X154108750Y-92792388D01*
X154152247Y-92767276D01*
X154223276Y-92696247D01*
X154223277Y-92696246D01*
X156839118Y-90080405D01*
X156901430Y-90046379D01*
X156928213Y-90043500D01*
X169309501Y-90043500D01*
X169377622Y-90063502D01*
X169424115Y-90117158D01*
X169435501Y-90169500D01*
X169435501Y-92260246D01*
X169435502Y-92260270D01*
X169441959Y-92320339D01*
X169441959Y-92320341D01*
X169492657Y-92456266D01*
X169492658Y-92456267D01*
X169579596Y-92572404D01*
X169695733Y-92659342D01*
X169831658Y-92710040D01*
X169891745Y-92716500D01*
X178088254Y-92716499D01*
X178148342Y-92710040D01*
X178284267Y-92659342D01*
X178400404Y-92572404D01*
X178487342Y-92456267D01*
X178538040Y-92320342D01*
X178544500Y-92260255D01*
X178544499Y-87063746D01*
X178538040Y-87003658D01*
X178487342Y-86867733D01*
X178400404Y-86751596D01*
X178284267Y-86664658D01*
X178284265Y-86664657D01*
X178284266Y-86664657D01*
X178148349Y-86613962D01*
X178148344Y-86613960D01*
X178148342Y-86613960D01*
X178118298Y-86610730D01*
X178088256Y-86607500D01*
X169891753Y-86607500D01*
X169891729Y-86607502D01*
X169831660Y-86613959D01*
X169831658Y-86613959D01*
X169695733Y-86664657D01*
X169579596Y-86751596D01*
X169492657Y-86867734D01*
X169441962Y-87003650D01*
X169441960Y-87003658D01*
X169435500Y-87063737D01*
X169435500Y-89154500D01*
X169415498Y-89222621D01*
X169361842Y-89269114D01*
X169309500Y-89280500D01*
X156667775Y-89280500D01*
X156608390Y-89296412D01*
X156570741Y-89306500D01*
X156483756Y-89356721D01*
X156483746Y-89356729D01*
X153796882Y-92043595D01*
X153734570Y-92077621D01*
X153707787Y-92080500D01*
X131280212Y-92080500D01*
X131212091Y-92060498D01*
X131191117Y-92043595D01*
X127132607Y-87985084D01*
X127098581Y-87922772D01*
X127103646Y-87851956D01*
X127109435Y-87838786D01*
X127170612Y-87718721D01*
X127246223Y-87486013D01*
X127284500Y-87244342D01*
X127284500Y-86999658D01*
X127246223Y-86757987D01*
X127170612Y-86525279D01*
X127109434Y-86405212D01*
X127096331Y-86335436D01*
X127123031Y-86269651D01*
X127132597Y-86258924D01*
X127629119Y-85762404D01*
X127691431Y-85728379D01*
X127718214Y-85725500D01*
X143625260Y-85725500D01*
X143693381Y-85745502D01*
X143739874Y-85799158D01*
X143749978Y-85869432D01*
X143720484Y-85934012D01*
X143714355Y-85940595D01*
X143663675Y-85991274D01*
X143663673Y-85991276D01*
X143605501Y-86105446D01*
X143602130Y-86126734D01*
X143590500Y-86200166D01*
X143590500Y-87913834D01*
X143591916Y-87922772D01*
X143605501Y-88008553D01*
X143663673Y-88122723D01*
X143754276Y-88213326D01*
X143777651Y-88225236D01*
X143868445Y-88271498D01*
X143963166Y-88286500D01*
X143963168Y-88286500D01*
X144326832Y-88286500D01*
X144326834Y-88286500D01*
X144421555Y-88271498D01*
X144535723Y-88213326D01*
X144626326Y-88122723D01*
X144667733Y-88041455D01*
X144716481Y-87989842D01*
X144785396Y-87972776D01*
X144852598Y-87995677D01*
X144882054Y-88024762D01*
X144887810Y-88032712D01*
X144933674Y-88122723D01*
X145003677Y-88192726D01*
X145009554Y-88200842D01*
X145018214Y-88225236D01*
X145030621Y-88247957D01*
X145032506Y-88265495D01*
X145033306Y-88267748D01*
X145032923Y-88269379D01*
X145033500Y-88274740D01*
X145033500Y-88431700D01*
X145013498Y-88499821D01*
X144982324Y-88533078D01*
X144953988Y-88553991D01*
X144872631Y-88664225D01*
X144872628Y-88664232D01*
X144827379Y-88793545D01*
X144824500Y-88824248D01*
X144824500Y-89483740D01*
X144824501Y-89483755D01*
X144827379Y-89514452D01*
X144827380Y-89514455D01*
X144872628Y-89643767D01*
X144872631Y-89643774D01*
X144953989Y-89754010D01*
X145064225Y-89835368D01*
X145064232Y-89835371D01*
X145193546Y-89880620D01*
X145193549Y-89880621D01*
X145224251Y-89883500D01*
X145733748Y-89883499D01*
X145764451Y-89880621D01*
X145893773Y-89835369D01*
X146004010Y-89754010D01*
X146085369Y-89643773D01*
X146130621Y-89514451D01*
X146133500Y-89483749D01*
X146133499Y-88824252D01*
X146130621Y-88793549D01*
X146086427Y-88667251D01*
X146085371Y-88664232D01*
X146085368Y-88664225D01*
X146004010Y-88553989D01*
X145893776Y-88472633D01*
X145893775Y-88472632D01*
X145893773Y-88472631D01*
X145880882Y-88468120D01*
X145861586Y-88454279D01*
X145839988Y-88444416D01*
X145833278Y-88433976D01*
X145823191Y-88426741D01*
X145814439Y-88404662D01*
X145801604Y-88384690D01*
X145798803Y-88365215D01*
X145797030Y-88360740D01*
X145796500Y-88349192D01*
X145796500Y-88274740D01*
X145816502Y-88206619D01*
X145833405Y-88185645D01*
X145896324Y-88122725D01*
X145896326Y-88122723D01*
X145937733Y-88041457D01*
X145986481Y-87989842D01*
X146055396Y-87972776D01*
X146122598Y-87995677D01*
X146162267Y-88041457D01*
X146203673Y-88122723D01*
X146294276Y-88213326D01*
X146317651Y-88225236D01*
X146408445Y-88271498D01*
X146503166Y-88286500D01*
X146503168Y-88286500D01*
X146583517Y-88286500D01*
X146651638Y-88306502D01*
X146698131Y-88360158D01*
X146708235Y-88430432D01*
X146678741Y-88495012D01*
X146658338Y-88513879D01*
X146603989Y-88553989D01*
X146522631Y-88664225D01*
X146522628Y-88664232D01*
X146477379Y-88793545D01*
X146474500Y-88824248D01*
X146474500Y-89483740D01*
X146474501Y-89483755D01*
X146477379Y-89514452D01*
X146477380Y-89514455D01*
X146522628Y-89643767D01*
X146522631Y-89643774D01*
X146603989Y-89754010D01*
X146714225Y-89835368D01*
X146714232Y-89835371D01*
X146843546Y-89880620D01*
X146843549Y-89880621D01*
X146874251Y-89883500D01*
X147383748Y-89883499D01*
X147414451Y-89880621D01*
X147543773Y-89835369D01*
X147654010Y-89754010D01*
X147726621Y-89655625D01*
X147783166Y-89612694D01*
X147853945Y-89607147D01*
X147916487Y-89640748D01*
X147929379Y-89655626D01*
X148001989Y-89754010D01*
X148112225Y-89835368D01*
X148112232Y-89835371D01*
X148241546Y-89880620D01*
X148241549Y-89880621D01*
X148272251Y-89883500D01*
X148781748Y-89883499D01*
X148812451Y-89880621D01*
X148941773Y-89835369D01*
X149052010Y-89754010D01*
X149133369Y-89643773D01*
X149178621Y-89514451D01*
X149181500Y-89483749D01*
X149181500Y-89483688D01*
X149523000Y-89483688D01*
X149525876Y-89514360D01*
X149571076Y-89643534D01*
X149652347Y-89753652D01*
X149762465Y-89834923D01*
X149891640Y-89880123D01*
X149891638Y-89880123D01*
X149922311Y-89882999D01*
X149922317Y-89883000D01*
X150050000Y-89883000D01*
X150304000Y-89883000D01*
X150431683Y-89883000D01*
X150431688Y-89882999D01*
X150462360Y-89880123D01*
X150591534Y-89834923D01*
X150701652Y-89753652D01*
X150782923Y-89643534D01*
X150828123Y-89514360D01*
X150830999Y-89483688D01*
X150831000Y-89483682D01*
X150831000Y-89281000D01*
X150304000Y-89281000D01*
X150304000Y-89883000D01*
X150050000Y-89883000D01*
X150050000Y-89281000D01*
X149523000Y-89281000D01*
X149523000Y-89483688D01*
X149181500Y-89483688D01*
X149181499Y-89027000D01*
X149181499Y-88824311D01*
X149523000Y-88824311D01*
X149523000Y-89027000D01*
X150050000Y-89027000D01*
X150304000Y-89027000D01*
X150831000Y-89027000D01*
X150831000Y-88824317D01*
X150830999Y-88824311D01*
X150828123Y-88793639D01*
X150782923Y-88664465D01*
X150701652Y-88554347D01*
X150591534Y-88473076D01*
X150462359Y-88427876D01*
X150462361Y-88427876D01*
X150431688Y-88425000D01*
X150304000Y-88425000D01*
X150304000Y-89027000D01*
X150050000Y-89027000D01*
X150050000Y-88425000D01*
X149922311Y-88425000D01*
X149891639Y-88427876D01*
X149762465Y-88473076D01*
X149652347Y-88554347D01*
X149571076Y-88664465D01*
X149525876Y-88793639D01*
X149523000Y-88824311D01*
X149181499Y-88824311D01*
X149181499Y-88824259D01*
X149181498Y-88824251D01*
X149178621Y-88793549D01*
X149134427Y-88667251D01*
X149133371Y-88664232D01*
X149133368Y-88664225D01*
X149052010Y-88553989D01*
X148941774Y-88472631D01*
X148941767Y-88472628D01*
X148812453Y-88427379D01*
X148812455Y-88427379D01*
X148781751Y-88424500D01*
X148438031Y-88424500D01*
X148369910Y-88404498D01*
X148323417Y-88350842D01*
X148313313Y-88280568D01*
X148342807Y-88215988D01*
X148348936Y-88209404D01*
X148435917Y-88122423D01*
X148494015Y-88008400D01*
X148509000Y-87913791D01*
X148509000Y-87184000D01*
X148082000Y-87184000D01*
X148082000Y-88286000D01*
X148098685Y-88302685D01*
X148132711Y-88364997D01*
X148127646Y-88435812D01*
X148085099Y-88492648D01*
X148084412Y-88493159D01*
X148001990Y-88553989D01*
X147929379Y-88652374D01*
X147872834Y-88695306D01*
X147802054Y-88700852D01*
X147739512Y-88667251D01*
X147726621Y-88652374D01*
X147716177Y-88638223D01*
X147654010Y-88553990D01*
X147599662Y-88513879D01*
X147583982Y-88502306D01*
X147583979Y-88502304D01*
X147543773Y-88472631D01*
X147466649Y-88445644D01*
X147466643Y-88445641D01*
X147414453Y-88427379D01*
X147414455Y-88427379D01*
X147383751Y-88424500D01*
X147168739Y-88424500D01*
X147155314Y-88420558D01*
X147141356Y-88421488D01*
X147121923Y-88410753D01*
X147100618Y-88404498D01*
X147091455Y-88393924D01*
X147079210Y-88387160D01*
X147068664Y-88367621D01*
X147054125Y-88350842D01*
X147052134Y-88336994D01*
X147045489Y-88324683D01*
X147047180Y-88302544D01*
X147044021Y-88280568D01*
X147049946Y-88266362D01*
X147050899Y-88253892D01*
X147062882Y-88235345D01*
X147068240Y-88222500D01*
X147074835Y-88213778D01*
X147075723Y-88213326D01*
X147166326Y-88122723D01*
X147213070Y-88030982D01*
X147219781Y-88022109D01*
X147239719Y-88007334D01*
X147256760Y-87989291D01*
X147267738Y-87986572D01*
X147276824Y-87979840D01*
X147301585Y-87978190D01*
X147325675Y-87972225D01*
X147336379Y-87975872D01*
X147347663Y-87975121D01*
X147369385Y-87987119D01*
X147392877Y-87995125D01*
X147401139Y-88004660D01*
X147409809Y-88009449D01*
X147417274Y-88023280D01*
X147432547Y-88040906D01*
X147474082Y-88122423D01*
X147474084Y-88122426D01*
X147564573Y-88212915D01*
X147564575Y-88212916D01*
X147571018Y-88216199D01*
X147687418Y-88272412D01*
X147773193Y-88285998D01*
X147773212Y-88285999D01*
X147828000Y-88285998D01*
X147828000Y-86930000D01*
X148082000Y-86930000D01*
X148508999Y-86930000D01*
X148508999Y-86200207D01*
X148494016Y-86105602D01*
X148435917Y-85991575D01*
X148345424Y-85901082D01*
X148231400Y-85842984D01*
X148136792Y-85828000D01*
X148082000Y-85828000D01*
X148082000Y-86930000D01*
X147828000Y-86930000D01*
X147828000Y-85828000D01*
X147827999Y-85827999D01*
X147773207Y-85828000D01*
X147678602Y-85842983D01*
X147564575Y-85901082D01*
X147474084Y-85991573D01*
X147474080Y-85991578D01*
X147432546Y-86073094D01*
X147383798Y-86124709D01*
X147314883Y-86141774D01*
X147247681Y-86118873D01*
X147218193Y-86089743D01*
X147212458Y-86081815D01*
X147166326Y-85991277D01*
X147096301Y-85921252D01*
X147090413Y-85913113D01*
X147081772Y-85888738D01*
X147069379Y-85866043D01*
X147067487Y-85848442D01*
X147066691Y-85846197D01*
X147067071Y-85844576D01*
X147066500Y-85839260D01*
X147066500Y-85713792D01*
X148947001Y-85713792D01*
X148961983Y-85808397D01*
X149020082Y-85922424D01*
X149110575Y-86012917D01*
X149224599Y-86071015D01*
X149319208Y-86085999D01*
X149811500Y-86085999D01*
X150065500Y-86085999D01*
X150557792Y-86085999D01*
X150652397Y-86071016D01*
X150766424Y-86012917D01*
X150856917Y-85922424D01*
X150915015Y-85808400D01*
X150930000Y-85713791D01*
X150930000Y-85659000D01*
X150065500Y-85659000D01*
X150065500Y-86085999D01*
X149811500Y-86085999D01*
X149811500Y-85659000D01*
X148947001Y-85659000D01*
X148947001Y-85713792D01*
X147066500Y-85713792D01*
X147066500Y-85554213D01*
X147086502Y-85486092D01*
X147103405Y-85465118D01*
X147568118Y-85000405D01*
X147630430Y-84966379D01*
X147657213Y-84963500D01*
X148905203Y-84963500D01*
X148973324Y-84983502D01*
X149019817Y-85037158D01*
X149029921Y-85107432D01*
X149017470Y-85146702D01*
X148961985Y-85255597D01*
X148947000Y-85350208D01*
X148947000Y-85405000D01*
X150929999Y-85405000D01*
X150929999Y-85350207D01*
X150914406Y-85251748D01*
X150923506Y-85181337D01*
X150969229Y-85127024D01*
X151037058Y-85106052D01*
X151096057Y-85119771D01*
X151099445Y-85121498D01*
X151194166Y-85136500D01*
X151194168Y-85136500D01*
X152432832Y-85136500D01*
X152432834Y-85136500D01*
X152527555Y-85121498D01*
X152641723Y-85063326D01*
X152732326Y-84972723D01*
X152790498Y-84858555D01*
X152805500Y-84763834D01*
X152805500Y-84400166D01*
X152790498Y-84305445D01*
X152750272Y-84226498D01*
X152732326Y-84191276D01*
X152641723Y-84100673D01*
X152527553Y-84042501D01*
X152462836Y-84032251D01*
X152432834Y-84027500D01*
X152432832Y-84027500D01*
X151721409Y-84027500D01*
X151653288Y-84007498D01*
X151606795Y-83953842D01*
X151596691Y-83883568D01*
X151602134Y-83863724D01*
X151601870Y-83863654D01*
X151604006Y-83855680D01*
X151604008Y-83855678D01*
X151643500Y-83708293D01*
X151643500Y-83555707D01*
X151604008Y-83408322D01*
X151568335Y-83346534D01*
X151527717Y-83276182D01*
X151527709Y-83276172D01*
X151419827Y-83168290D01*
X151419817Y-83168282D01*
X151287682Y-83091994D01*
X151287680Y-83091993D01*
X151287678Y-83091992D01*
X151140293Y-83052500D01*
X150987707Y-83052500D01*
X150987706Y-83052500D01*
X150975738Y-83055707D01*
X150943128Y-83060000D01*
X149863194Y-83060000D01*
X149813905Y-83073207D01*
X149781295Y-83077500D01*
X149319166Y-83077500D01*
X149293266Y-83081602D01*
X149224446Y-83092501D01*
X149110276Y-83150673D01*
X149019673Y-83241276D01*
X148961501Y-83355446D01*
X148946500Y-83450167D01*
X148946500Y-83813832D01*
X148961501Y-83908553D01*
X149016909Y-84017297D01*
X149030013Y-84087074D01*
X149003313Y-84152859D01*
X148945285Y-84193765D01*
X148904642Y-84200500D01*
X147504959Y-84200500D01*
X147504943Y-84200499D01*
X147497225Y-84200499D01*
X147396775Y-84200499D01*
X147348261Y-84213498D01*
X147299745Y-84226498D01*
X147212756Y-84276721D01*
X147212750Y-84276726D01*
X146831752Y-84657725D01*
X146450753Y-85038724D01*
X146426151Y-85063326D01*
X146379725Y-85109751D01*
X146379721Y-85109756D01*
X146329500Y-85196741D01*
X146303500Y-85293776D01*
X146303500Y-85839260D01*
X146283498Y-85907381D01*
X146279554Y-85913158D01*
X146273677Y-85921273D01*
X146203674Y-85991277D01*
X146157812Y-86081284D01*
X146152054Y-86089237D01*
X146131425Y-86105196D01*
X146113518Y-86124157D01*
X146103811Y-86126560D01*
X146095901Y-86132681D01*
X146069917Y-86134954D01*
X146044604Y-86141223D01*
X146035138Y-86137997D01*
X146025175Y-86138869D01*
X146002087Y-86126734D01*
X145977402Y-86118322D01*
X145970142Y-86109944D01*
X145962330Y-86105838D01*
X145954283Y-86091641D01*
X145937733Y-86072542D01*
X145896326Y-85991277D01*
X145896324Y-85991274D01*
X145833405Y-85928355D01*
X145799379Y-85866043D01*
X145796500Y-85839260D01*
X145796500Y-85801776D01*
X145796500Y-85801775D01*
X145770501Y-85704746D01*
X145770499Y-85704743D01*
X145770499Y-85704741D01*
X145720278Y-85617756D01*
X145720270Y-85617746D01*
X145644863Y-85542339D01*
X145644840Y-85542318D01*
X145141248Y-85038725D01*
X145141243Y-85038721D01*
X145054258Y-84988500D01*
X145035605Y-84983502D01*
X144957225Y-84962500D01*
X144957223Y-84962500D01*
X127565959Y-84962500D01*
X127565943Y-84962499D01*
X127558225Y-84962499D01*
X127457775Y-84962499D01*
X127409261Y-84975498D01*
X127360745Y-84988498D01*
X127273756Y-85038721D01*
X127273752Y-85038725D01*
X126593083Y-85719392D01*
X126530771Y-85753417D01*
X126459955Y-85748352D01*
X126446786Y-85742563D01*
X126326728Y-85681391D01*
X126326716Y-85681386D01*
X126094016Y-85605778D01*
X126094020Y-85605778D01*
X126049026Y-85598651D01*
X125852342Y-85567500D01*
X125607658Y-85567500D01*
X125365987Y-85605777D01*
X125365981Y-85605778D01*
X125133283Y-85681386D01*
X125133277Y-85681389D01*
X124915260Y-85792474D01*
X124717308Y-85936295D01*
X124544295Y-86109308D01*
X124400474Y-86307260D01*
X124289389Y-86525277D01*
X124289386Y-86525283D01*
X124213778Y-86757981D01*
X124213777Y-86757986D01*
X124213777Y-86757987D01*
X124175500Y-86999658D01*
X120558500Y-86999658D01*
X120558500Y-80943737D01*
X124175500Y-80943737D01*
X124175500Y-83140246D01*
X124175502Y-83140270D01*
X124181959Y-83200339D01*
X124181959Y-83200341D01*
X124232657Y-83336266D01*
X124232658Y-83336267D01*
X124319596Y-83452404D01*
X124435733Y-83539342D01*
X124571658Y-83590040D01*
X124631745Y-83596500D01*
X126692785Y-83596499D01*
X126760906Y-83616501D01*
X126781880Y-83633404D01*
X127400746Y-84252270D01*
X127400751Y-84252274D01*
X127400753Y-84252276D01*
X127400754Y-84252277D01*
X127400756Y-84252278D01*
X127487742Y-84302500D01*
X127487744Y-84302500D01*
X127487747Y-84302502D01*
X127584775Y-84328500D01*
X127584776Y-84328500D01*
X146227223Y-84328500D01*
X146227225Y-84328500D01*
X146324254Y-84302501D01*
X146324257Y-84302499D01*
X146324258Y-84302499D01*
X146368907Y-84276721D01*
X146411247Y-84252276D01*
X146482276Y-84181247D01*
X146499985Y-84163538D01*
X146499991Y-84163530D01*
X146908871Y-83754649D01*
X146908881Y-83754642D01*
X146990270Y-83673253D01*
X146990276Y-83673247D01*
X147040501Y-83586254D01*
X147066500Y-83489225D01*
X147066500Y-83324740D01*
X147086502Y-83256619D01*
X147090446Y-83250842D01*
X147096322Y-83242726D01*
X147166326Y-83172723D01*
X147212189Y-83082712D01*
X147217946Y-83074762D01*
X147238572Y-83058804D01*
X147256481Y-83039842D01*
X147266188Y-83037438D01*
X147274099Y-83031318D01*
X147300082Y-83029044D01*
X147325396Y-83022776D01*
X147334861Y-83026001D01*
X147344825Y-83025130D01*
X147367912Y-83037264D01*
X147392598Y-83045677D01*
X147399857Y-83054054D01*
X147407670Y-83058161D01*
X147415717Y-83072357D01*
X147432265Y-83091455D01*
X147432799Y-83092502D01*
X147473673Y-83172723D01*
X147564276Y-83263326D01*
X147621361Y-83292412D01*
X147678445Y-83321498D01*
X147773166Y-83336500D01*
X147773168Y-83336500D01*
X148136832Y-83336500D01*
X148136834Y-83336500D01*
X148231555Y-83321498D01*
X148345723Y-83263326D01*
X148436326Y-83172723D01*
X148494498Y-83058555D01*
X148509500Y-82963834D01*
X148509500Y-81250166D01*
X148494498Y-81155445D01*
X148436327Y-81041278D01*
X148436326Y-81041276D01*
X148345723Y-80950673D01*
X148231553Y-80892501D01*
X148166836Y-80882251D01*
X148136834Y-80877500D01*
X147773166Y-80877500D01*
X147722850Y-80885469D01*
X147668650Y-80894053D01*
X147668170Y-80891025D01*
X147613444Y-80892585D01*
X147552648Y-80855919D01*
X147521327Y-80792205D01*
X147529425Y-80721671D01*
X147544616Y-80695217D01*
X147601730Y-80618922D01*
X147649868Y-80489860D01*
X147655999Y-80432832D01*
X147656000Y-80432815D01*
X147656000Y-80264000D01*
X147078000Y-80264000D01*
X147069174Y-80261408D01*
X147060068Y-80262718D01*
X147035642Y-80251562D01*
X147009879Y-80243998D01*
X147003854Y-80237044D01*
X146995488Y-80233224D01*
X146980973Y-80210638D01*
X146963386Y-80190342D01*
X146961061Y-80179655D01*
X146957104Y-80173498D01*
X146952000Y-80138000D01*
X146952000Y-80137000D01*
X146951000Y-80137000D01*
X146882879Y-80116998D01*
X146836386Y-80063342D01*
X146825000Y-80011000D01*
X146825000Y-80010000D01*
X147079000Y-80010000D01*
X147656000Y-80010000D01*
X147656000Y-79841184D01*
X147655999Y-79841167D01*
X147649868Y-79784139D01*
X147601731Y-79655079D01*
X147519185Y-79544812D01*
X147427087Y-79475868D01*
X147384540Y-79419032D01*
X147379476Y-79348216D01*
X147413501Y-79285904D01*
X147427087Y-79274132D01*
X147519185Y-79205187D01*
X147601731Y-79094920D01*
X147649868Y-78965860D01*
X147655999Y-78908832D01*
X147656000Y-78908815D01*
X147656000Y-78740000D01*
X147079000Y-78740000D01*
X147079000Y-80010000D01*
X146825000Y-80010000D01*
X146825000Y-78486000D01*
X147079000Y-78486000D01*
X147656000Y-78486000D01*
X147656000Y-78317184D01*
X147655999Y-78317167D01*
X147649868Y-78260139D01*
X147601731Y-78131079D01*
X147519186Y-78020813D01*
X147408920Y-77938268D01*
X147279860Y-77890131D01*
X147222832Y-77884000D01*
X147079000Y-77884000D01*
X147079000Y-78486000D01*
X146825000Y-78486000D01*
X146825000Y-77884000D01*
X146681167Y-77884000D01*
X146624139Y-77890131D01*
X146495079Y-77938268D01*
X146384813Y-78020813D01*
X146302266Y-78131082D01*
X146295320Y-78149705D01*
X146252772Y-78206539D01*
X146186251Y-78231348D01*
X146116877Y-78216255D01*
X146071020Y-78173402D01*
X146063864Y-78162177D01*
X146052175Y-78130837D01*
X145996302Y-78056200D01*
X145993754Y-78052203D01*
X145985140Y-78022467D01*
X145974321Y-77993459D01*
X145974000Y-77984470D01*
X145974000Y-77730872D01*
X145978293Y-77698262D01*
X145978655Y-77696908D01*
X145981500Y-77686293D01*
X145981500Y-77533707D01*
X145942008Y-77386322D01*
X145865715Y-77254179D01*
X145865713Y-77254177D01*
X145865709Y-77254172D01*
X145757827Y-77146290D01*
X145757817Y-77146282D01*
X145625682Y-77069994D01*
X145625680Y-77069993D01*
X145625678Y-77069992D01*
X145478293Y-77030500D01*
X145325707Y-77030500D01*
X145178322Y-77069992D01*
X145178317Y-77069994D01*
X145046182Y-77146282D01*
X145046172Y-77146290D01*
X144938290Y-77254172D01*
X144938282Y-77254182D01*
X144861994Y-77386317D01*
X144861992Y-77386322D01*
X144822500Y-77533707D01*
X144822500Y-77533709D01*
X144822500Y-77686293D01*
X144825707Y-77698262D01*
X144830000Y-77730872D01*
X144830000Y-77984470D01*
X144809998Y-78052591D01*
X144804868Y-78059979D01*
X144751826Y-78130833D01*
X144703640Y-78260027D01*
X144697500Y-78317128D01*
X144697500Y-78908871D01*
X144702872Y-78958834D01*
X144703640Y-78965973D01*
X144723591Y-79019464D01*
X144751825Y-79095163D01*
X144804868Y-79166019D01*
X144829679Y-79232539D01*
X144830000Y-79241528D01*
X144830000Y-79508470D01*
X144809998Y-79576591D01*
X144804868Y-79583979D01*
X144751826Y-79654833D01*
X144703640Y-79784027D01*
X144697500Y-79841128D01*
X144697500Y-80432871D01*
X144699406Y-80450595D01*
X144703640Y-80489973D01*
X144723273Y-80542612D01*
X144751825Y-80619164D01*
X144751826Y-80619165D01*
X144834456Y-80729544D01*
X144834457Y-80729544D01*
X144834458Y-80729546D01*
X144856007Y-80745677D01*
X144858789Y-80749393D01*
X144863012Y-80751322D01*
X144879868Y-80777550D01*
X144898555Y-80802512D01*
X144899587Y-80808233D01*
X144901396Y-80811048D01*
X144906500Y-80846546D01*
X144906500Y-81064357D01*
X144892737Y-81121618D01*
X144892236Y-81122600D01*
X144888120Y-81126953D01*
X144886498Y-81132478D01*
X144866578Y-81149738D01*
X144843461Y-81174190D01*
X144836324Y-81175953D01*
X144832842Y-81178971D01*
X144811964Y-81181972D01*
X144774537Y-81191221D01*
X144766566Y-81188500D01*
X144762568Y-81189075D01*
X144745747Y-81181392D01*
X144707347Y-81168284D01*
X144701002Y-81160957D01*
X144697988Y-81159581D01*
X144692746Y-81151424D01*
X144667732Y-81122541D01*
X144667716Y-81122510D01*
X144626326Y-81041277D01*
X144626325Y-81041276D01*
X144626324Y-81041274D01*
X144535723Y-80950673D01*
X144421553Y-80892501D01*
X144356836Y-80882251D01*
X144326834Y-80877500D01*
X143963166Y-80877500D01*
X143937266Y-80881602D01*
X143868446Y-80892501D01*
X143754276Y-80950673D01*
X143663673Y-81041276D01*
X143605501Y-81155446D01*
X143590500Y-81250167D01*
X143590500Y-82963832D01*
X143605501Y-83058553D01*
X143663673Y-83172723D01*
X143754276Y-83263326D01*
X143877281Y-83326000D01*
X143875934Y-83328642D01*
X143921414Y-83359739D01*
X143949051Y-83425135D01*
X143936946Y-83495092D01*
X143888941Y-83547399D01*
X143823873Y-83565500D01*
X127845213Y-83565500D01*
X127777092Y-83545498D01*
X127756118Y-83528595D01*
X127321404Y-83093881D01*
X127287378Y-83031569D01*
X127284499Y-83004786D01*
X127284499Y-81079213D01*
X127304501Y-81011092D01*
X127321404Y-80990118D01*
X131693118Y-76618405D01*
X131755430Y-76584379D01*
X131782213Y-76581500D01*
X169309500Y-76581500D01*
X169377621Y-76601502D01*
X169424114Y-76655158D01*
X169435500Y-76707500D01*
X169435500Y-79560246D01*
X169435502Y-79560270D01*
X169441959Y-79620339D01*
X169441959Y-79620341D01*
X169492657Y-79756266D01*
X169492658Y-79756267D01*
X169579596Y-79872404D01*
X169695733Y-79959342D01*
X169831658Y-80010040D01*
X169891745Y-80016500D01*
X178088254Y-80016499D01*
X178148342Y-80010040D01*
X178284267Y-79959342D01*
X178400404Y-79872404D01*
X178487342Y-79756267D01*
X178538040Y-79620342D01*
X178544500Y-79560255D01*
X178544499Y-74363746D01*
X178538040Y-74303658D01*
X178487342Y-74167733D01*
X178400404Y-74051596D01*
X178284267Y-73964658D01*
X178284265Y-73964657D01*
X178284266Y-73964657D01*
X178148349Y-73913962D01*
X178148344Y-73913960D01*
X178148342Y-73913960D01*
X178118298Y-73910730D01*
X178088256Y-73907500D01*
X169891753Y-73907500D01*
X169891729Y-73907502D01*
X169831660Y-73913959D01*
X169831658Y-73913959D01*
X169695733Y-73964657D01*
X169579596Y-74051596D01*
X169492657Y-74167734D01*
X169441962Y-74303650D01*
X169441960Y-74303658D01*
X169435500Y-74363737D01*
X169435500Y-75692500D01*
X169415498Y-75760621D01*
X169361842Y-75807114D01*
X169309500Y-75818500D01*
X131629959Y-75818500D01*
X131629943Y-75818499D01*
X131622225Y-75818499D01*
X131521775Y-75818499D01*
X131473261Y-75831498D01*
X131424745Y-75844498D01*
X131337756Y-75894721D01*
X131337746Y-75894729D01*
X126781880Y-80450595D01*
X126719568Y-80484621D01*
X126692785Y-80487500D01*
X124631753Y-80487500D01*
X124631729Y-80487502D01*
X124571660Y-80493959D01*
X124571658Y-80493959D01*
X124435733Y-80544657D01*
X124319596Y-80631596D01*
X124232657Y-80747734D01*
X124181962Y-80883650D01*
X124181960Y-80883658D01*
X124175500Y-80943737D01*
X120558500Y-80943737D01*
X120558500Y-71759701D01*
X124176000Y-71759701D01*
X124176000Y-72004298D01*
X124214266Y-72245901D01*
X124289850Y-72478524D01*
X124289853Y-72478530D01*
X124400902Y-72696476D01*
X124541878Y-72890513D01*
X124541880Y-72890513D01*
X125189436Y-72242957D01*
X125225112Y-72296351D01*
X125315649Y-72386888D01*
X125369041Y-72422563D01*
X124721485Y-73070118D01*
X124721485Y-73070120D01*
X124915523Y-73211097D01*
X125133469Y-73322146D01*
X125133475Y-73322149D01*
X125366098Y-73397733D01*
X125607701Y-73436000D01*
X125852299Y-73436000D01*
X126093901Y-73397733D01*
X126326524Y-73322149D01*
X126326530Y-73322146D01*
X126544476Y-73211097D01*
X126738513Y-73070120D01*
X126738513Y-73070118D01*
X126090958Y-72422563D01*
X126144351Y-72386888D01*
X126234888Y-72296351D01*
X126270563Y-72242958D01*
X126918118Y-72890513D01*
X126918120Y-72890513D01*
X127059097Y-72696476D01*
X127170146Y-72478530D01*
X127170149Y-72478524D01*
X127245733Y-72245901D01*
X127284000Y-72004298D01*
X127284000Y-71759701D01*
X127278737Y-71726471D01*
X138336000Y-71726471D01*
X138342054Y-71782772D01*
X138389563Y-71910149D01*
X138471027Y-72018972D01*
X138579850Y-72100436D01*
X138707227Y-72147945D01*
X138763528Y-72153999D01*
X138763540Y-72154000D01*
X138938000Y-72154000D01*
X139192000Y-72154000D01*
X139366460Y-72154000D01*
X139366471Y-72153999D01*
X139422772Y-72147945D01*
X139550149Y-72100436D01*
X139658972Y-72018972D01*
X139740436Y-71910149D01*
X139787945Y-71782772D01*
X139793999Y-71726471D01*
X139794000Y-71726459D01*
X139794000Y-71589500D01*
X139192000Y-71589500D01*
X139192000Y-72154000D01*
X138938000Y-72154000D01*
X138938000Y-71589500D01*
X138336000Y-71589500D01*
X138336000Y-71726471D01*
X127278737Y-71726471D01*
X127251898Y-71557020D01*
X127245733Y-71518098D01*
X127170149Y-71285475D01*
X127170146Y-71285469D01*
X127059097Y-71067523D01*
X126918120Y-70873485D01*
X126918118Y-70873485D01*
X126270562Y-71521040D01*
X126234888Y-71467649D01*
X126144351Y-71377112D01*
X126090957Y-71341436D01*
X126738513Y-70693880D01*
X126738513Y-70693878D01*
X126544476Y-70552902D01*
X126326530Y-70441853D01*
X126326524Y-70441850D01*
X126093901Y-70366266D01*
X125852299Y-70328000D01*
X125607701Y-70328000D01*
X125366098Y-70366266D01*
X125133475Y-70441850D01*
X125133469Y-70441853D01*
X124915523Y-70552902D01*
X124721485Y-70693878D01*
X124721485Y-70693880D01*
X125369041Y-71341436D01*
X125315649Y-71377112D01*
X125225112Y-71467649D01*
X125189436Y-71521041D01*
X124541880Y-70873485D01*
X124541878Y-70873485D01*
X124400902Y-71067523D01*
X124289853Y-71285469D01*
X124289850Y-71285475D01*
X124214266Y-71518098D01*
X124176000Y-71759701D01*
X120558500Y-71759701D01*
X120558500Y-65703737D01*
X124175500Y-65703737D01*
X124175500Y-67900246D01*
X124175502Y-67900270D01*
X124181959Y-67960339D01*
X124181959Y-67960341D01*
X124232657Y-68096266D01*
X124254515Y-68125465D01*
X124319596Y-68212404D01*
X124435733Y-68299342D01*
X124571658Y-68350040D01*
X124631745Y-68356500D01*
X126828254Y-68356499D01*
X126888342Y-68350040D01*
X127024267Y-68299342D01*
X127140404Y-68212404D01*
X127151749Y-68197248D01*
X138335500Y-68197248D01*
X138335500Y-68706740D01*
X138335501Y-68706755D01*
X138338379Y-68737452D01*
X138338380Y-68737455D01*
X138383628Y-68866767D01*
X138383631Y-68866774D01*
X138464986Y-68977005D01*
X138464990Y-68977010D01*
X138505323Y-69006777D01*
X138508393Y-69010820D01*
X138513012Y-69012930D01*
X138529643Y-69038808D01*
X138548253Y-69063319D01*
X138549398Y-69069548D01*
X138551396Y-69072656D01*
X138556500Y-69108154D01*
X138556500Y-69203347D01*
X138536498Y-69271468D01*
X138506009Y-69304215D01*
X138470669Y-69330669D01*
X138389119Y-69439609D01*
X138389116Y-69439614D01*
X138341559Y-69567115D01*
X138341557Y-69567123D01*
X138335500Y-69623466D01*
X138335500Y-70151533D01*
X138341557Y-70207876D01*
X138341559Y-70207884D01*
X138389116Y-70335385D01*
X138389119Y-70335390D01*
X138470669Y-70444330D01*
X138579609Y-70525880D01*
X138579613Y-70525883D01*
X138663608Y-70557212D01*
X138720443Y-70599758D01*
X138745254Y-70666279D01*
X138730162Y-70735653D01*
X138679960Y-70785855D01*
X138663608Y-70793322D01*
X138579856Y-70824560D01*
X138579851Y-70824562D01*
X138471027Y-70906027D01*
X138389563Y-71014850D01*
X138342054Y-71142227D01*
X138336000Y-71198528D01*
X138336000Y-71335500D01*
X139794000Y-71335500D01*
X139794000Y-71198540D01*
X139793999Y-71198528D01*
X139787945Y-71142227D01*
X139740436Y-71014850D01*
X139658972Y-70906027D01*
X139550149Y-70824563D01*
X139466391Y-70793323D01*
X139409556Y-70750776D01*
X139384745Y-70684255D01*
X139399837Y-70614881D01*
X139450039Y-70564679D01*
X139466374Y-70557218D01*
X139550387Y-70525883D01*
X139659330Y-70444330D01*
X139740883Y-70335387D01*
X139788441Y-70207881D01*
X139794500Y-70151522D01*
X139794500Y-69623478D01*
X139794499Y-69623466D01*
X139788442Y-69567123D01*
X139788440Y-69567115D01*
X139740883Y-69439614D01*
X139740883Y-69439613D01*
X139740267Y-69438790D01*
X139659330Y-69330669D01*
X139623991Y-69304215D01*
X139621209Y-69300498D01*
X139616988Y-69298571D01*
X139600133Y-69272345D01*
X139581444Y-69247379D01*
X139580411Y-69241658D01*
X139578604Y-69238845D01*
X139573500Y-69203347D01*
X139573500Y-69108154D01*
X139593502Y-69040033D01*
X139624674Y-69006778D01*
X139665010Y-68977010D01*
X139746369Y-68866773D01*
X139791621Y-68737451D01*
X139794500Y-68706749D01*
X139794499Y-68197252D01*
X139791621Y-68166549D01*
X139746369Y-68037227D01*
X139746368Y-68037225D01*
X139665010Y-67926989D01*
X139554774Y-67845631D01*
X139554767Y-67845628D01*
X139425453Y-67800379D01*
X139425455Y-67800379D01*
X139400889Y-67798075D01*
X139394749Y-67797500D01*
X139394748Y-67797500D01*
X138735259Y-67797500D01*
X138735244Y-67797501D01*
X138704547Y-67800379D01*
X138704544Y-67800380D01*
X138575232Y-67845628D01*
X138575225Y-67845631D01*
X138464989Y-67926989D01*
X138383631Y-68037225D01*
X138383628Y-68037232D01*
X138338379Y-68166545D01*
X138335500Y-68197248D01*
X127151749Y-68197248D01*
X127227342Y-68096267D01*
X127278040Y-67960342D01*
X127284500Y-67900255D01*
X127284499Y-65703746D01*
X127278040Y-65643658D01*
X127227342Y-65507733D01*
X127140404Y-65391596D01*
X127024267Y-65304658D01*
X127024265Y-65304657D01*
X127024266Y-65304657D01*
X126888349Y-65253962D01*
X126888344Y-65253960D01*
X126888342Y-65253960D01*
X126880831Y-65253152D01*
X126828262Y-65247500D01*
X126828255Y-65247500D01*
X126745500Y-65247500D01*
X126677379Y-65227498D01*
X126630886Y-65173842D01*
X126619500Y-65121500D01*
X126619500Y-64555633D01*
X126639502Y-64487512D01*
X126656405Y-64466538D01*
X127077538Y-64045405D01*
X127139850Y-64011379D01*
X127166633Y-64008500D01*
X138367000Y-64008500D01*
X138435121Y-64028502D01*
X138481614Y-64082158D01*
X138493000Y-64134500D01*
X138493000Y-66197577D01*
X138472998Y-66265698D01*
X138468379Y-66272399D01*
X138464991Y-66276988D01*
X138464990Y-66276990D01*
X138420772Y-66336901D01*
X138383629Y-66387229D01*
X138383628Y-66387232D01*
X138338379Y-66516545D01*
X138335500Y-66547248D01*
X138335500Y-67056740D01*
X138335501Y-67056755D01*
X138338379Y-67087452D01*
X138338380Y-67087455D01*
X138383628Y-67216767D01*
X138383631Y-67216774D01*
X138464989Y-67327010D01*
X138575225Y-67408368D01*
X138575232Y-67408371D01*
X138704546Y-67453620D01*
X138704549Y-67453621D01*
X138735251Y-67456500D01*
X139394748Y-67456499D01*
X139425451Y-67453621D01*
X139554773Y-67408369D01*
X139665010Y-67327010D01*
X139746369Y-67216773D01*
X139791621Y-67087451D01*
X139794500Y-67056749D01*
X139794499Y-66547252D01*
X139791621Y-66516549D01*
X139746369Y-66387227D01*
X139665010Y-66276990D01*
X139665008Y-66276988D01*
X139661621Y-66272399D01*
X139637263Y-66205711D01*
X139637000Y-66197577D01*
X139637000Y-64134500D01*
X139657002Y-64066379D01*
X139710658Y-64019886D01*
X139763000Y-64008500D01*
X165568367Y-64008500D01*
X165636488Y-64028502D01*
X165657462Y-64045405D01*
X166564977Y-64952920D01*
X166710664Y-65050265D01*
X166872542Y-65117317D01*
X167044392Y-65151500D01*
X167219608Y-65151500D01*
X169309501Y-65151500D01*
X169377622Y-65171502D01*
X169424115Y-65225158D01*
X169435501Y-65277500D01*
X169435501Y-66860246D01*
X169435502Y-66860270D01*
X169441959Y-66920339D01*
X169441959Y-66920341D01*
X169492657Y-67056266D01*
X169492658Y-67056267D01*
X169579596Y-67172404D01*
X169695733Y-67259342D01*
X169831658Y-67310040D01*
X169891745Y-67316500D01*
X178088254Y-67316499D01*
X178148342Y-67310040D01*
X178284267Y-67259342D01*
X178400404Y-67172404D01*
X178487342Y-67056267D01*
X178538040Y-66920342D01*
X178544500Y-66860255D01*
X178544499Y-61663746D01*
X178538040Y-61603658D01*
X178487342Y-61467733D01*
X178400404Y-61351596D01*
X178284267Y-61264658D01*
X178284265Y-61264657D01*
X178284266Y-61264657D01*
X178148349Y-61213962D01*
X178148344Y-61213960D01*
X178148342Y-61213960D01*
X178118298Y-61210730D01*
X178088256Y-61207500D01*
X169891753Y-61207500D01*
X169891729Y-61207502D01*
X169831660Y-61213959D01*
X169831658Y-61213959D01*
X169695733Y-61264657D01*
X169579596Y-61351596D01*
X169492657Y-61467734D01*
X169441962Y-61603650D01*
X169441960Y-61603658D01*
X169435500Y-61663737D01*
X169435500Y-63246500D01*
X169415498Y-63314621D01*
X169361842Y-63361114D01*
X169309500Y-63372500D01*
X167552633Y-63372500D01*
X167484512Y-63352498D01*
X167463538Y-63335595D01*
X166556025Y-62428082D01*
X166556023Y-62428080D01*
X166410336Y-62330735D01*
X166248458Y-62263683D01*
X166076610Y-62229500D01*
X166076608Y-62229500D01*
X139279608Y-62229500D01*
X126833608Y-62229500D01*
X126658392Y-62229500D01*
X126658389Y-62229500D01*
X126486541Y-62263683D01*
X126486536Y-62263685D01*
X126324664Y-62330735D01*
X126178981Y-62428077D01*
X126178974Y-62428082D01*
X125039082Y-63567974D01*
X125039077Y-63567981D01*
X124941735Y-63713664D01*
X124874685Y-63875536D01*
X124874683Y-63875541D01*
X124840500Y-64047389D01*
X124840500Y-65121500D01*
X124820498Y-65189621D01*
X124766842Y-65236114D01*
X124714501Y-65247500D01*
X124631754Y-65247500D01*
X124631729Y-65247502D01*
X124571660Y-65253959D01*
X124571658Y-65253959D01*
X124435733Y-65304657D01*
X124319596Y-65391596D01*
X124232657Y-65507734D01*
X124181962Y-65643650D01*
X124181960Y-65643658D01*
X124175500Y-65703737D01*
X120558500Y-65703737D01*
X120558500Y-60636500D01*
X120578502Y-60568379D01*
X120632158Y-60521886D01*
X120684500Y-60510500D01*
X179415500Y-60510500D01*
X179483621Y-60530502D01*
G37*
G04 #@! TD.AperFunction*
G04 #@! TD*
M02*
