M48
; DRILL file {KiCad 9.0.3} date 2025-08-15T00:00:27+0200
; FORMAT={-:-/ absolute / metric / decimal}
; #@! TF.CreationDate,2025-08-15T00:00:27+02:00
; #@! TF.GenerationSoftware,Kicad,Pcbnew,9.0.3
; #@! TF.FileFunction,Plated,1,4,PTH
FMAT,2
METRIC
; #@! TA.AperFunction,Plated,PTH,ViaDrill
T1C0.250
; #@! TA.AperFunction,Plated,PTH,ComponentDrill
T2C0.700
; #@! TA.AperFunction,Plated,PTH,ComponentDrill
T3C1.000
; #@! TA.AperFunction,Plated,PTH,ComponentDrill
T4C1.300
; #@! TA.AperFunction,Plated,PTH,ComponentDrill
T5C1.400
; #@! TA.AperFunction,Plated,PTH,ComponentDrill
T6C1.500
; #@! TA.AperFunction,Plated,PTH,ComponentDrill
T7C1.600
; #@! TA.AperFunction,Plated,PTH,ComponentDrill
T8C2.500
; #@! TA.AperFunction,Plated,PTH,ComponentDrill
T9C3.200
%
G90
G05
T1
X109.982Y-65.786
X109.982Y-69.342
X109.982Y-84.836
X109.982Y-88.392
X111.76Y-54.864
X111.76Y-56.642
X112.268Y-47.117
X113.538Y-67.889
X113.538Y-86.939
X113.792Y-70.104
X113.792Y-89.154
X113.919Y-47.117
X114.935Y-67.889
X114.935Y-86.939
X114.999Y-65.85
X114.999Y-84.9
X115.443Y-47.117
X115.443Y-58.674
X115.443Y-60.071
X116.209Y-90.69
X116.967Y-70.104
X117.856Y-53.721
X118.11Y-49.276
X118.11Y-51.181
X118.11Y-66.04
X118.11Y-69.215
X118.11Y-85.09
X118.11Y-88.265
X118.11Y-89.281
X118.364Y-70.231
X119.38Y-49.276
X119.38Y-51.181
X119.634Y-66.04
X119.634Y-69.215
X119.634Y-85.09
X119.634Y-88.265
X120.269Y-65.024
X120.269Y-84.074
X120.459Y-71.056
X120.459Y-90.233
X120.904Y-60.071
X121.285Y-54.102
X121.285Y-55.245
X121.285Y-56.261
X122.174Y-60.071
X122.428Y-57.658
X122.738Y-67.889
X122.738Y-86.939
X123.063Y-53.467
X123.317Y-70.104
X123.317Y-89.154
X124.333Y-53.467
X124.397Y-64.199
X124.397Y-83.122
X124.46Y-73.152
X124.714Y-92.964
X126.492Y-48.514
X126.492Y-49.784
X126.619Y-70.104
X127.444Y-90.488
X127.445Y-71.438
X127.508Y-65.913
X127.508Y-69.088
X127.508Y-84.963
X127.508Y-88.138
X127.635Y-43.053
X128.016Y-48.514
X128.016Y-49.784
X129.479Y-62.799
X129.479Y-81.849
X130.429Y-62.357
X130.429Y-81.407
X131.379Y-62.799
X131.379Y-81.849
X131.572Y-74.041
X131.572Y-93.091
X131.953Y-65.659
X131.953Y-84.709
X133.289Y-62.296
X133.289Y-81.346
X133.35Y-43.942
X133.731Y-66.294
X133.858Y-44.704
X133.985Y-72.263
X133.985Y-91.313
X134.239Y-89.662
X134.366Y-43.942
X134.559Y-71.313
X136.525Y-84.709
X137.287Y-52.959
X139.258Y-68.514
X139.258Y-87.564
X139.7Y-56.007
X140.589Y-83.185
X141.351Y-64.897
X141.351Y-75.692
X141.351Y-78.994
X141.351Y-94.742
X141.351Y-98.044
X141.605Y-55.753
X141.732Y-58.293
X141.859Y-67.945
X141.859Y-86.995
X142.621Y-70.358
X142.621Y-89.408
X142.875Y-43.942
X143.002Y-66.929
X143.002Y-85.979
X143.168Y-51.222
X143.891Y-42.799
X144.112Y-69.215
X144.112Y-88.265
X144.399Y-50.8
X144.399Y-52.197
X144.907Y-56.007
X145.288Y-64.262
X145.288Y-70.947
X145.288Y-83.312
X145.288Y-89.997
X145.415Y-66.929
X145.415Y-68.199
X145.415Y-85.979
X145.415Y-87.249
X145.923Y-50.8
X145.923Y-52.197
X145.923Y-56.007
X146.304Y-42.799
X146.685Y-70.739
X146.685Y-89.789
X146.731Y-66.929
X146.731Y-68.199
X146.731Y-85.979
X146.731Y-87.249
X147.159Y-51.872
X147.207Y-53.172
X147.32Y-72.517
X147.32Y-91.567
X147.574Y-70.612
X147.574Y-89.662
X148.717Y-42.799
X149.225Y-58.293
X149.288Y-66.611
X149.288Y-85.661
X149.341Y-49.922
X149.352Y-51.054
X149.479Y-70.358
X149.479Y-89.408
X149.733Y-43.942
X150.241Y-74.549
X150.241Y-77.978
X150.241Y-93.599
X150.241Y-97.028
X150.368Y-67.945
X150.368Y-86.995
X151.892Y-69.85
X152.337Y-52.134
X152.527Y-55.245
X153.416Y-54.864
X154.432Y-54.864
X154.432Y-88.519
X155.448Y-58.801
X155.448Y-59.944
X156.972Y-42.545
X156.972Y-44.069
X156.972Y-45.466
X157.988Y-74.295
X157.988Y-76.835
X157.988Y-79.375
X157.988Y-81.915
X158.623Y-50.159
X158.623Y-53.215
X159.131Y-51.719
X159.385Y-46.482
X159.639Y-50.165
X159.639Y-53.213
X159.893Y-60.579
X160.147Y-74.295
X160.147Y-88.392
X160.16Y-90.03
X160.528Y-57.023
X160.625Y-51.719
X161.29Y-93.116
X161.417Y-60.579
X161.798Y-100.33
X162.814Y-53.848
X162.814Y-54.61
X163.195Y-58.674
X163.576Y-45.593
X163.585Y-100.067
X163.957Y-48.133
X164.211Y-67.564
X164.211Y-76.962
X164.729Y-51.697
X164.729Y-52.84
X165.481Y-72.771
X165.669Y-45.72
X166.253Y-51.697
X166.253Y-52.84
X166.497Y-45.72
X166.5Y-87.5
X167.325Y-45.72
X167.64Y-70.485
X168.529Y-99.314
X168.91Y-105.283
X169.037Y-86.233
X169.672Y-91.694
X169.926Y-48.514
X170.434Y-46.609
X170.561Y-57.785
X171.132Y-67.754
X171.389Y-86.548
X171.831Y-65.786
X171.831Y-66.802
X172.212Y-51.816
X172.212Y-52.832
X172.72Y-65.786
X172.72Y-66.802
X173.101Y-79.883
X173.228Y-51.816
X173.228Y-52.832
X173.228Y-71.501
X174.117Y-75.946
X174.879Y-93.218
X175.133Y-100.457
X175.133Y-103.886
X175.514Y-82.677
X176.657Y-67.691
X177.165Y-87.884
X177.546Y-67.818
X177.546Y-70.231
X177.673Y-75.946
X178.308Y-86.233
X179.07Y-91.694
X181.737Y-86.233
X182.372Y-91.694
X182.436Y-92.901
X182.626Y-63.373
X182.626Y-64.643
X182.626Y-66.04
X182.753Y-59.944
X182.753Y-61.595
X185.166Y-63.5
X185.166Y-65.278
X185.674Y-82.677
X186.69Y-82.677
X186.69Y-89.535
X186.944Y-54.61
X187.071Y-51.943
X187.833Y-78.994
X187.96Y-86.233
X187.96Y-89.535
X188.214Y-59.563
X188.214Y-60.452
X188.282Y-92.642
X188.834Y-50.901
X188.849Y-51.816
X188.849Y-52.705
X189.484Y-60.96
X189.611Y-78.948
X189.865Y-50.927
X189.865Y-51.816
X189.865Y-52.705
X191.196Y-64.201
X192.278Y-91.948
X193.675Y-64.262
X194.625Y-60.137
X195.326Y-85.725
X195.326Y-88.519
X197.993Y-86.614
X198.12Y-85.471
X203.2Y-71.882
X203.2Y-72.644
X204.47Y-81.915
X204.711Y-84.595
X204.724Y-77.724
X204.724Y-78.994
X208.153Y-55.88
X208.153Y-56.769
X208.153Y-57.658
T2
X183.769Y-102.108
X185.039Y-100.838
X185.039Y-103.378
X186.309Y-102.108
T3
X213.8Y-56.8
X213.8Y-59.34
X213.8Y-61.88
X213.8Y-64.42
X213.8Y-66.96
X213.8Y-69.5
X213.8Y-79.8
X213.8Y-82.34
X213.8Y-84.88
X213.8Y-87.42
X213.8Y-89.96
X213.8Y-92.5
X216.34Y-56.8
X216.34Y-59.34
X216.34Y-61.88
X216.34Y-64.42
X216.34Y-66.96
X216.34Y-69.5
X216.34Y-79.8
X216.34Y-82.34
X216.34Y-84.88
X216.34Y-87.42
X216.34Y-89.96
X216.34Y-92.5
T4
X187.325Y-46.055
X192.405Y-46.055
T5
X176.273Y-48.26
X176.273Y-50.8
X176.273Y-53.34
T6
X95.494Y-62.484
X95.494Y-72.644
X95.494Y-81.534
X95.494Y-91.694
X105.654Y-62.484
X105.654Y-72.644
X105.654Y-81.534
X105.654Y-91.694
T7
X120.523Y-79.121
X200.533Y-56.007
T8
X101.854Y-67.564
X101.854Y-86.614
T9
X94.0Y-46.0
X94.0Y-104.0
X215.0Y-46.0
X215.0Y-104.0
M30
