G04 #@! TF.GenerationSoftware,KiCad,Pcbnew,9.0.3*
G04 #@! TF.CreationDate,2025-08-15T00:00:32+02:00*
G04 #@! TF.ProjectId,MADC_ARTY,4d414443-5f41-4525-9459-2e6b69636164,rev?*
G04 #@! TF.SameCoordinates,Original*
G04 #@! TF.FileFunction,Soldermask,Bot*
G04 #@! TF.FilePolarity,Negative*
%FSLAX46Y46*%
G04 Gerber Fmt 4.6, Leading zero omitted, Abs format (unit mm)*
G04 Created by KiCad (PCBNEW 9.0.3) date 2025-08-15 00:00:32*
%MOMM*%
%LPD*%
G01*
G04 APERTURE LIST*
G04 Aperture macros list*
%AMRoundRect*
0 Rectangle with rounded corners*
0 $1 Rounding radius*
0 $2 $3 $4 $5 $6 $7 $8 $9 X,Y pos of 4 corners*
0 Add a 4 corners polygon primitive as box body*
4,1,4,$2,$3,$4,$5,$6,$7,$8,$9,$2,$3,0*
0 Add four circle primitives for the rounded corners*
1,1,$1+$1,$2,$3*
1,1,$1+$1,$4,$5*
1,1,$1+$1,$6,$7*
1,1,$1+$1,$8,$9*
0 Add four rect primitives between the rounded corners*
20,1,$1+$1,$2,$3,$4,$5,0*
20,1,$1+$1,$4,$5,$6,$7,0*
20,1,$1+$1,$6,$7,$8,$9,0*
20,1,$1+$1,$8,$9,$2,$3,0*%
G04 Aperture macros list end*
%ADD10C,2.500000*%
%ADD11C,3.500000*%
%ADD12RoundRect,0.250000X0.750000X0.750000X-0.750000X0.750000X-0.750000X-0.750000X0.750000X-0.750000X0*%
%ADD13C,2.000000*%
%ADD14C,5.600000*%
%ADD15C,2.800000*%
%ADD16O,1.600000X1.200000*%
%ADD17C,1.200000*%
%ADD18R,1.700000X1.700000*%
%ADD19C,1.700000*%
%ADD20RoundRect,0.250000X1.050000X1.050000X-1.050000X1.050000X-1.050000X-1.050000X1.050000X-1.050000X0*%
%ADD21C,2.600000*%
%ADD22RoundRect,0.200000X-0.200000X-0.275000X0.200000X-0.275000X0.200000X0.275000X-0.200000X0.275000X0*%
%ADD23RoundRect,0.150000X-0.587500X-0.150000X0.587500X-0.150000X0.587500X0.150000X-0.587500X0.150000X0*%
%ADD24RoundRect,0.200000X0.275000X-0.200000X0.275000X0.200000X-0.275000X0.200000X-0.275000X-0.200000X0*%
%ADD25RoundRect,0.200000X-0.275000X0.200000X-0.275000X-0.200000X0.275000X-0.200000X0.275000X0.200000X0*%
%ADD26RoundRect,0.225000X0.225000X0.250000X-0.225000X0.250000X-0.225000X-0.250000X0.225000X-0.250000X0*%
%ADD27RoundRect,0.225000X-0.250000X0.225000X-0.250000X-0.225000X0.250000X-0.225000X0.250000X0.225000X0*%
%ADD28RoundRect,0.150000X-0.150000X0.587500X-0.150000X-0.587500X0.150000X-0.587500X0.150000X0.587500X0*%
%ADD29RoundRect,0.200000X0.200000X0.275000X-0.200000X0.275000X-0.200000X-0.275000X0.200000X-0.275000X0*%
G04 APERTURE END LIST*
D10*
G04 #@! TO.C,J1*
X105654000Y-72644000D03*
X105654000Y-62484000D03*
X95494000Y-72644000D03*
X95494000Y-62484000D03*
D11*
X101854000Y-67564000D03*
G04 #@! TD*
D12*
G04 #@! TO.C,U3*
X176273500Y-53340000D03*
D13*
X176273500Y-50800000D03*
X176273500Y-48260000D03*
G04 #@! TD*
D14*
G04 #@! TO.C,H2*
X215000000Y-46000000D03*
G04 #@! TD*
D15*
G04 #@! TO.C,TP7*
X120523000Y-79121000D03*
G04 #@! TD*
G04 #@! TO.C,TP6*
X200533000Y-56007000D03*
G04 #@! TD*
D10*
G04 #@! TO.C,J2*
X105654000Y-91694000D03*
X105654000Y-81534000D03*
X95494000Y-91694000D03*
X95494000Y-81534000D03*
D11*
X101854000Y-86614000D03*
G04 #@! TD*
D16*
G04 #@! TO.C,U21*
X183769000Y-102108000D03*
D17*
X185039000Y-103378000D03*
X186309000Y-102108000D03*
X185039000Y-100838000D03*
G04 #@! TD*
D14*
G04 #@! TO.C,H3*
X94000000Y-104000000D03*
G04 #@! TD*
G04 #@! TO.C,H4*
X215000000Y-104000000D03*
G04 #@! TD*
G04 #@! TO.C,H1*
X94000000Y-46000000D03*
G04 #@! TD*
D18*
G04 #@! TO.C,J5*
X213800000Y-56800000D03*
D19*
X216340000Y-56800000D03*
X213800000Y-59340000D03*
X216340000Y-59340000D03*
X213800000Y-61880000D03*
X216340000Y-61880000D03*
X213800000Y-64420000D03*
X216340000Y-64420000D03*
X213800000Y-66960000D03*
X216340000Y-66960000D03*
X213800000Y-69500000D03*
X216340000Y-69500000D03*
G04 #@! TD*
D18*
G04 #@! TO.C,J4*
X213800000Y-79800000D03*
D19*
X216340000Y-79800000D03*
X213800000Y-82340000D03*
X216340000Y-82340000D03*
X213800000Y-84880000D03*
X216340000Y-84880000D03*
X213800000Y-87420000D03*
X216340000Y-87420000D03*
X213800000Y-89960000D03*
X216340000Y-89960000D03*
X213800000Y-92500000D03*
X216340000Y-92500000D03*
G04 #@! TD*
D20*
G04 #@! TO.C,J3*
X192405000Y-46055500D03*
D21*
X187325000Y-46055500D03*
G04 #@! TD*
D22*
G04 #@! TO.C,R15*
X150051000Y-55245000D03*
X151701000Y-55245000D03*
G04 #@! TD*
D23*
G04 #@! TO.C,Q6*
X133427500Y-73213000D03*
X133427500Y-71313000D03*
X135302500Y-72263000D03*
G04 #@! TD*
D24*
G04 #@! TO.C,R67*
X183261000Y-94551000D03*
X183261000Y-92901000D03*
G04 #@! TD*
G04 #@! TO.C,R66*
X185039000Y-94551000D03*
X185039000Y-92901000D03*
G04 #@! TD*
D25*
G04 #@! TO.C,R65*
X186817000Y-92901000D03*
X186817000Y-94551000D03*
G04 #@! TD*
D26*
G04 #@! TO.C,C15*
X147206000Y-53848000D03*
X145656000Y-53848000D03*
G04 #@! TD*
D22*
G04 #@! TO.C,R97*
X144082000Y-47752000D03*
X145732000Y-47752000D03*
G04 #@! TD*
G04 #@! TO.C,R96*
X141034000Y-47752000D03*
X142684000Y-47752000D03*
G04 #@! TD*
G04 #@! TO.C,R95*
X138875000Y-55245000D03*
X140525000Y-55245000D03*
G04 #@! TD*
D27*
G04 #@! TO.C,C10*
X147193000Y-49263000D03*
X147193000Y-50813000D03*
G04 #@! TD*
D25*
G04 #@! TO.C,R90*
X211328000Y-82360000D03*
X211328000Y-84010000D03*
G04 #@! TD*
D22*
G04 #@! TO.C,R98*
X146622000Y-56642000D03*
X148272000Y-56642000D03*
G04 #@! TD*
D28*
G04 #@! TO.C,Q10*
X129479000Y-80596500D03*
X131379000Y-80596500D03*
X130429000Y-82471500D03*
G04 #@! TD*
D25*
G04 #@! TO.C,R25*
X151638000Y-52134000D03*
X151638000Y-53784000D03*
G04 #@! TD*
D29*
G04 #@! TO.C,R36*
X159956000Y-57023000D03*
X158306000Y-57023000D03*
G04 #@! TD*
D23*
G04 #@! TO.C,Q14*
X133427500Y-92263000D03*
X133427500Y-90363000D03*
X135302500Y-91313000D03*
G04 #@! TD*
D25*
G04 #@! TO.C,R24*
X137287000Y-53658000D03*
X137287000Y-55308000D03*
G04 #@! TD*
D29*
G04 #@! TO.C,R99*
X144208000Y-56642000D03*
X142558000Y-56642000D03*
G04 #@! TD*
G04 #@! TO.C,R35*
X128206000Y-43053000D03*
X126556000Y-43053000D03*
G04 #@! TD*
D22*
G04 #@! TO.C,R32*
X158306000Y-46482000D03*
X159956000Y-46482000D03*
G04 #@! TD*
D28*
G04 #@! TO.C,Q2*
X129479000Y-61546500D03*
X131379000Y-61546500D03*
X130429000Y-63421500D03*
G04 #@! TD*
D29*
G04 #@! TO.C,R45*
X160718000Y-74295000D03*
X159068000Y-74295000D03*
G04 #@! TD*
G04 #@! TO.C,R44*
X160718000Y-79375000D03*
X159068000Y-79375000D03*
G04 #@! TD*
M02*
