G04 #@! TF.GenerationSoftware,KiCad,Pcbnew,9.0.3*
G04 #@! TF.CreationDate,2025-08-15T00:00:32+02:00*
G04 #@! TF.ProjectId,MADC_ARTY,4d414443-5f41-4525-9459-2e6b69636164,rev?*
G04 #@! TF.SameCoordinates,Original*
G04 #@! TF.FileFunction,Soldermask,Top*
G04 #@! TF.FilePolarity,Negative*
%FSLAX46Y46*%
G04 Gerber Fmt 4.6, Leading zero omitted, Abs format (unit mm)*
G04 Created by KiCad (PCBNEW 9.0.3) date 2025-08-15 00:00:32*
%MOMM*%
%LPD*%
G01*
G04 APERTURE LIST*
G04 Aperture macros list*
%AMRoundRect*
0 Rectangle with rounded corners*
0 $1 Rounding radius*
0 $2 $3 $4 $5 $6 $7 $8 $9 X,Y pos of 4 corners*
0 Add a 4 corners polygon primitive as box body*
4,1,4,$2,$3,$4,$5,$6,$7,$8,$9,$2,$3,0*
0 Add four circle primitives for the rounded corners*
1,1,$1+$1,$2,$3*
1,1,$1+$1,$4,$5*
1,1,$1+$1,$6,$7*
1,1,$1+$1,$8,$9*
0 Add four rect primitives between the rounded corners*
20,1,$1+$1,$2,$3,$4,$5,0*
20,1,$1+$1,$4,$5,$6,$7,0*
20,1,$1+$1,$6,$7,$8,$9,0*
20,1,$1+$1,$8,$9,$2,$3,0*%
%AMFreePoly0*
4,1,21,1.372500,0.787500,0.862500,0.787500,0.862500,0.532500,1.372500,0.532500,1.372500,0.127500,0.862500,0.127500,0.862500,-0.127500,1.372500,-0.127500,1.372500,-0.532500,0.862500,-0.532500,0.862500,-0.787500,1.372500,-0.787500,1.372500,-1.195000,0.612500,-1.195000,0.612500,-1.117500,-0.862500,-1.117500,-0.862500,1.117500,0.612500,1.117500,0.612500,1.195000,1.372500,1.195000,
1.372500,0.787500,1.372500,0.787500,$1*%
G04 Aperture macros list end*
%ADD10RoundRect,0.200000X0.200000X0.275000X-0.200000X0.275000X-0.200000X-0.275000X0.200000X-0.275000X0*%
%ADD11RoundRect,0.225000X0.225000X0.250000X-0.225000X0.250000X-0.225000X-0.250000X0.225000X-0.250000X0*%
%ADD12C,2.000000*%
%ADD13RoundRect,0.250000X0.650000X-0.325000X0.650000X0.325000X-0.650000X0.325000X-0.650000X-0.325000X0*%
%ADD14RoundRect,0.225000X-0.225000X-0.250000X0.225000X-0.250000X0.225000X0.250000X-0.225000X0.250000X0*%
%ADD15RoundRect,0.093750X0.106250X-0.093750X0.106250X0.093750X-0.106250X0.093750X-0.106250X-0.093750X0*%
%ADD16R,1.600000X1.000000*%
%ADD17RoundRect,0.200000X-0.275000X0.200000X-0.275000X-0.200000X0.275000X-0.200000X0.275000X0.200000X0*%
%ADD18RoundRect,0.100000X-0.612500X-0.100000X0.612500X-0.100000X0.612500X0.100000X-0.612500X0.100000X0*%
%ADD19R,1.730000X1.850000*%
%ADD20RoundRect,0.225000X-0.250000X0.225000X-0.250000X-0.225000X0.250000X-0.225000X0.250000X0.225000X0*%
%ADD21RoundRect,0.150000X-0.825000X-0.150000X0.825000X-0.150000X0.825000X0.150000X-0.825000X0.150000X0*%
%ADD22R,2.290000X3.000000*%
%ADD23RoundRect,0.075000X-0.362500X-0.075000X0.362500X-0.075000X0.362500X0.075000X-0.362500X0.075000X0*%
%ADD24RoundRect,0.075000X-0.075000X-0.362500X0.075000X-0.362500X0.075000X0.362500X-0.075000X0.362500X0*%
%ADD25R,2.350000X2.350000*%
%ADD26RoundRect,0.200000X-0.200000X-0.275000X0.200000X-0.275000X0.200000X0.275000X-0.200000X0.275000X0*%
%ADD27R,1.200000X0.800000*%
%ADD28RoundRect,0.150000X-0.587500X-0.150000X0.587500X-0.150000X0.587500X0.150000X-0.587500X0.150000X0*%
%ADD29RoundRect,0.200000X0.275000X-0.200000X0.275000X0.200000X-0.275000X0.200000X-0.275000X-0.200000X0*%
%ADD30RoundRect,0.150000X0.150000X-0.587500X0.150000X0.587500X-0.150000X0.587500X-0.150000X-0.587500X0*%
%ADD31RoundRect,0.225000X0.250000X-0.225000X0.250000X0.225000X-0.250000X0.225000X-0.250000X-0.225000X0*%
%ADD32RoundRect,0.250000X-0.650000X0.325000X-0.650000X-0.325000X0.650000X-0.325000X0.650000X0.325000X0*%
%ADD33RoundRect,0.225000X0.225000X0.375000X-0.225000X0.375000X-0.225000X-0.375000X0.225000X-0.375000X0*%
%ADD34C,2.500000*%
%ADD35C,3.500000*%
%ADD36RoundRect,0.250000X0.750000X0.750000X-0.750000X0.750000X-0.750000X-0.750000X0.750000X-0.750000X0*%
%ADD37RoundRect,0.250000X-0.325000X-0.650000X0.325000X-0.650000X0.325000X0.650000X-0.325000X0.650000X0*%
%ADD38C,5.600000*%
%ADD39RoundRect,0.245000X0.245000X1.455000X-0.245000X1.455000X-0.245000X-1.455000X0.245000X-1.455000X0*%
%ADD40RoundRect,0.100000X-0.712500X-0.100000X0.712500X-0.100000X0.712500X0.100000X-0.712500X0.100000X0*%
%ADD41RoundRect,0.150000X-0.150000X0.587500X-0.150000X-0.587500X0.150000X-0.587500X0.150000X0.587500X0*%
%ADD42C,2.800000*%
%ADD43R,0.990000X0.405000*%
%ADD44FreePoly0,0.000000*%
%ADD45RoundRect,0.250000X0.325000X0.650000X-0.325000X0.650000X-0.325000X-0.650000X0.325000X-0.650000X0*%
%ADD46RoundRect,0.093750X-0.106250X0.093750X-0.106250X-0.093750X0.106250X-0.093750X0.106250X0.093750X0*%
%ADD47RoundRect,0.250000X-0.250000X-0.475000X0.250000X-0.475000X0.250000X0.475000X-0.250000X0.475000X0*%
%ADD48O,1.600000X1.200000*%
%ADD49C,1.200000*%
%ADD50RoundRect,0.150000X0.512500X0.150000X-0.512500X0.150000X-0.512500X-0.150000X0.512500X-0.150000X0*%
%ADD51RoundRect,0.250000X-0.500000X0.950000X-0.500000X-0.950000X0.500000X-0.950000X0.500000X0.950000X0*%
%ADD52RoundRect,0.250000X-0.500000X0.275000X-0.500000X-0.275000X0.500000X-0.275000X0.500000X0.275000X0*%
%ADD53RoundRect,0.245000X1.455000X-0.245000X1.455000X0.245000X-1.455000X0.245000X-1.455000X-0.245000X0*%
%ADD54RoundRect,0.250000X0.500000X-0.950000X0.500000X0.950000X-0.500000X0.950000X-0.500000X-0.950000X0*%
%ADD55RoundRect,0.250000X0.500000X-0.275000X0.500000X0.275000X-0.500000X0.275000X-0.500000X-0.275000X0*%
%ADD56RoundRect,0.150000X-0.150000X0.825000X-0.150000X-0.825000X0.150000X-0.825000X0.150000X0.825000X0*%
%ADD57R,3.000000X2.290000*%
%ADD58RoundRect,0.250000X0.250000X0.475000X-0.250000X0.475000X-0.250000X-0.475000X0.250000X-0.475000X0*%
%ADD59RoundRect,0.150000X0.587500X0.150000X-0.587500X0.150000X-0.587500X-0.150000X0.587500X-0.150000X0*%
%ADD60RoundRect,0.175000X0.575000X-0.175000X0.575000X0.175000X-0.575000X0.175000X-0.575000X-0.175000X0*%
%ADD61RoundRect,0.175000X0.175000X-0.575000X0.175000X0.575000X-0.175000X0.575000X-0.175000X-0.575000X0*%
%ADD62RoundRect,0.175000X-0.575000X-0.175000X0.575000X-0.175000X0.575000X0.175000X-0.575000X0.175000X0*%
%ADD63RoundRect,0.175000X0.175000X-1.075000X0.175000X1.075000X-0.175000X1.075000X-0.175000X-1.075000X0*%
%ADD64R,1.700000X1.700000*%
%ADD65C,1.700000*%
%ADD66RoundRect,0.250000X2.100000X-0.340000X2.100000X0.340000X-2.100000X0.340000X-2.100000X-0.340000X0*%
%ADD67R,1.450000X0.450000*%
%ADD68R,3.000000X4.200000*%
%ADD69R,0.750000X2.100000*%
%ADD70RoundRect,0.237500X-0.237500X0.287500X-0.237500X-0.287500X0.237500X-0.287500X0.237500X0.287500X0*%
%ADD71RoundRect,0.250000X-0.475000X0.250000X-0.475000X-0.250000X0.475000X-0.250000X0.475000X0.250000X0*%
%ADD72RoundRect,0.250000X1.050000X1.050000X-1.050000X1.050000X-1.050000X-1.050000X1.050000X-1.050000X0*%
%ADD73C,2.600000*%
G04 APERTURE END LIST*
D10*
G04 #@! TO.C,R74*
X166941000Y-84455000D03*
X165291000Y-84455000D03*
G04 #@! TD*
D11*
G04 #@! TO.C,C52*
X125743000Y-89154000D03*
X124193000Y-89154000D03*
G04 #@! TD*
D12*
G04 #@! TO.C,TP10*
X132080000Y-42680500D03*
G04 #@! TD*
D13*
G04 #@! TO.C,C21*
X153289000Y-49354000D03*
X153289000Y-46404000D03*
G04 #@! TD*
D14*
G04 #@! TO.C,C7*
X146672000Y-56642000D03*
X148222000Y-56642000D03*
G04 #@! TD*
D15*
G04 #@! TO.C,U7*
X117206000Y-56132500D03*
X117856000Y-56132500D03*
X118506000Y-56132500D03*
X118506000Y-54357500D03*
X117856000Y-54357500D03*
X117206000Y-54357500D03*
D16*
X117856000Y-55245000D03*
G04 #@! TD*
D12*
G04 #@! TO.C,TP27*
X207518000Y-69850000D03*
G04 #@! TD*
D10*
G04 #@! TO.C,R57*
X194627000Y-86487000D03*
X192977000Y-86487000D03*
G04 #@! TD*
D17*
G04 #@! TO.C,R59*
X191389000Y-79820000D03*
X191389000Y-81470000D03*
G04 #@! TD*
D18*
G04 #@! TO.C,RN2*
X170049500Y-65319000D03*
X170049500Y-65969000D03*
X170049500Y-66619000D03*
X170049500Y-67269000D03*
X174374500Y-67269000D03*
X174374500Y-66619000D03*
X174374500Y-65969000D03*
X174374500Y-65319000D03*
D19*
X172212000Y-66294000D03*
G04 #@! TD*
D20*
G04 #@! TO.C,C3*
X149479000Y-67932000D03*
X149479000Y-69482000D03*
G04 #@! TD*
D21*
G04 #@! TO.C,U5*
X116270000Y-48387000D03*
X116270000Y-49657000D03*
X116270000Y-50927000D03*
X116270000Y-52197000D03*
X121220000Y-52197000D03*
X121220000Y-50927000D03*
X121220000Y-49657000D03*
X121220000Y-48387000D03*
D22*
X118745000Y-50292000D03*
G04 #@! TD*
D23*
G04 #@! TO.C,U25*
X144112500Y-85639000D03*
X144112500Y-86289000D03*
X144112500Y-86939000D03*
X144112500Y-87589000D03*
D24*
X145075000Y-88551500D03*
X145725000Y-88551500D03*
X146375000Y-88551500D03*
X147025000Y-88551500D03*
D23*
X147987500Y-87589000D03*
X147987500Y-86939000D03*
X147987500Y-86289000D03*
X147987500Y-85639000D03*
D24*
X147025000Y-84676500D03*
X146375000Y-84676500D03*
X145725000Y-84676500D03*
X145075000Y-84676500D03*
D25*
X146050000Y-86614000D03*
G04 #@! TD*
D17*
G04 #@! TO.C,R20*
X150114000Y-52134000D03*
X150114000Y-53784000D03*
G04 #@! TD*
D26*
G04 #@! TO.C,R75*
X209106000Y-56769000D03*
X210756000Y-56769000D03*
G04 #@! TD*
D27*
G04 #@! TO.C,U11*
X156893000Y-79375000D03*
X156893000Y-81915000D03*
X162893000Y-81915000D03*
X162893000Y-79375000D03*
G04 #@! TD*
D20*
G04 #@! TO.C,C45*
X166624000Y-93332000D03*
X166624000Y-94882000D03*
G04 #@! TD*
D13*
G04 #@! TO.C,C20*
X132080000Y-52783000D03*
X132080000Y-49833000D03*
G04 #@! TD*
D12*
G04 #@! TO.C,TP20*
X155321000Y-91313000D03*
G04 #@! TD*
D15*
G04 #@! TO.C,U9*
X158481000Y-54227500D03*
X159131000Y-54227500D03*
X159781000Y-54227500D03*
X159781000Y-52452500D03*
X159131000Y-52452500D03*
X158481000Y-52452500D03*
D16*
X159131000Y-53340000D03*
G04 #@! TD*
D28*
G04 #@! TO.C,Q13*
X133428500Y-90363000D03*
X133428500Y-92263000D03*
X135303500Y-91313000D03*
G04 #@! TD*
D29*
G04 #@! TO.C,R89*
X131572000Y-92138000D03*
X131572000Y-90488000D03*
G04 #@! TD*
G04 #@! TO.C,R61*
X191008000Y-92646000D03*
X191008000Y-90996000D03*
G04 #@! TD*
D12*
G04 #@! TO.C,TP23*
X210185000Y-67945000D03*
G04 #@! TD*
D30*
G04 #@! TO.C,Q4*
X133289000Y-63421500D03*
X135189000Y-63421500D03*
X134239000Y-61546500D03*
G04 #@! TD*
D10*
G04 #@! TO.C,R78*
X120459000Y-89281000D03*
X118809000Y-89281000D03*
G04 #@! TD*
D31*
G04 #@! TO.C,C35*
X119634000Y-68339000D03*
X119634000Y-66789000D03*
G04 #@! TD*
D12*
G04 #@! TO.C,TP33*
X152019000Y-91567000D03*
G04 #@! TD*
D17*
G04 #@! TO.C,R18*
X113665000Y-49340000D03*
X113665000Y-50990000D03*
G04 #@! TD*
D11*
G04 #@! TO.C,C51*
X116218000Y-89154000D03*
X114668000Y-89154000D03*
G04 #@! TD*
D32*
G04 #@! TO.C,C17*
X111633000Y-49325000D03*
X111633000Y-52275000D03*
G04 #@! TD*
D29*
G04 #@! TO.C,R37*
X129667000Y-44640000D03*
X129667000Y-42990000D03*
G04 #@! TD*
D26*
G04 #@! TO.C,R40*
X166053000Y-65278000D03*
X167703000Y-65278000D03*
G04 #@! TD*
D33*
G04 #@! TO.C,D2*
X186943000Y-64643000D03*
X183643000Y-64643000D03*
G04 #@! TD*
D12*
G04 #@! TO.C,TP14*
X165481000Y-69850000D03*
G04 #@! TD*
D34*
G04 #@! TO.C,J1*
X105654000Y-72644000D03*
X105654000Y-62484000D03*
X95494000Y-72644000D03*
X95494000Y-62484000D03*
D35*
X101854000Y-67564000D03*
G04 #@! TD*
D36*
G04 #@! TO.C,U3*
X176273500Y-53340000D03*
D12*
X176273500Y-50800000D03*
X176273500Y-48260000D03*
G04 #@! TD*
D29*
G04 #@! TO.C,R39*
X161417000Y-48069000D03*
X161417000Y-46419000D03*
G04 #@! TD*
D17*
G04 #@! TO.C,R49*
X176784000Y-78550000D03*
X176784000Y-80200000D03*
G04 #@! TD*
D12*
G04 #@! TO.C,TP4*
X152019000Y-72517000D03*
G04 #@! TD*
D10*
G04 #@! TO.C,R51*
X113347000Y-65024000D03*
X111697000Y-65024000D03*
G04 #@! TD*
D12*
G04 #@! TO.C,TP1*
X126111000Y-73152000D03*
G04 #@! TD*
D26*
G04 #@! TO.C,R47*
X164910000Y-74676000D03*
X166560000Y-74676000D03*
G04 #@! TD*
D12*
G04 #@! TO.C,TP30*
X126111000Y-92202000D03*
G04 #@! TD*
D37*
G04 #@! TO.C,C19*
X120191000Y-55245000D03*
X123141000Y-55245000D03*
G04 #@! TD*
D26*
G04 #@! TO.C,R84*
X129604000Y-78867000D03*
X131254000Y-78867000D03*
G04 #@! TD*
D30*
G04 #@! TO.C,Q12*
X133289000Y-82471500D03*
X135189000Y-82471500D03*
X134239000Y-80596500D03*
G04 #@! TD*
D11*
G04 #@! TO.C,C39*
X125743000Y-70104000D03*
X124193000Y-70104000D03*
G04 #@! TD*
D38*
G04 #@! TO.C,H2*
X215000000Y-46000000D03*
G04 #@! TD*
D39*
G04 #@! TO.C,L1*
X188002000Y-56896000D03*
X185632000Y-56896000D03*
G04 #@! TD*
D12*
G04 #@! TO.C,TP18*
X159258000Y-94107000D03*
G04 #@! TD*
D29*
G04 #@! TO.C,R82*
X130048000Y-92138000D03*
X130048000Y-90488000D03*
G04 #@! TD*
D20*
G04 #@! TO.C,C55*
X149479000Y-86982000D03*
X149479000Y-88532000D03*
G04 #@! TD*
D17*
G04 #@! TO.C,R68*
X161798000Y-101156000D03*
X161798000Y-102806000D03*
G04 #@! TD*
D14*
G04 #@! TO.C,C9*
X138925000Y-53721000D03*
X140475000Y-53721000D03*
G04 #@! TD*
D12*
G04 #@! TO.C,TP28*
X207518000Y-66040000D03*
G04 #@! TD*
D29*
G04 #@! TO.C,R81*
X128524000Y-92138000D03*
X128524000Y-90488000D03*
G04 #@! TD*
D26*
G04 #@! TO.C,R5*
X144971000Y-72517000D03*
X146621000Y-72517000D03*
G04 #@! TD*
D10*
G04 #@! TO.C,R54*
X122745000Y-65024000D03*
X121095000Y-65024000D03*
G04 #@! TD*
D26*
G04 #@! TO.C,R83*
X141923000Y-91567000D03*
X143573000Y-91567000D03*
G04 #@! TD*
D40*
G04 #@! TO.C,U24*
X121458500Y-85639000D03*
X121458500Y-86289000D03*
X121458500Y-86939000D03*
X121458500Y-87589000D03*
X125683500Y-87589000D03*
X125683500Y-86939000D03*
X125683500Y-86289000D03*
X125683500Y-85639000D03*
G04 #@! TD*
D29*
G04 #@! TO.C,R17*
X169924000Y-54546000D03*
X169924000Y-52896000D03*
G04 #@! TD*
D21*
G04 #@! TO.C,U19*
X163387000Y-87884000D03*
X163387000Y-89154000D03*
X163387000Y-90424000D03*
X163387000Y-91694000D03*
X168337000Y-91694000D03*
X168337000Y-90424000D03*
X168337000Y-89154000D03*
X168337000Y-87884000D03*
G04 #@! TD*
D26*
G04 #@! TO.C,R27*
X119825000Y-57658000D03*
X121475000Y-57658000D03*
G04 #@! TD*
D31*
G04 #@! TO.C,C40*
X203708000Y-84595000D03*
X203708000Y-83045000D03*
G04 #@! TD*
D41*
G04 #@! TO.C,Q11*
X131379000Y-80596500D03*
X129479000Y-80596500D03*
X130429000Y-82471500D03*
G04 #@! TD*
D29*
G04 #@! TO.C,R1*
X128524000Y-73088000D03*
X128524000Y-71438000D03*
G04 #@! TD*
D12*
G04 #@! TO.C,TP16*
X179324000Y-77343000D03*
G04 #@! TD*
D41*
G04 #@! TO.C,D1*
X194625000Y-61292500D03*
X192725000Y-61292500D03*
X193675000Y-63167500D03*
G04 #@! TD*
D42*
G04 #@! TO.C,TP7*
X120523000Y-79121000D03*
G04 #@! TD*
G04 #@! TO.C,TP6*
X200533000Y-56007000D03*
G04 #@! TD*
D21*
G04 #@! TO.C,U20*
X175833000Y-87884000D03*
X175833000Y-89154000D03*
X175833000Y-90424000D03*
X175833000Y-91694000D03*
X180783000Y-91694000D03*
X180783000Y-90424000D03*
X180783000Y-89154000D03*
X180783000Y-87884000D03*
G04 #@! TD*
G04 #@! TO.C,Q1*
X130367000Y-65659000D03*
X130367000Y-66929000D03*
X130367000Y-68199000D03*
X130367000Y-69469000D03*
X135317000Y-69469000D03*
X135317000Y-68199000D03*
X135317000Y-66929000D03*
X135317000Y-65659000D03*
G04 #@! TD*
D10*
G04 #@! TO.C,R58*
X194627000Y-88011000D03*
X192977000Y-88011000D03*
G04 #@! TD*
D26*
G04 #@! TO.C,R3*
X141923000Y-72517000D03*
X143573000Y-72517000D03*
G04 #@! TD*
D31*
G04 #@! TO.C,C31*
X167640000Y-72784000D03*
X167640000Y-71234000D03*
G04 #@! TD*
D26*
G04 #@! TO.C,R29*
X126556000Y-43053000D03*
X128206000Y-43053000D03*
G04 #@! TD*
D17*
G04 #@! TO.C,R69*
X169672000Y-103061000D03*
X169672000Y-104711000D03*
G04 #@! TD*
D43*
G04 #@! TO.C,Q7*
X190208000Y-55779000D03*
X190208000Y-56439000D03*
X190208000Y-57099000D03*
X190208000Y-57759000D03*
D44*
X192200500Y-56769000D03*
G04 #@! TD*
D10*
G04 #@! TO.C,R6*
X140525000Y-64897000D03*
X138875000Y-64897000D03*
G04 #@! TD*
G04 #@! TO.C,R28*
X128206000Y-44577000D03*
X126556000Y-44577000D03*
G04 #@! TD*
D20*
G04 #@! TO.C,C53*
X150241000Y-94602000D03*
X150241000Y-96152000D03*
G04 #@! TD*
D37*
G04 #@! TO.C,C29*
X158418000Y-44069000D03*
X161368000Y-44069000D03*
G04 #@! TD*
D10*
G04 #@! TO.C,R73*
X169989000Y-84455000D03*
X168339000Y-84455000D03*
G04 #@! TD*
D12*
G04 #@! TO.C,TP3*
X151384000Y-66040000D03*
G04 #@! TD*
D34*
G04 #@! TO.C,J2*
X105654000Y-91694000D03*
X105654000Y-81534000D03*
X95494000Y-91694000D03*
X95494000Y-81534000D03*
D35*
X101854000Y-86614000D03*
G04 #@! TD*
D10*
G04 #@! TO.C,R11*
X148272000Y-58293000D03*
X146622000Y-58293000D03*
G04 #@! TD*
D45*
G04 #@! TO.C,C23*
X128729000Y-54483000D03*
X125779000Y-54483000D03*
G04 #@! TD*
D31*
G04 #@! TO.C,C56*
X141351000Y-97168000D03*
X141351000Y-95618000D03*
G04 #@! TD*
D20*
G04 #@! TO.C,C50*
X127508000Y-85839000D03*
X127508000Y-87389000D03*
G04 #@! TD*
D46*
G04 #@! TO.C,U10*
X159781000Y-49277500D03*
X159131000Y-49277500D03*
X158481000Y-49277500D03*
X158481000Y-51052500D03*
X159131000Y-51052500D03*
X159781000Y-51052500D03*
D16*
X159131000Y-50165000D03*
G04 #@! TD*
D12*
G04 #@! TO.C,TP2*
X127000000Y-62230000D03*
G04 #@! TD*
D17*
G04 #@! TO.C,R48*
X176657000Y-71692000D03*
X176657000Y-73342000D03*
G04 #@! TD*
D20*
G04 #@! TO.C,C2*
X142621000Y-67932000D03*
X142621000Y-69482000D03*
G04 #@! TD*
D47*
G04 #@! TO.C,C8*
X185105000Y-53340000D03*
X187005000Y-53340000D03*
G04 #@! TD*
D12*
G04 #@! TO.C,TP31*
X127000000Y-81280000D03*
G04 #@! TD*
D31*
G04 #@! TO.C,C48*
X119634000Y-87389000D03*
X119634000Y-85839000D03*
G04 #@! TD*
D12*
G04 #@! TO.C,TP11*
X156210000Y-61722000D03*
G04 #@! TD*
D32*
G04 #@! TO.C,C25*
X155702000Y-46404000D03*
X155702000Y-49354000D03*
G04 #@! TD*
D40*
G04 #@! TO.C,U15*
X112060500Y-66589000D03*
X112060500Y-67239000D03*
X112060500Y-67889000D03*
X112060500Y-68539000D03*
X116285500Y-68539000D03*
X116285500Y-67889000D03*
X116285500Y-67239000D03*
X116285500Y-66589000D03*
G04 #@! TD*
D26*
G04 #@! TO.C,R7*
X148019000Y-72517000D03*
X149669000Y-72517000D03*
G04 #@! TD*
D48*
G04 #@! TO.C,U21*
X183769000Y-102108000D03*
D49*
X185039000Y-103378000D03*
X186309000Y-102108000D03*
X185039000Y-100838000D03*
G04 #@! TD*
D50*
G04 #@! TO.C,U18*
X202051500Y-84643000D03*
X202051500Y-83693000D03*
X202051500Y-82743000D03*
X199776500Y-82743000D03*
X199776500Y-83693000D03*
X199776500Y-84643000D03*
G04 #@! TD*
D21*
G04 #@! TO.C,Q9*
X130367000Y-84709000D03*
X130367000Y-85979000D03*
X130367000Y-87249000D03*
X130367000Y-88519000D03*
X135317000Y-88519000D03*
X135317000Y-87249000D03*
X135317000Y-85979000D03*
X135317000Y-84709000D03*
G04 #@! TD*
D38*
G04 #@! TO.C,H3*
X94000000Y-104000000D03*
G04 #@! TD*
D11*
G04 #@! TO.C,C6*
X144158000Y-56642000D03*
X142608000Y-56642000D03*
G04 #@! TD*
D20*
G04 #@! TO.C,C36*
X118110000Y-66789000D03*
X118110000Y-68339000D03*
G04 #@! TD*
D21*
G04 #@! TO.C,U26*
X143321000Y-93345000D03*
X143321000Y-94615000D03*
X143321000Y-95885000D03*
X143321000Y-97155000D03*
X148271000Y-97155000D03*
X148271000Y-95885000D03*
X148271000Y-94615000D03*
X148271000Y-93345000D03*
G04 #@! TD*
D10*
G04 #@! TO.C,R33*
X159956000Y-46482000D03*
X158306000Y-46482000D03*
G04 #@! TD*
D29*
G04 #@! TO.C,R70*
X169672000Y-101409000D03*
X169672000Y-99759000D03*
G04 #@! TD*
D47*
G04 #@! TO.C,C14*
X167553000Y-56966500D03*
X169453000Y-56966500D03*
G04 #@! TD*
D29*
G04 #@! TO.C,R9*
X131572000Y-73088000D03*
X131572000Y-71438000D03*
G04 #@! TD*
D12*
G04 #@! TO.C,TP17*
X179070000Y-81026000D03*
G04 #@! TD*
D10*
G04 #@! TO.C,R76*
X116649000Y-84074000D03*
X114999000Y-84074000D03*
G04 #@! TD*
D12*
G04 #@! TO.C,TP32*
X151384000Y-85090000D03*
G04 #@! TD*
G04 #@! TO.C,TP25*
X154432000Y-80772000D03*
G04 #@! TD*
D26*
G04 #@! TO.C,R34*
X158306000Y-48006000D03*
X159956000Y-48006000D03*
G04 #@! TD*
D12*
G04 #@! TO.C,TP35*
X182880000Y-74295000D03*
G04 #@! TD*
D17*
G04 #@! TO.C,R71*
X165100000Y-93282000D03*
X165100000Y-94932000D03*
G04 #@! TD*
D12*
G04 #@! TO.C,TP8*
X127635000Y-57150000D03*
G04 #@! TD*
D29*
G04 #@! TO.C,R22*
X137287000Y-55308000D03*
X137287000Y-53658000D03*
G04 #@! TD*
D38*
G04 #@! TO.C,H4*
X215000000Y-104000000D03*
G04 #@! TD*
D12*
G04 #@! TO.C,TP22*
X210185000Y-60452000D03*
G04 #@! TD*
G04 #@! TO.C,TP21*
X122301000Y-90932000D03*
G04 #@! TD*
D10*
G04 #@! TO.C,R77*
X113347000Y-84074000D03*
X111697000Y-84074000D03*
G04 #@! TD*
D14*
G04 #@! TO.C,C32*
X175247000Y-75946000D03*
X176797000Y-75946000D03*
G04 #@! TD*
D51*
G04 #@! TO.C,D5*
X134747000Y-51015000D03*
D52*
X134747000Y-48640000D03*
G04 #@! TD*
D12*
G04 #@! TO.C,TP29*
X154305000Y-76835000D03*
G04 #@! TD*
D10*
G04 #@! TO.C,R52*
X120459000Y-70231000D03*
X118809000Y-70231000D03*
G04 #@! TD*
D31*
G04 #@! TO.C,C47*
X109982000Y-87389000D03*
X109982000Y-85839000D03*
G04 #@! TD*
D53*
G04 #@! TO.C,L3*
X138811000Y-51350000D03*
X138811000Y-48980000D03*
G04 #@! TD*
D10*
G04 #@! TO.C,R53*
X126047000Y-65024000D03*
X124397000Y-65024000D03*
G04 #@! TD*
G04 #@! TO.C,R64*
X203771000Y-86487000D03*
X202121000Y-86487000D03*
G04 #@! TD*
D12*
G04 #@! TO.C,TP13*
X177673000Y-66040000D03*
G04 #@! TD*
D29*
G04 #@! TO.C,R2*
X130048000Y-73088000D03*
X130048000Y-71438000D03*
G04 #@! TD*
D20*
G04 #@! TO.C,C54*
X142621000Y-86982000D03*
X142621000Y-88532000D03*
G04 #@! TD*
D26*
G04 #@! TO.C,R13*
X190183000Y-59309000D03*
X191833000Y-59309000D03*
G04 #@! TD*
G04 #@! TO.C,R4*
X129604000Y-59817000D03*
X131254000Y-59817000D03*
G04 #@! TD*
D11*
G04 #@! TO.C,C43*
X180861000Y-86233000D03*
X179311000Y-86233000D03*
G04 #@! TD*
D10*
G04 #@! TO.C,R12*
X191833000Y-54102000D03*
X190183000Y-54102000D03*
G04 #@! TD*
D32*
G04 #@! TO.C,C27*
X132080000Y-45134000D03*
X132080000Y-48084000D03*
G04 #@! TD*
D11*
G04 #@! TO.C,C38*
X116218000Y-70104000D03*
X114668000Y-70104000D03*
G04 #@! TD*
G04 #@! TO.C,C30*
X174638000Y-82677000D03*
X173088000Y-82677000D03*
G04 #@! TD*
D10*
G04 #@! TO.C,R80*
X122745000Y-84074000D03*
X121095000Y-84074000D03*
G04 #@! TD*
D23*
G04 #@! TO.C,U1*
X144112500Y-66589000D03*
X144112500Y-67239000D03*
X144112500Y-67889000D03*
X144112500Y-68539000D03*
D24*
X145075000Y-69501500D03*
X145725000Y-69501500D03*
X146375000Y-69501500D03*
X147025000Y-69501500D03*
D23*
X147987500Y-68539000D03*
X147987500Y-67889000D03*
X147987500Y-67239000D03*
X147987500Y-66589000D03*
D24*
X147025000Y-65626500D03*
X146375000Y-65626500D03*
X145725000Y-65626500D03*
X145075000Y-65626500D03*
D25*
X146050000Y-67564000D03*
G04 #@! TD*
D12*
G04 #@! TO.C,TP12*
X164084000Y-43180000D03*
G04 #@! TD*
D17*
G04 #@! TO.C,R92*
X115316000Y-54928000D03*
X115316000Y-56578000D03*
G04 #@! TD*
D45*
G04 #@! TO.C,C13*
X121617000Y-46355000D03*
X118667000Y-46355000D03*
G04 #@! TD*
D17*
G04 #@! TO.C,R21*
X135763000Y-53658000D03*
X135763000Y-55308000D03*
G04 #@! TD*
D12*
G04 #@! TO.C,TP15*
X180340000Y-71755000D03*
G04 #@! TD*
D40*
G04 #@! TO.C,U23*
X112060500Y-85639000D03*
X112060500Y-86289000D03*
X112060500Y-86939000D03*
X112060500Y-87589000D03*
X116285500Y-87589000D03*
X116285500Y-86939000D03*
X116285500Y-86289000D03*
X116285500Y-85639000D03*
G04 #@! TD*
D12*
G04 #@! TO.C,TP9*
X153807000Y-56777500D03*
G04 #@! TD*
G04 #@! TO.C,TP19*
X172974000Y-92202000D03*
G04 #@! TD*
D41*
G04 #@! TO.C,Q3*
X131379000Y-61546500D03*
X129479000Y-61546500D03*
X130429000Y-63421500D03*
G04 #@! TD*
D54*
G04 #@! TO.C,D4*
X150749000Y-48045000D03*
D55*
X150749000Y-50420000D03*
G04 #@! TD*
D14*
G04 #@! TO.C,C46*
X175755000Y-93218000D03*
X177305000Y-93218000D03*
G04 #@! TD*
D56*
G04 #@! TO.C,U6*
X167386000Y-49668500D03*
X166116000Y-49668500D03*
X164846000Y-49668500D03*
X163576000Y-49668500D03*
X163576000Y-54618500D03*
X164846000Y-54618500D03*
X166116000Y-54618500D03*
X167386000Y-54618500D03*
D57*
X165481000Y-52143500D03*
G04 #@! TD*
D12*
G04 #@! TO.C,TP5*
X155702000Y-68453000D03*
G04 #@! TD*
D31*
G04 #@! TO.C,C44*
X161290000Y-91580000D03*
X161290000Y-90030000D03*
G04 #@! TD*
D10*
G04 #@! TO.C,R31*
X159956000Y-55499000D03*
X158306000Y-55499000D03*
G04 #@! TD*
D58*
G04 #@! TO.C,C22*
X165542000Y-46863000D03*
X163642000Y-46863000D03*
G04 #@! TD*
D26*
G04 #@! TO.C,R41*
X166053000Y-66929000D03*
X167703000Y-66929000D03*
G04 #@! TD*
D58*
G04 #@! TO.C,C16*
X165897000Y-56969500D03*
X163997000Y-56969500D03*
G04 #@! TD*
D17*
G04 #@! TO.C,R38*
X156845000Y-55436000D03*
X156845000Y-57086000D03*
G04 #@! TD*
G04 #@! TO.C,R91*
X116332000Y-44514000D03*
X116332000Y-46164000D03*
G04 #@! TD*
D31*
G04 #@! TO.C,C33*
X176657000Y-70244000D03*
X176657000Y-68694000D03*
G04 #@! TD*
D47*
G04 #@! TO.C,C18*
X167325000Y-46863000D03*
X169225000Y-46863000D03*
G04 #@! TD*
D31*
G04 #@! TO.C,C4*
X141351000Y-78118000D03*
X141351000Y-76568000D03*
G04 #@! TD*
D26*
G04 #@! TO.C,R87*
X148019000Y-91567000D03*
X149669000Y-91567000D03*
G04 #@! TD*
D29*
G04 #@! TO.C,R60*
X189230000Y-92642000D03*
X189230000Y-90992000D03*
G04 #@! TD*
D59*
G04 #@! TO.C,RN4*
X140510500Y-87564000D03*
X140510500Y-85664000D03*
X138635500Y-86614000D03*
G04 #@! TD*
D10*
G04 #@! TO.C,R14*
X140525000Y-55245000D03*
X138875000Y-55245000D03*
G04 #@! TD*
D27*
G04 #@! TO.C,U12*
X156893000Y-74295000D03*
X156893000Y-76835000D03*
X162893000Y-76835000D03*
X162893000Y-74295000D03*
G04 #@! TD*
D45*
G04 #@! TO.C,C28*
X159844000Y-59055000D03*
X156894000Y-59055000D03*
G04 #@! TD*
D21*
G04 #@! TO.C,U13*
X169737000Y-68961000D03*
X169737000Y-70231000D03*
X169737000Y-71501000D03*
X169737000Y-72771000D03*
X174687000Y-72771000D03*
X174687000Y-71501000D03*
X174687000Y-70231000D03*
X174687000Y-68961000D03*
G04 #@! TD*
D31*
G04 #@! TO.C,C34*
X109982000Y-68339000D03*
X109982000Y-66789000D03*
G04 #@! TD*
D26*
G04 #@! TO.C,R10*
X142558000Y-58293000D03*
X144208000Y-58293000D03*
G04 #@! TD*
G04 #@! TO.C,R88*
X138875000Y-89281000D03*
X140525000Y-89281000D03*
G04 #@! TD*
D60*
G04 #@! TO.C,U22*
X163585000Y-100711000D03*
X163585000Y-101981000D03*
X163585000Y-103251000D03*
D61*
X165735000Y-104131000D03*
D62*
X167885000Y-103251000D03*
X167885000Y-101981000D03*
X167885000Y-100711000D03*
D63*
X165735000Y-100231000D03*
G04 #@! TD*
D12*
G04 #@! TO.C,TP26*
X207518000Y-62230000D03*
G04 #@! TD*
D58*
G04 #@! TO.C,C5*
X186878000Y-60452000D03*
X184978000Y-60452000D03*
G04 #@! TD*
D17*
G04 #@! TO.C,R56*
X189611000Y-79820000D03*
X189611000Y-81470000D03*
G04 #@! TD*
D10*
G04 #@! TO.C,R86*
X140525000Y-83947000D03*
X138875000Y-83947000D03*
G04 #@! TD*
D37*
G04 #@! TO.C,C26*
X116762000Y-59944000D03*
X119712000Y-59944000D03*
G04 #@! TD*
D40*
G04 #@! TO.C,U16*
X121458500Y-66589000D03*
X121458500Y-67239000D03*
X121458500Y-67889000D03*
X121458500Y-68539000D03*
X125683500Y-68539000D03*
X125683500Y-67889000D03*
X125683500Y-67239000D03*
X125683500Y-66589000D03*
G04 #@! TD*
D10*
G04 #@! TO.C,R72*
X173037000Y-84455000D03*
X171387000Y-84455000D03*
G04 #@! TD*
G04 #@! TO.C,R50*
X116649000Y-65024000D03*
X114999000Y-65024000D03*
G04 #@! TD*
D59*
G04 #@! TO.C,RN1*
X140510500Y-68514000D03*
X140510500Y-66614000D03*
X138635500Y-67564000D03*
G04 #@! TD*
D10*
G04 #@! TO.C,R30*
X159956000Y-57023000D03*
X158306000Y-57023000D03*
G04 #@! TD*
G04 #@! TO.C,R62*
X201866000Y-81153000D03*
X200216000Y-81153000D03*
G04 #@! TD*
D38*
G04 #@! TO.C,H1*
X94000000Y-46000000D03*
G04 #@! TD*
D12*
G04 #@! TO.C,TP24*
X210185000Y-64262000D03*
G04 #@! TD*
D56*
G04 #@! TO.C,U8*
X129159000Y-46674000D03*
X127889000Y-46674000D03*
X126619000Y-46674000D03*
X125349000Y-46674000D03*
X125349000Y-51624000D03*
X126619000Y-51624000D03*
X127889000Y-51624000D03*
X129159000Y-51624000D03*
D57*
X127254000Y-49149000D03*
G04 #@! TD*
D64*
G04 #@! TO.C,J5*
X213800000Y-56800000D03*
D65*
X216340000Y-56800000D03*
X213800000Y-59340000D03*
X216340000Y-59340000D03*
X213800000Y-61880000D03*
X216340000Y-61880000D03*
X213800000Y-64420000D03*
X216340000Y-64420000D03*
X213800000Y-66960000D03*
X216340000Y-66960000D03*
X213800000Y-69500000D03*
X216340000Y-69500000D03*
G04 #@! TD*
D41*
G04 #@! TO.C,RN3*
X173289000Y-87835500D03*
X171389000Y-87835500D03*
X172339000Y-89710500D03*
G04 #@! TD*
D26*
G04 #@! TO.C,R43*
X164910000Y-81788000D03*
X166560000Y-81788000D03*
G04 #@! TD*
D20*
G04 #@! TO.C,C37*
X127508000Y-66789000D03*
X127508000Y-68339000D03*
G04 #@! TD*
D12*
G04 #@! TO.C,TP34*
X155575000Y-87503000D03*
G04 #@! TD*
D66*
G04 #@! TO.C,L2*
X146304000Y-47248000D03*
X146304000Y-43938000D03*
G04 #@! TD*
D26*
G04 #@! TO.C,R63*
X199073000Y-86487000D03*
X200723000Y-86487000D03*
G04 #@! TD*
D11*
G04 #@! TO.C,C42*
X168161000Y-86233000D03*
X166611000Y-86233000D03*
G04 #@! TD*
D21*
G04 #@! TO.C,U14*
X169737000Y-77343000D03*
X169737000Y-78613000D03*
X169737000Y-79883000D03*
X169737000Y-81153000D03*
X174687000Y-81153000D03*
X174687000Y-79883000D03*
X174687000Y-78613000D03*
X174687000Y-77343000D03*
G04 #@! TD*
D67*
G04 #@! TO.C,U4*
X142211000Y-49272000D03*
X142211000Y-49922000D03*
X142211000Y-50572000D03*
X142211000Y-51222000D03*
X142211000Y-51872000D03*
X142211000Y-52522000D03*
X142211000Y-53172000D03*
X142211000Y-53822000D03*
X142211000Y-54472000D03*
X142211000Y-55122000D03*
X148111000Y-55122000D03*
X148111000Y-54472000D03*
X148111000Y-53822000D03*
X148111000Y-53172000D03*
X148111000Y-52522000D03*
X148111000Y-51872000D03*
X148111000Y-51222000D03*
X148111000Y-50572000D03*
X148111000Y-49922000D03*
X148111000Y-49272000D03*
D68*
X145161000Y-52197000D03*
G04 #@! TD*
D26*
G04 #@! TO.C,R93*
X153734000Y-50927000D03*
X155384000Y-50927000D03*
G04 #@! TD*
D10*
G04 #@! TO.C,R79*
X126047000Y-84074000D03*
X124397000Y-84074000D03*
G04 #@! TD*
D26*
G04 #@! TO.C,R8*
X138875000Y-70231000D03*
X140525000Y-70231000D03*
G04 #@! TD*
D69*
G04 #@! TO.C,U17*
X203200000Y-77724000D03*
X203200000Y-74124000D03*
X201930000Y-77724000D03*
X201930000Y-74124000D03*
X200660000Y-77724000D03*
X200660000Y-74124000D03*
X199390000Y-77724000D03*
X199390000Y-74124000D03*
X186690000Y-84284000D03*
X186690000Y-87884000D03*
X187960000Y-84284000D03*
X187960000Y-87884000D03*
X189230000Y-84284000D03*
X189230000Y-87884000D03*
X190500000Y-84284000D03*
X190500000Y-87884000D03*
G04 #@! TD*
D28*
G04 #@! TO.C,Q5*
X133428500Y-71313000D03*
X133428500Y-73213000D03*
X135303500Y-72263000D03*
G04 #@! TD*
D10*
G04 #@! TO.C,R94*
X132016000Y-54483000D03*
X130366000Y-54483000D03*
G04 #@! TD*
D26*
G04 #@! TO.C,R26*
X116777000Y-57658000D03*
X118427000Y-57658000D03*
G04 #@! TD*
D31*
G04 #@! TO.C,C41*
X198120000Y-84722000D03*
X198120000Y-83172000D03*
G04 #@! TD*
D64*
G04 #@! TO.C,J4*
X213800000Y-79800000D03*
D65*
X216340000Y-79800000D03*
X213800000Y-82340000D03*
X216340000Y-82340000D03*
X213800000Y-84880000D03*
X216340000Y-84880000D03*
X213800000Y-87420000D03*
X216340000Y-87420000D03*
X213800000Y-89960000D03*
X216340000Y-89960000D03*
X213800000Y-92500000D03*
X216340000Y-92500000D03*
G04 #@! TD*
D70*
G04 #@! TO.C,D3*
X169924000Y-49671000D03*
X169924000Y-51421000D03*
G04 #@! TD*
D10*
G04 #@! TO.C,R16*
X186753000Y-62484000D03*
X185103000Y-62484000D03*
G04 #@! TD*
D20*
G04 #@! TO.C,C49*
X118110000Y-85839000D03*
X118110000Y-87389000D03*
G04 #@! TD*
D26*
G04 #@! TO.C,R85*
X144971000Y-91567000D03*
X146621000Y-91567000D03*
G04 #@! TD*
D17*
G04 #@! TO.C,R55*
X187833000Y-79820000D03*
X187833000Y-81470000D03*
G04 #@! TD*
D30*
G04 #@! TO.C,Q8*
X189296000Y-63167500D03*
X191196000Y-63167500D03*
X190246000Y-61292500D03*
G04 #@! TD*
D71*
G04 #@! TO.C,C12*
X171831000Y-54676000D03*
X171831000Y-56576000D03*
G04 #@! TD*
D29*
G04 #@! TO.C,R23*
X151638000Y-53784000D03*
X151638000Y-52134000D03*
G04 #@! TD*
D37*
G04 #@! TO.C,C24*
X153973000Y-53213000D03*
X156923000Y-53213000D03*
G04 #@! TD*
D26*
G04 #@! TO.C,R42*
X164910000Y-76962000D03*
X166560000Y-76962000D03*
G04 #@! TD*
D11*
G04 #@! TO.C,C11*
X151651000Y-55245000D03*
X150101000Y-55245000D03*
G04 #@! TD*
D17*
G04 #@! TO.C,R19*
X113665000Y-52388000D03*
X113665000Y-54038000D03*
G04 #@! TD*
D21*
G04 #@! TO.C,U2*
X143321000Y-74295000D03*
X143321000Y-75565000D03*
X143321000Y-76835000D03*
X143321000Y-78105000D03*
X148271000Y-78105000D03*
X148271000Y-76835000D03*
X148271000Y-75565000D03*
X148271000Y-74295000D03*
G04 #@! TD*
D26*
G04 #@! TO.C,R46*
X164910000Y-79375000D03*
X166560000Y-79375000D03*
G04 #@! TD*
D72*
G04 #@! TO.C,J3*
X192405000Y-46055500D03*
D73*
X187325000Y-46055500D03*
G04 #@! TD*
D20*
G04 #@! TO.C,C1*
X150241000Y-75552000D03*
X150241000Y-77102000D03*
G04 #@! TD*
M02*
