G04 #@! TF.GenerationSoftware,KiCad,Pcbnew,9.0.3*
G04 #@! TF.CreationDate,2025-08-15T00:00:32+02:00*
G04 #@! TF.ProjectId,MADC_ARTY,4d414443-5f41-4525-9459-2e6b69636164,rev?*
G04 #@! TF.SameCoordinates,Original*
G04 #@! TF.FileFunction,Profile,NP*
%FSLAX46Y46*%
G04 Gerber Fmt 4.6, Leading zero omitted, Abs format (unit mm)*
G04 Created by KiCad (PCBNEW 9.0.3) date 2025-08-15 00:00:32*
%MOMM*%
%LPD*%
G01*
G04 APERTURE LIST*
G04 #@! TA.AperFunction,Profile*
%ADD10C,0.050000*%
G04 #@! TD*
G04 APERTURE END LIST*
D10*
X168275000Y-97917000D02*
X171323000Y-97917000D01*
X179451000Y-103251000D02*
X177800000Y-103251000D01*
X177800000Y-103251000D02*
X177800000Y-107950000D01*
X168275000Y-107950000D02*
X172974000Y-107950000D01*
X168275000Y-96266000D02*
X172974000Y-96266000D01*
X192278000Y-103251000D02*
X192278000Y-107950000D01*
X192278000Y-100965000D02*
X192278000Y-96266000D01*
X182499000Y-107950000D02*
X177800000Y-107950000D01*
X158496000Y-103251000D02*
X158496000Y-107950000D01*
X158496000Y-100965000D02*
X160147000Y-100965000D01*
X192278000Y-103251000D02*
X190627000Y-103251000D01*
X163195000Y-96266000D02*
X158496000Y-96266000D01*
X187579000Y-106299000D02*
X187579000Y-107950000D01*
X163195000Y-97917000D02*
X163195000Y-96266000D01*
X160147000Y-103251000D02*
X160147000Y-106299000D01*
X190627000Y-103251000D02*
X190627000Y-106299000D01*
X177800000Y-100965000D02*
X177800000Y-96266000D01*
X179451000Y-100965000D02*
X179451000Y-97917000D01*
X187579000Y-96266000D02*
X187579000Y-97917000D01*
X187579000Y-96266000D02*
X192278000Y-96266000D01*
X187579000Y-107950000D02*
X192278000Y-107950000D01*
X171323000Y-100965000D02*
X171323000Y-97917000D01*
X163195000Y-106299000D02*
X160147000Y-106299000D01*
X160147000Y-103251000D02*
X158496000Y-103251000D01*
X190627000Y-100965000D02*
X192278000Y-100965000D01*
X187579000Y-106299000D02*
X190627000Y-106299000D01*
X187579000Y-97917000D02*
X190627000Y-97917000D01*
X163195000Y-107950000D02*
X163195000Y-106299000D01*
X182499000Y-97917000D02*
X179451000Y-97917000D01*
X163195000Y-97917000D02*
X160147000Y-97917000D01*
X171323000Y-103251000D02*
X171323000Y-106299000D01*
X179451000Y-103251000D02*
X179451000Y-106299000D01*
X182499000Y-96266000D02*
X177800000Y-96266000D01*
X163195000Y-107950000D02*
X158496000Y-107950000D01*
X168275000Y-106299000D02*
X168275000Y-107950000D01*
X172974000Y-103251000D02*
X171323000Y-103251000D01*
X158496000Y-100965000D02*
X158496000Y-96266000D01*
X168275000Y-106299000D02*
X171323000Y-106299000D01*
X172974000Y-100965000D02*
X172974000Y-96266000D01*
X160147000Y-100965000D02*
X160147000Y-97917000D01*
X190627000Y-100965000D02*
X190627000Y-97917000D01*
X182499000Y-107950000D02*
X182499000Y-106299000D01*
X168275000Y-96266000D02*
X168275000Y-97917000D01*
X88000000Y-40000000D02*
X221000000Y-40000000D01*
X221000000Y-110000000D01*
X88000000Y-110000000D01*
X88000000Y-40000000D01*
X172974000Y-103251000D02*
X172974000Y-107950000D01*
X177800000Y-100965000D02*
X179451000Y-100965000D01*
X171323000Y-100965000D02*
X172974000Y-100965000D01*
X182499000Y-106299000D02*
X179451000Y-106299000D01*
X182499000Y-97917000D02*
X182499000Y-96266000D01*
M02*
